<?xml version="1.0" encoding="UTF-8" standalone="no"?>
<svg
   xmlns="http://www.w3.org/2000/svg"
   xmlns:xlink="http://www.w3.org/1999/xlink"
   version="1.1">
  <title>The Karpovka Embankment</title>
  <desc>Fence installed on the Karpovka river Embankment in Saint-Petersburg</desc>
  <defs>
    <path id="column"
        d="M 60,134 60,16 C 60,16 50,6 32,6 14,6 6,16 6,16
            L 6,134 2,135 2,165 64,165 64,135 z"/>

    <path id="ellipcePart" fill="none" stroke="#000" stroke-width="2.5"
            d="
            M 18,5 18,0
            M 18,5 C -20,40 16,113 36,114 64,114 98,40 62,5
            M 37,115 37,120
            " />

    <pattern id="karps" patternUnits="userSpaceOnUse" x="0" y="0" width="90" height="125">
        <use x="-45" xlink:href="#ellipcePart" />
        <use xlink:href="#ellipcePart" />
        <use x="45" xlink:href="#ellipcePart" />
    </pattern>

    <g id="handrail">
      <rect y="5" width="500" height="5" />
      <rect width="500" height="125" fill="url(#karps)" transform="translate(0,10)" />
      <rect y="128" width="500" height="5" />
    </g>
    
    <pattern id="basement" patternUnits="userSpaceOnUse" x="0" y="0" width="235" height="12">
      <path d="M32,0 32,12" stroke="#000" stroke-width="2" />
    </pattern>

    <g id="fenceKarpovka">
      <use x="5" y="17" xlink:href="#handrail" />
      <use x="-11" xlink:href="#column" />
      <use x="490" xlink:href="#column" />
    </g>

    <pattern id="patternFenceKarpovka" patternUnits="userSpaceOnUse" x="0" y="0" width="501" height="179">
      <use xlink:href="#fenceKarpovka"/>
      <rect width="450" height="12" fill="url(#basement)" transform="translate(0,149)" />
    </pattern>

    <rect id="fenceBorder" width="100%" height="160" fill="url(#patternFenceKarpovka)" transform="translate(0,-160)" />

  </defs>

  <use xlink:href="#fenceBorder" y="100%" />

</svg>
