<?xml version="1.0" encoding="UTF-8" standalone="no"?>
<svg
   xmlns="http://www.w3.org/2000/svg"
   xmlns:xlink="http://www.w3.org/1999/xlink"
   version="1.1">
  <title>The Vyborgs Embankment</title>
  <desc>Fence installed on the Vyborgs Embankment in Saint-Petersburg</desc>
  <defs>
    <path id="column" d="M 7,3 0,10 0,178 82,178 82,10 75,3 z" />

    <pattern id="rombs" patternUnits="userSpaceOnUse" x="0" y="0" width="32" height="119">
        <path d="
               M 16,0 16,19
               M 22,19 32,60 23,104 10,104 0,60 10,19 z
               M 16,104 16,120
               M 0,44 0,77
               M 32,44 32,77
               M 33,44 33,74 "
            stroke="#000" stroke-width="5" fill="none" />
    </pattern>

    <g id="handrail">
      <rect width="450" height="8" />
      <rect width="450" height="119" fill="url(#rombs)" transform="translate(0,8)" />
      <rect y="125" width="450" height="8" />
    </g>
    
    <pattern id="basement" patternUnits="userSpaceOnUse" x="0" y="0" width="200" height="12">
      <circle cx="10" cy="6" r="6" />
    </pattern>

    <g id="fenceVyborgs">
      <use x="70" y="17" xlink:href="#handrail" />
      <use x="-11" xlink:href="#column" />
      <use x="498" xlink:href="#column" />
    </g>

    <pattern id="patternFenceVyborgs" patternUnits="userSpaceOnUse" x="0" y="0" width="509" height="179">
      <use xlink:href="#fenceVyborgs"/>
      <rect width="450" height="12" fill="url(#basement)" transform="translate(0,149)" />
    </pattern>

    <rect id="fenceBorder" width="100%" height="160" fill="url(#patternFenceVyborgs)" transform="translate(0,-160)" />

  </defs>

  <use xlink:href="#fenceBorder" y="100%" />

</svg>
