<?xml version="1.0" encoding="UTF-8" standalone="no"?>
<svg version="1.1" xmlns="http://www.w3.org/2000/svg" xmlns:xlink="http://www.w3.org/1999/xlink" top="0" left="0">

   <path
       d="M 548.16497,602.51404 C 544.39599,602.46904 542.44425,605.04177 541.83361,608.31962 C 540.93632,614.84219 541.66412,623.09869 541.00272,629.48244 C 533.06041,629.79211 528.86793,629.98585 522.28689,630.32396 C 522.24907,622.18823 521.69223,620.46085 519.24954,620.32938 C 516.84341,620.19987 516.43479,622.22062 516.36689,624.22196 C 516.29899,626.22329 516.32318,628.43173 516.27856,630.60655 C 516.27857,630.60654 515.08466,630.61705 514.84893,630.99902 C 514.6298,631.35409 514.59266,632.11082 514.7756,632.50911 C 514.94453,632.87689 516.31523,633.00615 516.31522,633.00616 C 516.31522,633.00616 516.33136,637.10623 516.27314,639.12944 C 516.2056,641.33883 516.35322,643.4298 519.26147,643.48735 C 522.16877,643.54488 522.25969,638.97649 522.28689,633.37701 C 531.05333,633.92589 531.54061,634.01425 541.00272,634.47368 C 541.61913,640.83085 540.93632,647.92474 541.83361,653.44029 C 542.55133,657.8521 544.39728,660.61165 548.15213,660.48623 C 551.90698,660.36081 553.24196,658.22708 553.24832,653.407 C 553.25928,644.8866 554.0194,635.28156 554.0194,635.28156 C 557.73343,635.19899 562.89282,636.13057 562.9073,632.4527 C 562.92178,628.77481 557.76024,629.44301 554.01106,629.32367 C 554.01015,624.76112 553.18728,614.79196 553.22404,608.22378 C 553.24196,605.15082 551.97086,602.55948 548.16497,602.51404 z" />
  
</svg>
