<?xml version="1.0" encoding="UTF-8" standalone="no"?>
<svg version="1.1" xmlns="http://www.w3.org/2000/svg" xmlns:xlink="http://www.w3.org/1999/xlink" top="0" left="0">

  <path
   d="M 158.55829,272.4164 L 295.19914,453.74156 L 377.14914,453.74156 L 303.13535,325.55451 L 303.13535,271.20872 C 349.54493,270.00103 394.91935,266.03293 439.77619,259.3044 L 473.41882,316.75566 L 518.96577,316.75566 L 504.1285,238.9463 L 522.58882,227.04197 L 504.1285,214.96513 L 518.96577,137.15576 L 473.41882,137.15576 L 438.22345,194.4345 C 394.91935,188.05103 349.54493,183.91039 304.34303,182.70271 L 303.13535,128.52945 L 377.14914,0.51492593 L 295.19914,0.51492593 L 158.55829,181.66755 L 37.962403,194.08945 C 35.71956,194.4345 33.476718,195.29713 31.578929,196.50482 L -7.2394913,222.72881 C -8.6197017,223.59145 -9.4823333,225.31671 -9.4823333,227.04197 C -9.4823333,228.59471 -8.6197017,230.31997 -7.2394913,231.1826 L 31.578929,257.40661 C 33.476718,258.6143 35.71956,259.47693 37.962403,259.82198 L 158.55829,272.4164 z" />
  
</svg>
