<?xml version="1.0" encoding="UTF-8" standalone="no"?>
<svg version="1.1" xmlns="http://www.w3.org/2000/svg" xmlns:xlink="http://www.w3.org/1999/xlink" top="0" left="0">

  <defs>
    <path id="planePart200" d="M -65.72,26 C -65.72,26 -65.55,8.2 -62.12,6.44 -44.76,0.49 -27.34,-15.63 -10.99,-19.06 -7.04,-31.2 -7.7,-53 -7.7,-53 -7.7,-53 -6.48,-69.81 0.2921,-74 0.3305,-26.51 0.2921,74 0.2921,74 L -3.8,75.8 -7.9,67.5 -26.71,72 C -26.71,72 -31.37,64.4 -29.92,60.8 -27.08,53.8 -10.24,49.4 -10.24,49.4 L -11.61,15.83 z" style="fill:#000;" />

    <g id="airplane200">
      <use xlink:href="#planePart200" />
      <use xlink:href="#planePart200" transform="scale(-1, 1) " />
    </g>

    <g id="airplaneInstance1">
      <use xlink:href="#airplane200" transform="rotate(90)"/>
    </g>

    <path id="trap"
       style="fill:none;stroke:#000"
       d="M 2.714,96.4 C 2.714,96.4 1222,54.23 1224,421.1 1226,788 345.6,779.3 342.7,415 339.8,50.69 1505,96.4 1505,96.4" /> 
  </defs>

  <path style="fill:none;stroke:#ddd;stroke-width:70px;stroke-linecap:butt;stroke-linejoin:miter;stroke-opacity:1" d="M0,100 L200,100" />

  <path style="fill:none;stroke:#ddd;stroke-width:70px;stroke-linecap:butt;stroke-linejoin:miter;stroke-opacity:1" d="M1200,100 L1500,100" />

  <use xlink:href="#trap" />

  <use xlink:href="#airplaneInstance1" transform="scale(.5)">
    <animateMotion
      dur="15s"
      rotate="auto"
      fill="freeze" additive="replace"
      repeatCount="1">
      <mpath xlink:href="#trap" />
    </animateMotion>

    <animateTransform
      attributeName="transform"
      attributeType="XML"
      type="scale"
      fill="freeze" additive="replace"
      from=".5" to="1"
      dur="2s"
      begin="0s"
      repeatCount="1"
    />

    <animateTransform
      attributeName="transform"
      attributeType="XML"
      type="scale"
      fill="freeze" additive="replace"
      from="1" to=".5"
      dur="2s"
      begin="12s"
      repeatCount="1"
    />

  </use>
  
</svg>
