<?xml version="1.0" encoding="UTF-8" standalone="no"?>
<svg version="1.1" xmlns="http://www.w3.org/2000/svg" xmlns:xlink="http://www.w3.org/1999/xlink" top="0" left="0">
 
<path d="M498.129,11.387l0.244-3.517l0.521-7L499.695,0h7.347c0.396,0.626,0.94,1.718,1.638,3.273
	c0.395,0.882,0.709,1.55,0.941,2.002c0.23,0.453,0.475,0.889,0.73,1.307c0.674,1.137,1.439,1.961,2.298,2.472
	c0.997,0.604,2.351,1.026,4.059,1.271c1.705,0.244,3.998,0.366,6.876,0.366l28.277-0.453c-0.163-0.325-0.268-0.575-0.314-0.749
	c-0.046-0.174-0.068-0.319-0.068-0.435l0.068-0.244l0.837,1.044c0.37,0.395,0.73,0.593,1.079,0.593c0.255,0,0.632-0.18,1.132-0.54
	c0.499-0.36,0.83-0.54,0.992-0.54c0.233,0.023,0.499,0.174,0.802,0.453l0.73,0.557c0.93,0.301,1.754,0.522,2.474,0.661
	c1.044,0.279,1.78,0.545,2.21,0.802c0.431,0.255,0.818,0.614,1.167,1.08l0.871,1.218c0.067,0.024,0.359,0.122,0.87,0.296
	c0.511,0.174,0.918,0.308,1.22,0.4c0.603,0.326,0.903,0.905,0.903,1.743c0,1.461-2.438,2.542-7.312,3.238
	c-1.904,0.255-3.384,0.424-4.439,0.504c-1.057,0.081-2.165,0.121-3.327,0.121c-0.255,0.164-0.418,0.444-0.488,0.84l-0.209,0.945
	c-0.393-0.7-0.648-1.237-0.765-1.61h-2.298c-0.279,0.068-0.574,0.243-0.888,0.521c-0.314,0.279-0.569,0.442-0.768,0.488
	c-0.197,0.047-0.619,0.07-1.271,0.07h-1.531c-3.459,0-6.479-0.453-9.055-1.358l-0.105-0.209c-0.046-0.022-0.099-0.04-0.156-0.052
	c-0.058-0.012-0.121-0.017-0.19-0.017l-3.1,0.14l-3.065,0.138c-2.785,0-5.461-0.098-8.025-0.296
	c-2.565-0.197-5.229-0.505-7.993-0.922c-6.036-0.952-10.632-2.09-13.79-3.414c-0.396-0.3-0.591-0.592-0.591-0.871
	C497.769,13.906,497.99,12.756,498.129,11.387z"/>
<path d="M418.71,13.376l3.065-0.801l-2.507-10.83l0.173-0.348l0.139-0.453l2.195-0.209l2.054-0.138c0.603,0,1.045,0.011,1.322,0.034
	c0.279,0.023,0.513,0.059,0.697,0.104l4.91,6.338l2.403,3.134c0.905,0.836,2.066,1.254,3.483,1.254
	c0.276-0.046,0.556-0.069,0.835-0.069s0.568,0,0.869,0l5.956-0.802c2.229-0.325,4.085-0.585,5.571-0.783s2.669-0.332,3.552-0.401
	c1.743-0.186,3.425-0.313,5.05-0.384c1.625-0.068,3.4-0.103,5.327-0.103c2.067,0,3.454,0.05,4.162,0.156
	c0.709,0.104,1.688,0.54,2.943,1.305c1.044,0.628,2.107,1.249,3.187,1.864c1.078,0.616,2.06,1.144,2.942,1.584l4.665,1.81
	c1.949,0.766,3.089,1.533,3.414,2.299c-0.604,0.534-1.406,0.929-2.403,1.184l-2.682,0.522c-1.23,0.233-2.044,0.372-2.438,0.418
	c-1.066,0.14-2.193,0.209-3.377,0.209c-0.813,0-1.562,0.024-2.247,0.069c-0.685,0.047-1.434,0.105-2.246,0.175h-35.588
	c-0.327,0.58-0.628,0.929-0.905,1.045c-0.141,0.046-0.291,0.069-0.453,0.069h-0.488c-1.021,0-3.551-0.302-7.591-0.906
	c-0.141-0.277-0.349-0.487-0.628-0.625l-6.72-1.01c0-1.3-0.081-2.183-0.245-2.646c-0.856-0.301-1.428-0.743-1.704-1.324
	C416.145,14.304,417.246,13.724,418.71,13.376z"/>
<path d="M333.947,11.857l3.901-1.08c-0.232-0.51-0.662-2.071-1.289-4.684c-0.627-2.611-0.939-4.102-0.939-4.475V0.505h6.441
	c0.093,0.72,0.488,1.126,1.185,1.218l1.602,0.209c-0.511,0.348-1.011,0.58-1.499,0.697l2.021,3.482
	c0.79,1.347,1.602,2.368,2.438,3.065c0.649,0.534,1.59,0.922,2.82,1.167c1.231,0.243,2.799,0.365,4.7,0.365l10.623-0.243
	l15.009-1.742c1.207,0,2.401,0.134,3.586,0.4c1.185,0.268,2.414,0.667,3.692,1.201c1.811,1.069,3.076,1.846,3.795,2.333l4.283,0.836
	c2.669,0.696,4.004,1.729,4.004,3.099c0,1.162-1.124,2.079-3.377,2.751c-1.439,0.464-2.854,0.696-4.248,0.696
	c-2.669,0-5.166,0.095-7.487,0.281c-1.556,0.116-2.972,0.279-4.248,0.49l-0.559,0.315c-0.627,0.397-1.021,0.595-1.183,0.595
	c-0.186,0-0.407-0.081-0.663-0.246l-0.871-0.522l-33.221-1.539c-0.997,0-2.297-0.116-3.899-0.349
	c-1.602-0.231-3.471-0.535-5.606-0.904l-2.577-1.011l-0.07-2.507l-1.358-0.731l-0.348-0.173
	C331.256,12.95,332.37,12.323,333.947,11.857z"/>
<path d="M250.263,8.171c0.535-0.092,1.069-0.197,1.602-0.313c-0.975-1.114-1.846-2.333-2.612-3.656
	c0.697-0.349,1.672-0.523,2.925-0.523c1.394,0,2.265,0.105,2.613,0.313c1.764,0.976,3.656,2.194,5.676,3.657
	c1.927,1.37,3.151,2.2,3.674,2.49c0.522,0.291,1.457,0.563,2.803,0.818c0.535,0.116,1.556,0.267,3.064,0.453l19.954-0.209
	c2.832,0,4.7,0.244,5.606,0.73l1.672,0.94c0.928,0,1.922,0.052,2.977,0.157c1.058,0.104,2.004,0.238,2.838,0.4
	c5.967,1.323,10.831,2.194,14.591,2.611c-1.741,0-3.202,0.036-4.386,0.105c-1.186,0.069-2.229,0.163-3.135,0.279l-3.865,0.73
	c-2.136,0.187-6.21,0.278-12.224,0.278h-0.382c-0.581,0.744-1.464,1.114-2.648,1.114h-0.8h-0.453l-1.011-0.489
	c-0.44-0.277-0.755-0.416-0.938-0.416c-0.211,0-0.511,0.065-0.906,0.192c-0.395,0.127-0.73,0.191-1.01,0.191
	c-1.533,0-3.413,0.046-5.641,0.14c-2.229,0.093-3.714,0.14-4.458,0.14c-1.37,0-2.594-0.042-3.673-0.123
	c-1.081-0.081-2.038-0.204-2.874-0.366l-0.139-1.044l-2.333-0.07l-1.706-0.139l-1.532,0.382c-0.162,0.048-0.383,0.105-0.661,0.175
	c-0.279,0.07-0.523,0.104-0.732,0.104c-0.278,0-2.611-0.452-7-1.358c-0.162-0.162-0.319-0.412-0.47-0.749
	c-0.151-0.335-0.284-0.54-0.401-0.609c-0.464-0.069-0.841-0.104-1.131-0.104c-0.291,0-0.575,0-0.853,0v-0.975l0.626-0.626
	c-0.278-0.186-0.557-0.279-0.836-0.279h2.577v-0.731l-1.219-1.776c-0.488-0.673-0.94-1.114-1.358-1.323
	c-0.418-0.208-1.01-0.313-1.776-0.313h-0.174l-1.289-0.069C249.253,8.311,249.73,8.265,250.263,8.171z"/>
<path d="M249.55,47.359c0.173-0.046,0.388-0.105,0.644-0.175v-2.401l1.323-0.209c0.581-0.07,1.01-0.176,1.288-0.314
	c-0.301-0.209-0.858-0.313-1.671-0.313l1.185-1.01c-0.604-1.323-1.091-2.414-1.463-3.273c-0.627-1.439-1.242-2.9-1.846-4.388
	c1.51-0.858,2.578-1.288,3.203-1.288c0.582,0,2.996,1.323,7.244,3.97c1.741,1.092,3.43,2.165,5.067,3.221
	c1.636,1.057,2.955,1.922,3.952,2.594h31.203c0.278,0,0.857,0.175,1.741,0.523c0.487,0.187,0.894,0.36,1.219,0.523
	c0.324,0.162,0.639,0.336,0.94,0.521c0.325,0.257,0.608,0.495,0.853,0.714c0.244,0.222,0.436,0.4,0.574,0.541
	c5.641,1.323,9.959,2.264,12.955,2.82c-5.154,0.695-8.695,1.044-10.621,1.044l-36.042,0.244l-0.731,0.279
	c-0.325,0.139-0.557,0.208-0.697,0.208l-1.88-0.348c-0.72-0.186-1.19-0.297-1.41-0.331c-0.22-0.035-0.389-0.053-0.505-0.053
	c-1.185,0-2.049,0.278-2.594,0.836c-0.545,0.558-1.236,0.836-2.072,0.836c-0.254,0-1.115-0.174-2.577-0.523
	c-1.811-0.417-2.996-0.66-3.552-0.73c-0.395-0.418-0.627-0.767-0.697-1.045l-4.354-0.592v-1.184l-0.975-0.139
	c-0.301-0.117-0.545-0.174-0.731-0.174C249.033,47.533,249.375,47.406,249.55,47.359z"/>
<path d="M167.196,2.79c0.662-0.127,1.236-0.191,1.723-0.191l17.099,8.636h16.994l12.919-0.938c0.721,0,1.375,0.05,1.968,0.156
	c0.592,0.104,1.074,0.238,1.445,0.4l1.636,1.045c0.744,0.487,1.196,0.73,1.359,0.73l0.556-0.103l0.489-0.141
	c2.042,0,5.769,1.126,11.177,3.379c-3.622,0.952-6.523,1.648-8.706,2.088l-1.08,0.453c-0.51,0.256-0.858,0.383-1.044,0.383
	c-0.417,0-0.655-0.082-0.714-0.244c-0.057-0.163-0.145-0.244-0.261-0.244h-12.745c-0.233,0.07-0.36,0.162-0.383,0.278
	c-0.116,0.141-0.231,0.21-0.348,0.21h-19.048l-1.324-0.279c-0.604-0.139-1.032-0.208-1.289-0.208c-0.835,0-1.531,0.244-2.089,0.731
	c-0.603,0.465-1.102,0.697-1.497,0.697c-1.648,0-3.157-0.086-4.528-0.262c-1.369-0.174-2.571-0.435-3.603-0.783
	c-1.034-0.348-2.293-0.626-3.779-0.836c-0.186-0.023-0.673-0.087-1.463-0.192c-0.789-0.104-1.601-0.202-2.437-0.294
	c-0.046-0.093-0.07-0.279-0.07-0.558c0.093-0.488,0.14-1.045,0.14-1.671c0-0.859-0.418-1.393-1.254-1.603
	c0.487,0,0.87-0.139,1.149-0.417c-0.697-0.348-1.08-0.592-1.149-0.731c0.093-0.186,0.337-0.337,0.731-0.453
	c0.209-0.116,0.511-0.21,0.905-0.279c-0.905-2.438-2.229-5.154-3.97-8.149C165.705,3.122,166.535,2.918,167.196,2.79z"/>
<path d="M497.92,34.862c0.139-0.036,0.337-0.109,0.592-0.218c0.256,0,0.499,0,0.731,0c0.324,0,0.875,0,1.654,0
	c0.778,0,1.387,0,1.828,0c1.138,0.444,2.101,0.877,2.89,1.297c0.187,0.093,0.522,0.141,1.01,0.141l1.044,0.174l-0.033,0.696
	l5.083,3.552c1.695,1.162,2.787,1.775,3.274,1.846l3.622,0.313l-0.105,0.626l0.069,0.454c1.673,0.44,3.61,0.661,5.815,0.661h2.961
	c0.256-0.032,0.558-0.15,0.905-0.355c0.348-0.204,0.604-0.305,0.767-0.305c0.231,0,0.557,0.069,0.975,0.208l0.904,0.209
	c1.232,0,3.102-0.141,5.608-0.417c1.369-0.164,2.488-0.279,3.36-0.35c0.87-0.068,1.606-0.104,2.211-0.104
	c0.789,0,1.572,0.081,2.35,0.244c0.779,0.163,1.644,0.406,2.595,0.731l4.736,1.811c1.461,0.581,3.191,1.127,5.188,1.638l3.413,0.835
	c0.395,0.116,0.76,0.187,1.097,0.21c0.337,0.023,0.864,0.034,1.584,0.034c0.742,0,1.288,0.012,1.637,0.034
	c0.349,0.024,0.708,0.058,1.08,0.105c-2.438,0-3.865,0.058-4.283,0.174c-1.579,0.488-3.365,0.87-5.363,1.149l-5.467,0.626
	l-0.279,0.418c-0.093,0.116-0.231,0.173-0.418,0.173c-0.23,0-0.382-0.041-0.452-0.124l-0.244-0.329c-0.325,0-0.701,0-1.132,0
	c-0.43,0-0.888,0-1.376,0l-23.784,0.243h-4.875l-16.506-1.427c0.767-0.673,1.74-1.149,2.925-1.427v-1.776l0.417-0.14
	c-1.322-0.975-2.507-2.298-3.551-3.97c-1.439-2.274-2.599-3.923-3.483-4.945l-0.94-0.347c0-0.697-0.139-1.463-0.418-2.299
	C497.628,34.885,497.756,34.862,497.92,34.862z"/>
<path d="M417.84,45.496c0.395-0.069,0.894-0.279,1.496-0.626c0.722-0.488,1.079-0.917,1.079-1.29l-0.8-4.074
	c-0.395-1.741-0.696-3.099-0.905-4.074c-0.209-0.975-0.35-1.718-0.417-2.229h1.74c1.509,0,3.099,0.662,4.771,1.984
	c1.114,0.883,2.524,2.246,4.23,4.092c1.707,1.846,2.896,2.99,3.57,3.43c0.881,0.558,1.636,0.836,2.262,0.836
	c0.186-0.047,0.628-0.07,1.323-0.07l6.13-0.731c3.251-0.441,5.085-0.685,5.502-0.731c1.647-0.186,3.019-0.278,4.109-0.278
	l0.732-0.348c0.206-0.116,0.353-0.191,0.435-0.227c0.081-0.035,0.168-0.064,0.262-0.087c4.062,0,6.721,0.122,7.974,0.365
	c1.252,0.244,2.746,0.674,4.474,1.29c1.73,0.615,2.804,1.061,3.222,1.34c3.274,2.136,6.21,3.709,8.811,4.718
	c2.601,1.01,4.945,1.514,7.034,1.514l-2.437,0.175c-0.487,0.72-0.893,1.08-1.22,1.08c-1.021,0-2.913,0.15-5.677,0.453
	c-1.066,0.116-1.973,0.174-2.716,0.174l-0.768,0.626c-0.139-0.231-0.229-0.383-0.277-0.452c-0.047-0.069-0.104-0.127-0.173-0.174
	c-0.07-0.046-0.278-0.07-0.629-0.07l-0.904,0.21l-1.253,0.243l-1.464-0.208l-1.531-0.245l-1.394,0.07
	c-0.277,0.279-0.453,0.523-0.521,0.731l-0.349-0.185l0.069-0.292c-0.069-0.171-0.221-0.356-0.452-0.551l-4.563-0.33h-6.094
	c-0.071,0-0.151,0.093-0.244,0.278l0.035,0.12c-0.022,0.106-0.104,0.158-0.244,0.158h-6.094c-3.298-0.37-5.654-0.556-7.068-0.556
	l-7.104-0.488l-2.09,0.069l-0.73,0.497c-0.395,0.319-0.65,0.478-0.767,0.478c-0.35,0-1.162-0.242-2.438-0.731
	c-1.276-0.487-2.066-0.73-2.368-0.73l-0.696,0.279c-0.279,0.139-0.522,0.208-0.732,0.208c-0.3-0.046-0.521-0.14-0.661-0.278
	l-0.313-0.348l-2.612-0.593c-0.301-0.928-0.488-1.647-0.557-2.159c-0.44,0-0.853-0.046-1.236-0.139
	c-0.384-0.092-0.703-0.198-0.957-0.313C416.968,46.4,417.699,45.798,417.84,45.496z"/>
<path d="M333.509,34.422c0.303,0,0.604,0,0.906,0l1.428-0.174c0.648,0,2.367,1.392,5.154,4.178l4.283,4.318
	c0.744,0.441,1.729,0.766,2.959,0.975c0.697,0.279,1.145,0.453,1.34,0.523c0.197,0.07,0.391,0.128,0.574,0.174l4.215-0.382
	l4.178-0.418l2.752,0.14l2.646,0.14l17.203-1.951l2.715,0.244c1.742,0.256,2.916,0.488,3.52,0.697
	c0.369,0.116,0.902,0.465,1.6,1.044c0.697,0.581,1.174,0.906,1.428,0.976l11.807,3.795l-5.711,1.533
	c-2.16,0.534-3.379,0.801-3.658,0.801l-1.705-0.077l-0.801-0.724c-2.484,0-5.148-0.085-7.992-0.257
	c-2.844-0.171-5.588-0.365-8.236-0.579l-5.084,0.418l-5.119,0.418h-11.248c-0.279,0-0.684,0.272-1.217,0.817
	c-0.533,0.546-1.057,0.818-1.568,0.818c-0.813,0-3.574-0.579-8.287-1.741c-0.604-0.418-0.963-0.719-1.08-0.905
	c-0.836-0.162-1.67-0.325-2.508-0.487c-1.184-0.232-1.984-0.406-2.402-0.523c-0.186-0.185-0.314-0.417-0.383-0.697l-0.244-0.521
	c-1.09-0.21-1.764-0.384-2.02-0.523c0.303-0.093,0.453-0.208,0.453-0.348l-0.105-0.243l-0.105-0.21h0.105
	c1.416-0.215,2.59-0.667,3.518-1.358l-1.115-0.243c-0.324-0.07-0.592-0.174-0.801-0.314c-1.043-4.04-1.775-7.104-2.193-9.194
	C332.87,34.539,333.14,34.491,333.509,34.422z"/>
<path d="M164.706,30.799c0.07,0,0.209,0.047,0.418,0.141c0.186,0,0.36,0,0.522,0h0.697l0.835-0.07l0.767-0.07h1.219l1.463,0.176
	l1.671,0.208l5.606,12.328c1.277,0,2.99,0.093,5.137,0.279c2.147,0.186,4.091,0.347,5.833,0.487l8.636,0.836h6.06
	c1.045-1.208,2.542-1.811,4.492-1.811c0.581,0,1.045,0.035,1.394,0.104c0.348,0.069,0.626,0.162,0.835,0.279l0.244,0.174
	l0.976,0.731l0.871-0.279c0.325-0.162,0.592-0.243,0.8-0.243l1.359,0.418c0.626,0.231,1.01,0.347,1.148,0.347
	c0.372,0,0.72-0.04,1.045-0.121c0.325-0.083,0.651-0.204,0.975-0.366c0,0.487,0.279,0.73,0.835,0.73
	c0.326-0.07,0.512-0.127,0.558-0.173V39.75c0.417,0.626,0.625,1.543,0.625,2.75c0,0.535,0.03,1.058,0.088,1.568
	c0.058,0.511,0.122,0.858,0.191,1.044l0.976,0.035c0.441-0.047,0.894-0.07,1.358-0.07c0.465,0,0.963,0,1.498,0
	c1.393,0,2.333,0.221,2.821,0.662l2.507,2.159c1.277,1.092,2.565,1.869,3.865,2.333c0.557,0.278,0.835,0.731,0.835,1.358
	c0,0.603-0.29,1.057-0.871,1.357c-3.598,1.231-5.606,1.846-6.025,1.846l-5.466-0.104l-5.502-0.14
	c-0.417,0.07-0.801,0.326-1.149,0.767l-0.835-0.976h-14.766l-34.545-9.325V30.799z"/>
<path d="M87.679,14.53l1.392-0.104l1.323-0.139c0.372-0.532,0.558-1.378,0.558-2.536l-0.21-2.918c0-0.277-0.023-0.77-0.069-1.475
	c-0.046-0.708-0.069-1.176-0.069-1.407l0.069-1.148c1.486-0.694,2.53-1.146,3.134-1.354c1.695,2.084,3.164,3.809,4.405,5.174
	c1.242,1.365,2.246,2.373,3.013,3.021c0.278,0.208,0.731,0.381,1.358,0.52l1.567,0.383l18.247-3.727
	c-0.418-0.417-0.626-0.8-0.626-1.148h1.009c0.744,0.72,1.208,1.079,1.393,1.079c0.581,0,1.451-0.145,2.612-0.435
	c1.162-0.291,2.043-0.436,2.647-0.436c1.74,0,3.829,0.626,6.268,1.88l0.383,0.349c0.208,0.139,0.406,0.208,0.592,0.208l0.625-0.104
	l0.592-0.104c0.744,0.116,2.148,0.51,4.215,1.183l7.173,2.542c0.696,0.256,1.984,0.383,3.865,0.383l-13.476,1.672h-12.885
	c-1.834,1.44-3.018,2.281-3.552,2.525c-0.534,0.244-1.254,0.365-2.159,0.365L89.907,17.63c0-0.906-0.058-1.567-0.174-1.985
	c-1.579,0-2.908-0.052-3.987-0.156c-1.08-0.105-1.852-0.238-2.316-0.4C85.566,14.716,86.982,14.53,87.679,14.53z"/>
<path d="M1.806,0.985c0.458-0.524,1.712-0.787,3.763-0.787c1.44,0,2.258,0.121,2.454,0.361c0.785,1.047,1.735,2.722,2.847,5.022
	c1.112,2.302,1.735,3.497,1.866,3.583c2.008,1.178,4.571,2.03,7.69,2.552l8.182,1.244c0.371,0.066,0.927,0.099,1.668,0.099
	c0.415,0,0.852-0.005,1.31-0.016c0.458-0.012,0.938-0.017,1.439-0.017c0.698-1.222,1.549-1.997,2.552-2.323
	c0.567-0.196,1.397-0.295,2.488-0.295c1.177,0,1.898,0.099,2.159,0.295l0.786,0.687l0.72,0.655c0.546,0.48,0.916,0.72,1.113,0.72
	h12.239l0.262-0.393c0.043-0.087,0.131-0.196,0.261-0.327l0.393,0.392c0.219,0.219,0.404,0.328,0.556,0.328
	c0.786,0,1.436-0.038,1.948-0.114c0.514-0.077,0.9-0.191,1.162-0.345c1.266,0.961,2.127,1.55,2.585,1.768l1.276,1.506l1.702,0.785
	c0.96,0.523,1.505,1.103,1.637,1.735c-0.197,0.567-1.288,1.205-3.273,1.915c-1.985,0.709-3.392,1.063-4.221,1.063H46.868
	c-0.24,0.021-0.594,0.142-1.063,0.36c-0.469,0.218-0.835,0.327-1.097,0.327l-5.039,0.163l-5.04,0.099l-2.061-0.623
	c-0.197-0.043-0.463-0.065-0.802-0.065c-0.337,0-0.714,0-1.129,0c-0.917,0-1.538-0.033-1.865-0.099
	c-2.029-0.522-5.76-1.711-11.192-3.567l-7.494-2.52c-0.698,0.109-1.167,0.175-1.407,0.196c-0.24,0.022-0.567,0.033-0.982,0.033
	c-0.873,0-1.51-0.011-1.915-0.033C5.378,15.33,5.1,15.297,4.947,15.253c-0.654-0.152-1.702-0.523-3.141-1.113V0.985z"/>
<path d="M4.096,68.755c3.023,0,5.504,0.271,7.442,0.813c1.163,0.336,3.075,1.111,5.736,2.326c3.075,1.447,6.15,2.662,9.226,3.644
	l23.604-0.155c-0.231-0.543-0.31-0.93-0.231-1.163c0.181,0.13,0.388,0.479,0.619,1.047c0.182,0.336,0.453,0.503,0.814,0.503
	l1.201-0.115l1.202-0.116c1.033,0,1.628,0.038,1.783,0.116c2.791,1.188,4.625,2.016,5.504,2.48c0.982,0.336,2.022,0.575,3.121,0.717
	c1.099,0.143,2.46,0.213,4.088,0.213l9.574,0.35H76.58c-1.576,0-2.797,0.013-3.663,0.039c-0.865,0.025-1.595,0.091-2.189,0.193
	c1.215,0.568,1.964,0.918,2.248,1.047c0.879,0.387,1.821,0.762,2.829,1.123l-2.52,0.893c-0.981,0.336-1.55,0.774-1.705,1.318
	c-2.688,0.49-4.328,0.735-4.923,0.735H52.665c-0.233,0-0.427,0.081-0.582,0.241l-0.35,0.24l-3.682,0.08l-0.465,0.321l-0.504,0.241
	c-0.413-0.438-0.878-0.658-1.396-0.658c-0.284,0-0.549,0.07-0.795,0.213c-0.245,0.143-0.458,0.213-0.64,0.213h-7.209l-0.698-0.116
	l-0.504-0.155l-0.154-0.813h-7.404l-2.791,0.659c-0.878,0.232-1.55,0.4-2.016,0.504c-0.465,0.104-0.749,0.154-0.853,0.154
	c-0.465,0-4.599-0.606-12.403-1.821c-0.465-0.155-0.736-0.323-0.813-0.505l-0.311-0.697c-0.594-0.103-1.124-0.297-1.589-0.581
	c0.311-0.697,0.465-1.267,0.465-1.706H6.19c0.231-0.387,0.555-0.594,0.968-0.62l0.775-0.155c-0.154-0.49-0.581-1.085-1.278-1.782
	c-0.853-0.388-1.447-0.581-1.784-0.581c0.208-0.285,0.854-0.427,1.938-0.427c0.439-0.103,0.736-0.323,0.892-0.659
	c-1.344-1.602-2.48-2.997-3.411-4.186c-0.93-1.189-1.68-2.158-2.248-2.908c-0.284-0.102-0.595-0.154-0.93-0.154
	C2.119,68.872,3.115,68.755,4.096,68.755z"/>
<path d="M502.854,69.521l17.202,7.696h24.272l1.253-0.104h2.09c0.581,0,1.074,0.023,1.479,0.068
	c0.407,0.046,0.739,0.103,0.993,0.172c0.627,0.182,1.625,0.623,2.996,1.321c1.368,0.697,2.332,1.103,2.89,1.217l5.327,1.201
	c1.881,0.411,3.471,0.616,4.771,0.616l1.743-0.104l-5.295,0.417l-6.059,0.94l-3.796,0.557l-2.821-0.104l-2.854-0.105l-18.876,0.454
	l-18.908,1.357c-0.395,0-0.708-0.017-0.94-0.05c-0.231-0.036-0.533-0.123-0.905-0.262l-2.402-1.184
	c-0.628-0.395-1.394-0.591-2.298-0.591l-2.229-0.21l0.035-2.438c0-0.997-0.256-1.729-0.768-2.194
	c0.139-0.069,0.501-0.167,1.079-0.295c0.581-0.127,0.976-0.261,1.185-0.401v-0.627c-1.462-2.646-2.658-5.095-3.586-7.348H502.854z"
	/>
<path d="M420.093,66.23c4.898,3.96,7.813,6.244,8.74,6.849c1.534,1.002,2.989,1.777,4.371,2.324
	c1.381,0.547,2.663,0.821,3.848,0.821l1.011,0.209l1.044,0.139c0.835,0,2.148-0.285,3.937-0.853s3.098-0.853,3.934-0.853h5.92v-1.08
	c0.556,0.534,0.883,0.871,0.974,1.01c1.094,0.255,2.01,0.51,2.751,0.766l1.847,0.591c0.233,0,0.755-0.104,1.567-0.313l1.533-0.348
	c1.416,0,3.157,0.533,5.223,1.596c0.232,0.093,0.598,0.4,1.098,0.919c0.499,0.521,0.854,0.814,1.062,0.884
	c1.625,0.508,2.902,0.831,3.83,0.969c0.557,0.162,2.172,0.786,4.84,1.87c1.72,0.694,3.078,1.04,4.075,1.04l1.568-0.088l1.566-0.086
	l1.392,0.541c-0.324,0.072-0.487,0.24-0.487,0.504c-0.766-0.07-1.531-0.116-2.297-0.139c-0.767-0.022-1.521-0.036-2.264-0.036
	c-0.581,0-1.242,0.03-1.986,0.087c-0.742,0.059-1.312,0.123-1.706,0.192l-4.283,0.731c-1.207,0.187-4.189,0.279-8.948,0.279
	l-6.338-0.069l-0.871-0.417l-1.115,0.034l-1.811-0.14V85c0.466,0.14,0.831,0.232,1.098,0.278c0.267,0.047,0.586,0.105,0.959,0.175
	l1.182,0.279c1.37,0.349,2.16,0.789,2.369,1.323c-1.416,0.626-3.146,1.034-5.189,1.218c-0.975,0.047-1.903,0.082-2.785,0.105
	c-0.884,0.024-1.729,0.035-2.543,0.035c-1.834,0-3.396-0.022-4.683-0.07c-1.289-0.046-2.327-0.104-3.117-0.174
	c-1.275-0.14-2.636-0.319-4.074-0.541c-1.439-0.22-3.146-0.503-5.119-0.853c3.436-0.649,6.304-1.079,8.601-1.288l-2.961-0.871
	l-2.088-0.522l-1.148,0.104l-1.115,0.104l-2.612-0.526c-1.786-0.425-3.028-0.639-3.726-0.639c-1.207,0-2.356-0.014-3.447-0.046
	c-1.09-0.029-2.415-0.067-3.97-0.112c-0.022-0.232-0.053-0.494-0.087-0.785c-0.036-0.291-0.063-0.448-0.086-0.471h-0.908
	l-0.068-2.443l-0.522-0.837c-0.161-0.233-0.289-0.431-0.383-0.595c0-0.022-0.012-0.057-0.034-0.103
	c-0.094-0.93-0.139-1.779-0.139-2.548l-0.488-0.663l0.07-2.827l-0.803-5.479H420.093z"/>
<path d="M248.625,80.694l3.31-1.115c0.348-1.532,0.848-3.458,1.497-5.78c0.65-2.322,0.975-3.575,0.975-3.761
	c0-0.349-0.069-0.522-0.208-0.522h3.935l3.447,4.492c1.417,1.857,2.624,3.262,3.622,4.214c0.162,0.162,0.326,0.243,0.488,0.243
	h0.591l0.558-0.035l23.051-2.019l3.169,0.069c0.697,0.233,1.283,0.436,1.758,0.609c0.479,0.176,0.981,0.379,1.517,0.61
	c0.999,0.465,1.52,0.708,1.567,0.731c0.277,0.118,0.604,0.244,0.974,0.383c1.951,0.582,5.108,1.253,9.472,2.021l9.509,1.741
	c-1.255,0.302-4.134,0.661-8.637,1.08c-1.997,0.208-3.64,0.36-4.927,0.452c-1.29,0.094-2.224,0.14-2.805,0.14h-7.73
	c-0.303,0.587-0.65,0.88-1.045,0.88c-0.07-0.541-0.128-0.833-0.174-0.88L267.5,84.456c-0.858,0-2.13-0.11-3.813-0.331
	c-1.684-0.221-2.99-0.332-3.918-0.332l-1.01,0.105l-1.254,0.14l-2.333,0.208c-1.022,0-1.776-0.278-2.264-0.836
	c-0.697,0-1.341-0.035-1.933-0.104c-0.593-0.07-1.376-0.221-2.352-0.452V80.694z"/>
<path d="M83.638,31.531h3.517l5.293,5.189c1.927,1.904,3.75,3.297,5.468,4.179c0.928,0.535,2.235,0.94,3.917,1.219
	c1.684,0.279,3.152,0.418,4.406,0.418l19.118-0.279c0.626-0.163,1.318-0.301,2.072-0.418c0.754-0.116,1.573-0.174,2.455-0.174
	l3.204-0.209c3.97,0,6.917,0.395,8.845,1.185c0.744,0.347,1.434,0.679,2.072,0.993c0.638,0.312,1.086,0.54,1.341,0.678
	c0.372,0.094,0.917,0.245,1.636,0.452c0.14,0.024,0.883,0.175,2.229,0.453c1.973,0.418,3.333,0.754,4.076,1.01v1.184
	c-0.534,0.627-1.162,1.045-1.881,1.254c-0.278,0.094-0.592,0.169-0.94,0.227c-0.348,0.059-0.731,0.087-1.148,0.087
	c-0.465,0-0.865,0.03-1.202,0.088c-0.336,0.057-0.631,0.133-0.888,0.226v1.846c-6.384,0.534-9.902,0.801-10.551,0.801l-2.752-0.14
	c-1.138,0-1.776,0.395-1.915,1.184h-0.976c-0.092-0.719-0.556-1.079-1.393-1.079c-0.092,0.046-0.23,0.069-0.417,0.069h-0.313
	c-1.067,0-1.671,0.035-1.811,0.104v0.209c0.906,0.279,1.591,0.663,2.055,1.149c-2.787,0.767-6.059,1.149-9.82,1.149l-4.388-0.348
	l-6.442-0.766c0-0.952-0.082-1.554-0.244-1.811c-1.856-0.186-3.43-0.314-4.718-0.382c-1.289-0.07-2.49-0.105-3.605-0.105
	c-0.161,0-0.469,0.134-0.922,0.4c-0.453,0.269-0.795,0.401-1.027,0.401l-3.134-0.87c-1.3-0.44-2.257-0.749-2.873-0.922
	c-0.615-0.175-1.12-0.308-1.515-0.402l-0.521-0.871c-1.067-0.325-1.961-0.639-2.682-0.94c0-0.603-0.035-1.195-0.104-1.776
	c-0.069-0.579-0.116-0.939-0.139-1.079h-1.846l0.626-2.193c0.581-0.14,0.975-0.407,1.184-0.802l-1.985-5.014
	c-1.137-2.994-1.707-4.643-1.707-4.946C83.29,31.74,83.406,31.531,83.638,31.531z"/>
<path d="M168.015,77.53c-0.743-2.738-1.498-6.141-2.264-10.203h2.855l1.498,0.244c0.72,0.208,1.184,0.406,1.393,0.592
	c1.138,0.976,2.78,2.537,4.928,4.684s3.801,3.744,4.961,4.788c0.141,0.117,0.332,0.191,0.575,0.226
	c0.244,0.036,0.622,0.053,1.132,0.053l29.077,0.278c0.232-0.51,0.523-0.766,0.871-0.766c0.348,0.673,0.766,1.01,1.253,1.01h12.328
	c0.372,0.068,1.243,0.499,2.612,1.288l3.587,2.124l0.835,0.696c0.326,0.349,0.489,0.674,0.489,0.976c0,1.162-1.521,2.02-4.562,2.578
	c-1.671,0.324-3.582,0.563-5.729,0.712c-2.147,0.152-4.754,0.227-7.818,0.227l-20.302,0.279l-2.543-0.557
	c-0.696-0.186-1.079-0.278-1.148-0.278c-0.418-0.07-0.872-0.104-1.359-0.104c-2.112,0-4.283-0.168-6.511-0.505
	c-2.229-0.337-4.515-0.831-6.86-1.48c-4.667-1.276-8.868-2.96-12.606-5.049C166.192,78.481,167.296,77.878,168.015,77.53z"/>
<path d="M416.022,315.707c0.023,0,0.047-0.012,0.07-0.034l0.592-0.488c0.093-0.882,0.197-1.463,0.313-1.742h1.498
	c1.463,0,3.238,0.731,5.328,2.194l5.988,4.562c2.439,1.881,4.459,3.136,6.061,3.761c0.534,0.256,1.051,0.436,1.549,0.54
	c0.5,0.105,1.087,0.157,1.758,0.157c0.095,0,0.326,0.023,0.697,0.07c0.418,0,0.836,0,1.255,0h0.487h0.592h0.766h4.771h10.969
	c0.674-0.186,2.555-0.278,5.643-0.278l0.521-0.663c0.558,0.465,1.474,0.696,2.751,0.696c1.464-0.184,2.565-0.313,3.308-0.383
	c0.744-0.067,1.322-0.104,1.742-0.104c2.53,0,5.873,1.278,10.028,3.832l2.055,1.183c0.442,0.372,0.661,0.743,0.661,1.114
	c0,0.743-0.196,1.22-0.591,1.428c-0.396,0.209-0.737,0.372-1.028,0.488c-0.289,0.116-0.562,0.221-0.818,0.313v2.682l-10.412,0.626
	l-20.197,0.349c-3.947,0-9.111-0.371-15.496-1.114c-5.2-0.604-9.564-1.207-13.094-1.811l-4.527-1.428l-0.104-0.976
	c-0.186-0.396-0.593-0.558-1.219-0.488c0.44-0.277,0.848-0.476,1.219-0.591l0.068-1.915l0.732-0.558
	c0.255-0.231,0.383-0.43,0.383-0.593c-0.139-0.673-0.898-2.495-2.281-5.467c-1.381-2.972-2.072-4.631-2.072-4.979
	C415.987,315.926,415.999,315.798,416.022,315.707z"/>
<path d="M0.555,102.54h4.729c0.697,0,3.437,1.26,8.217,3.782c4.962,2.624,7.713,4.026,8.257,4.206
	c0.981,0.336,1.898,0.586,2.751,0.754c0.854,0.166,1.654,0.25,2.403,0.25h3.992l15.854-0.232l6.047-0.814l4.031-0.582
	c0.646,0,1.33,0.072,2.054,0.214s1.408,0.33,2.055,0.562l2.519,1.255c2.585,0.554,4.743,0.963,6.474,1.226
	c5.116,0,7.778,0.117,7.985,0.35l-0.272,0.543h-5.349h-2.17c-0.285,0.02-0.466,0.058-0.543,0.116l0.697,0.349l0.388,0.193
	l0.271,0.117l-0.892,0.93c-0.517,0.492-0.775,0.931-0.775,1.318l0.039,0.426c-6.744,0.802-10.801,1.202-12.172,1.202H45.44v0.93
	H31.138c-0.104-0.024-0.187-0.077-0.252-0.155c-0.064-0.076-0.175-0.167-0.33-0.271l-2.945,0.117l-2.984,0.116L5.903,118.43
	c0-0.963-0.063-1.648-0.193-2.054H1.757v-1.046h2.402l1.744-0.039v-1.494l-1.859-0.628c-0.879-0.288-1.499-0.537-1.861-0.746
	l0.116-0.678l0.117-0.641c0.981,0,1.589-0.128,1.821-0.388c-0.284-0.672-1.021-2.016-2.209-4.031
	c-0.465-0.775-0.84-1.434-1.125-1.977c-0.103-0.18-0.219-0.4-0.349-0.658V102.54z"/>
<path d="M506.834,100.204l2.787,0.14c1.554,0.14,2.645,0.28,3.273,0.419c0.347,0.258,0.521,0.584,0.521,0.981
	c-0.279,0.14-0.592,0.263-0.94,0.368c-0.349,0.105-0.753,0.216-1.218,0.333l-1.708,0.42c3.204,4.308,5.631,7.008,7.278,8.098
	c2.347,1.487,5.642,2.229,9.891,2.229c0.65,0,1.068-0.058,1.254-0.174v-3.726l-6.129-1.149v-0.802
	c1.881-0.648,4.376-0.975,7.487-0.975h2.297h1.116c1.416,0.187,3.051,0.511,4.909,0.975c0.348,0.256,0.521,0.511,0.521,0.766
	c-1.276,0.626-2.229,0.941-2.855,0.941h-1.532h-1.983v3.9h1.253l1.393-0.105l2.646-0.383l4.039-0.591l3.553,0.313
	c0.161,0.048,0.4,0.186,0.713,0.417c0.314,0.233,0.54,0.349,0.681,0.349h3.898h1.255c0.672,0,1.167,0.005,1.479,0.017
	c0.314,0.011,0.608,0.028,0.888,0.051c2.484,0.272,4.517,0.59,6.095,0.954c0.349,0.113,0.87,0.398,1.567,0.851
	c0.371,0.25,0.65,0.427,0.835,0.529c0.188,0.102,0.372,0.188,0.557,0.255c0.836,0.296,2.219,0.443,4.145,0.443
	c-0.069,0.488-0.323,0.731-0.766,0.731l-0.906-0.14c-0.487,0-0.754,0.012-0.8,0.035c0.742,0.373,1.114,0.825,1.114,1.359
	c-0.07,0.581-0.785,1.237-2.143,1.967c-1.358,0.731-2.349,1.097-2.978,1.097h-15.182l-3.274,0.069l-4.665,0.802h-0.488
	c-0.139,0-0.372,0-0.697,0c-0.324,0-0.58,0-0.767,0l-1.496-0.14l-5.956-0.563c-2.53-0.303-4.885-0.725-7.067-1.263l-12.468-3.264
	l-5.259-1.405l-0.87-0.982c-0.348-0.42-0.522-0.714-0.522-0.878c0-0.35,0.082-0.525,0.244-0.525c0.14-0.186,0.359-0.359,0.661-0.521
	c0.302-0.232,0.453-0.602,0.453-1.111c-0.046-0.394-0.755-2.049-2.124-4.965c-1.533-3.333-2.647-5-3.345-5
	C499.847,100.586,502.958,100.204,506.834,100.204z"/>
<path d="M415.611,102.344c0.813-0.51,1.567-0.765,2.264-0.765c0.44,0,1.845,1.079,4.213,3.238l4.526,4.179
	c1.788,1.557,3.147,2.507,4.075,2.856c0.65,0.232,1.23,0.348,1.74,0.348c0.117,0,0.279-0.012,0.488-0.035l16.403-1.393v-1.009
	c1.299,0.626,2.216,0.94,2.749,0.94l1.811-0.105l1.776-0.139c3.993,0,8.428,0.835,13.303,2.507l3.133,1.706l0.732,0.801l6.129,1.567
	c2.623,0.697,4.607,1.196,5.955,1.498l-23.714,1.811l-5.154,0.14l-5.188,0.104c-2.507,0-5.179-0.151-8.01-0.453
	c-3.83-0.418-7.035-0.94-9.61-1.567l-0.453-0.557c-6.199-1.022-9.716-1.532-10.553-1.532c-0.533,0.047-1.223,0.093-2.07,0.139
	c-0.848,0.047-1.713,0.07-2.596,0.07c0.071-0.302,0.302-0.65,0.697-1.045c-0.674-0.372-1.15-0.592-1.429-0.662
	c0-0.464,0.176-0.835,0.523-1.114h1.881c0-0.348,0.067-0.592,0.208-0.732l-3.83-9.994V102.344z"/>
<path d="M250.02,109.275l1.15-0.244l-0.697-6.302c1.718-0.649,2.762-0.975,3.134-0.975c0.162,0,1.486,0.696,3.969,2.089
	c1.394,0.813,2.589,1.463,3.587,1.95s1.835,0.836,2.508,1.045c0.813,0.302,2.925,0.778,6.337,1.428l7.418,1.428l22.39,0.208
	l1.916,1.114c0.789,0.511,1.277,0.767,1.462,0.767l0.661-0.104l0.629-0.139c0.23,0,0.551,0.11,0.957,0.331
	c0.406,0.221,0.713,0.331,0.922,0.331c0.719,0,1.514,0.105,2.387,0.314c0.869,0.209,1.954,0.522,3.254,0.939
	c3.066,1.022,4.945,1.591,5.642,1.706l-7.556,1.387l-1.079,0.355c-0.442,0.163-0.789,0.244-1.046,0.244l-1.184-0.104l-1.148-0.14
	h-1.811c-0.837,0.464-1.357,0.697-1.568,0.697l-1.914-0.453c-0.883-0.255-1.532-0.383-1.95-0.383l-4.354-0.104
	c-0.163,0.464-0.568,0.697-1.22,0.697h-0.383h-0.417c-0.696,0.069-1.114,0.301-1.253,0.696h-10.064
	c-0.348-0.046-0.523-0.162-0.523-0.347l-3.482-0.105l-0.73-0.697h-8.567l-9.472,3.517c-0.835-0.301-1.358-0.487-1.567-0.557
	c-0.488-0.139-0.975-0.278-1.463-0.417v-0.523c0-0.672-0.011-1.201-0.034-1.584c-0.023-0.383-0.082-0.736-0.175-1.062
	c-2.042-0.534-3.214-0.882-3.517-1.044l0.069-3.761c-0.976-0.907-1.775-1.543-2.403-1.915
	C249.021,109.438,249.416,109.346,250.02,109.275z"/>
<path d="M164.706,98.933l0.418,0.244c0.905-0.255,2.159-0.383,3.761-0.383c0.117,0,0.697,0,1.741,0c0.187,0,0.338,0.018,0.453,0.052
	c0.117,0.036,0.232,0.087,0.348,0.156c0.696,0.488,1.231,1.069,1.602,1.742l0.975,1.741c2.74,4.898,4.598,8.126,5.572,9.681
	l0.871,0.035l20.442-2.09c-0.21-0.556-0.314-0.929-0.314-1.114c0-0.139,0.038-0.244,0.112-0.314h1.002c0,0.047,0,0.221,0,0.522
	c0.024,0.186,0.164,0.279,0.418,0.279c0.649,0,1.619-0.179,2.907-0.541c1.289-0.36,2.271-0.54,2.943-0.54l2.786,0.627
	c0.696,0.163,1.253,0.279,1.671,0.348c0.417,0.07,0.744,0.105,0.976,0.105l1.984-0.036c0.441-0.58,0.731-0.928,0.87-1.044
	c0.395,0.162,0.755,0.616,1.081,1.358c0.278-1.624,0.452-2.797,0.521-3.517c0.417,0.465,0.627,1.092,0.627,1.881
	c0,1.022,0.104,1.66,0.313,1.915c1.23,0,2.311,0.221,3.238,0.661l0.732,0.593l1.184,1.149c0.557,0.255,2.183,0.684,4.875,1.288
	c2.113,0.488,3.772,1.173,4.979,2.055v1.567c-0.836,0.604-2.101,1.057-3.795,1.358l-3.796,0.766
	c0.372,0.534,0.557,1.219,0.557,2.056c0,1.23-0.545,1.845-1.637,1.845c-0.278,0-0.626-0.14-1.044-0.417
	c-0.58-0.372-0.871-0.825-0.871-1.359c0-0.325,0.452-0.94,1.358-1.845l-3.343-0.209c-0.373,0.372-0.802,0.558-1.289,0.558
	l-3.03,0.139c-0.883,0-2.844,0.082-5.886,0.244c-1.299,0.07-2.414,0.105-3.343,0.105c0.186,0.371,0.279,0.708,0.279,1.009
	c-0.07,0.535-0.301,0.964-0.696,1.288c-0.464,0.326-0.962,0.489-1.498,0.489c-0.835,0-1.427-0.384-1.776-1.149
	c-0.046-0.232-0.069-0.557-0.069-0.975v-0.906c-1.765,0-4.022-0.104-6.773-0.313c-2.751-0.209-5.636-0.476-8.654-0.801l-7.94-1.114
	l-5.118-0.731c-0.51,0-1.358,0.174-2.542,0.523c0.093-0.187,0.256-0.395,0.488-0.627l-5.572-1.637l-1.916-7.557
	c-0.789-3.389-1.184-5.861-1.184-7.417V98.933z"/>
<path d="M336.853,65.355c0.465,0,0.865,0.053,1.203,0.157c0.336,0.105,0.607,0.25,0.816,0.435l5.33,5.363
	c2.367,2.438,3.842,3.866,4.422,4.284c0.348,0.208,0.904,0.313,1.672,0.313h1.148c0.324,0,0.533,0.012,0.627,0.035l-0.176-1.044
	l-0.139-0.593h1.01c0.488,0.929,0.939,1.452,1.357,1.568c1.512,0.395,4.006,0.592,7.488,0.592c0.418,0,1.449-0.256,3.098-0.766
	c2.369-0.766,4.053-1.265,5.051-1.497c2.182-0.51,4.236-0.767,6.164-0.767l2.229,0.279c0.395-0.07,0.916-0.254,1.566-0.557
	l0.418,0.557c0.07,0.093,0.188,0.186,0.35,0.278c0.395-0.348,0.719-0.521,0.975-0.521l-0.07,0.382l-0.105,0.453
	c2.777,1.998,4.385,2.995,4.822,2.995h10.752l0.832,0.279l0.834,0.208l0.275-0.07c0-0.3,0.066-1.328,0.193-3.081
	c0.129-1.753,0.191-3.267,0.191-4.544l0.383,7.56l2.543,1.741l-2.438,2.022c0,0.488,0,0.998,0,1.533c0,0.534,0,1.091,0,1.672v4.668
	l-0.42-3.904c-0.301-2.091-0.453-3.405-0.453-3.939c-0.275,0.069-0.451,0.151-0.521,0.244c-0.16,0.44-0.486,0.813-0.975,1.114
	l-1.254,0.87c-0.115,0.325-0.174,0.674-0.174,1.044c-0.904,0.488-2.24,0.836-4.004,1.045l-4.076,0.557
	c-1.252,0.488-1.961,0.731-2.123,0.731l-0.834-0.279c-0.35-0.185-0.629-0.278-0.838-0.278c-0.254,0-0.68,0.365-1.271,1.096
	c-0.592,0.732-1.072,1.192-1.445,1.376c0.279-0.835,0.418-1.404,0.418-1.706c0-0.255-0.035-0.418-0.104-0.488l-4.004,0.557
	l-1.881-0.418c-0.768-0.208-1.393-0.313-1.881-0.313c-2.367,0-4.91-0.139-7.625-0.417c-1.301-0.14-2.287-0.244-2.961-0.314
	l-3.586-0.488c-0.35,0.048-0.674,0.14-0.977,0.279l-0.975,0.557c-0.928-0.859-1.578-1.288-1.951-1.288l-2.994-0.418
	c-1.299-0.162-2.252-0.244-2.855-0.244c-0.488,0-1.066,0.186-1.74,0.557l0.139-0.417c0.023-0.14-0.01-0.243-0.104-0.313
	c-0.559-0.163-2.066-0.354-4.527-0.575c-2.461-0.221-4.236-0.458-5.326-0.713c-1.975-0.488-3.355-1.162-4.146-2.021l1.672-0.766
	c0.627-0.324,1.092-0.626,1.393-0.905l-4.457-12.85C335.157,65.657,336.505,65.355,336.853,65.355z"/>
<path d="M85.554,72.289c-0.232-0.231-0.603-0.314-1.114-0.244v-1.009l0.278-1.255l0.418-1.497c1.044,0.163,2.229,0.244,3.552,0.244
	h1.637c1.462,0,2.681,0.453,3.657,1.357v0.836l0.139,0.731c1.696,2.669,3.135,4.353,4.318,5.049
	c0.534,0.302,1.893,0.452,4.074,0.452l5.921-0.279l0.556-0.208c0.233-0.117,0.43-0.175,0.592-0.175
	c0.697,0.118,1.173,0.187,1.428,0.21c0.256,0.023,0.627,0.034,1.114,0.034c2.693-0.463,4.446-0.696,5.259-0.696l1.81,0.243
	c0.744,0,1.493-0.04,2.246-0.121c0.755-0.082,1.62-0.204,2.595-0.367c0.395-0.556,0.649-0.835,0.766-0.835
	c0.278,0.442,0.522,0.662,0.73,0.662l1.672-0.417c0.277-0.07,0.546-0.133,0.8-0.192c0.256-0.058,0.512-0.087,0.767-0.087
	l7.487,0.035c1.162,0,2.38,0.065,3.657,0.191c1.276,0.128,2.715,0.308,4.318,0.541c0.441,0.07,0.999,0.336,1.671,0.8
	c0.232,0.14,0.528,0.331,0.888,0.576c0.36,0.244,0.679,0.423,0.957,0.539l1.707-1.741c0.187-0.162,0.674-0.244,1.462-0.244
	c0.581,0,1.057,0.15,1.429,0.453c-0.929,0.325-1.614,0.488-2.055,0.488c-0.441,0.324-0.952,0.987-1.532,1.984
	c0.232-0.068,0.953,0.244,2.159,0.941c1.417,0.835,2.125,1.625,2.125,2.368c-0.069,0.627-0.441,1.138-1.114,1.533l-1.88,0.8
	l-0.488,0.454c-0.209,0.208-0.383,0.313-0.522,0.313l0.035-0.383c-0.093-0.163-0.221-0.243-0.383-0.243l-1.776,0.591
	c-0.069,0.023-0.174,0.035-0.314,0.035h-0.766h-1.079c-0.047,0.44-0.088,0.749-0.123,0.922c-0.035,0.175-0.087,0.319-0.156,0.437
	h-1.463c0-0.604-0.069-1.046-0.209-1.323l-1.533-0.105l-1.532-0.104c-0.209,0-0.487,0.069-0.835,0.209L138.137,85h-7.766
	c-0.162,0-0.562,0.203-1.201,0.609c-0.638,0.407-1.131,0.632-1.479,0.679c-0.139,0.047-0.627,0.07-1.463,0.07h-2.02h-6.582
	l-1.707-0.383l-2.158-0.592c-0.836-1.184-1.428-1.915-1.777-2.193c-0.603-0.418-1.218-0.627-1.845-0.627l-1.463,0.278l-1.219,0.175
	l-2.612-0.558l-2.646-0.556c-0.279,0-0.557,0.219-0.836,0.66h-0.801c0-0.467-0.069-0.736-0.208-0.808
	c-6.223-1.239-10.563-1.86-13.025-1.86c-0.093-0.022-0.197-0.083-0.313-0.175v-0.351c-0.512-0.21-1.051-0.398-1.62-0.562
	c-0.568-0.164-1.189-0.351-1.864-0.562L85.554,72.289z"/>
<path d="M89.384,101.997c2.183,0,4.132,0.174,5.85,0.523c0.465,0.302,0.697,0.546,0.697,0.73c-0.116,0.07-0.493,0.188-1.132,0.349
	c-0.638,0.163-1.063,0.464-1.271,0.905l3.205,4.319c1.067,1.346,1.73,2.042,1.984,2.089c0.836,0.187,1.655,0.325,2.455,0.417
	c0.801,0.094,1.806,0.139,3.013,0.139l3.796,0.14l1.67-0.104l1.637-0.105l1.463,0.244l1.498,0.21l1.462-0.21
	c0.65-0.162,1.103-0.244,1.358-0.244c1.161,0,1.973,0.151,2.438,0.454l23.75-0.454c1.371,0,2.507,0.105,3.412,0.314
	c0.348,0.117,0.709,0.313,1.081,0.592l0.94,0.835l2.089,0.976c1.392,0.743,2.089,1.37,2.089,1.88c0,0.976-1.219,1.811-3.656,2.507
	c-1.88,0.581-3.169,0.871-3.865,0.871c-0.163,0-0.488,0.133-0.975,0.4c-0.488,0.268-0.835,0.402-1.045,0.402h-29.077
	c-2.787,0-7.592-1.045-14.417-3.135c-1.95-0.604-3.876-1.213-5.78-1.83c-1.904-0.614-3.587-1.177-5.05-1.688
	c-0.463-0.372-0.697-0.626-0.697-0.767c0.233-0.116,0.436-0.202,0.61-0.26c0.174-0.057,0.331-0.099,0.47-0.123l-4.423-8.253
	c-0.092-0.162-0.301-0.348-0.627-0.557c-0.348-0.279-0.556-0.488-0.625-0.626C86.262,102.31,88.153,101.997,89.384,101.997z"/>
<path d="M501.818,139.417l17.344,8.671h5.92l0.209-0.383c0.046-0.069,0.127-0.151,0.242-0.243l1.429,0.626l17.168-0.209
	c2.299,0,4.376,0.442,6.233,1.323l3.064,1.498c1.882,0.487,3.609,0.882,5.189,1.184l1.602,0.627
	c0.556,0.255,1.045,0.406,1.461,0.452c0.906,0.139,1.812,0.256,2.717,0.349c0.905,0.093,1.686,0.174,2.334,0.243h-4.248
	l-1.219-0.104l-4.946,0.94c-1.67,0.349-2.877,0.586-3.621,0.714c-0.742,0.128-1.195,0.191-1.358,0.191
	c-0.463,0-1.23-0.104-2.299-0.314c-1.066-0.208-1.821-0.313-2.264-0.313h-17.724l-21.486,1.254
	c-0.186-0.046-0.423-0.134-0.714-0.261c-0.29-0.127-0.645-0.308-1.063-0.54l-2.403-1.184c-0.696-0.279-1.937-0.523-3.725-0.731
	v-2.02c0-0.905-0.222-1.474-0.662-1.706v-0.939c0.998-0.349,1.683-0.558,2.056-0.627v-0.558l-1.812-3.795
	c-0.813-1.625-1.37-3.007-1.672-4.145H501.818z"/>
<path d="M418.64,149.223v-8.9c0.722-0.442,1.544-0.663,2.473-0.663c1.114,0,1.753,0.128,1.916,0.385
	c0.534,0.842,1.23,2.231,2.09,4.165c0.858,1.936,1.52,3.297,1.984,4.086c4.133-0.394,8.114-0.871,11.944-1.428
	c-0.231-0.395-0.452-1.021-0.661-1.881l-0.453-2.03l1.044,2.344c0.604,1.184,1.114,1.776,1.532,1.776
	c3.646,0,6.049-0.116,7.209-0.349c0.604-0.162,1.556-0.539,2.856-1.131c1.299-0.592,2.229-0.889,2.786-0.889l7.729-0.174
	c0.882,0,1.562-0.004,2.037-0.018c0.476-0.011,0.865-0.028,1.167-0.051c-0.07-0.024-0.134-0.036-0.192-0.036
	c-0.057,0-0.237,0-0.539,0c0.581,0.047,1.196,0.111,1.846,0.192s1.126,0.145,1.428,0.191c0.79,0.14,1.638,0.297,2.543,0.47
	c0.903,0.174,1.59,0.319,2.055,0.436c0.649,0.208,1.449,0.702,2.401,1.479c0.952,0.778,1.545,1.214,1.777,1.307l5.118,1.253
	c2.763,0.766,4.144,1.556,4.144,2.369c0,1.021-2.216,1.845-6.651,2.472c-4.897,0.72-11.363,1.08-19.396,1.08l-8.114-0.279
	l-8.148-0.313c-0.279,0-0.458,0.1-0.539,0.296c-0.082,0.197-0.248,0.297-0.505,0.297l-2.334-0.453l-2.366-0.453
	c-0.488,0.047-1.16,0.129-2.021,0.244c-0.603,0.046-1.313,0.069-2.124,0.069c-0.396,0-1.063-0.053-2.003-0.157
	c-0.94-0.104-2.096-0.249-3.466-0.436c-3.528-0.465-6.256-0.896-8.183-1.292c-0.603-0.139-1.231-0.453-1.88-0.943
	c-0.744-0.558-1.243-1.069-1.497-1.536C416.945,150.002,417.943,149.502,418.64,149.223z"/>
<path d="M503.207,296.247l0.628,0.245l0.521,0.21c0.465,0,0.814-0.187,1.043-0.559l-1.426-3.273
	c-0.559-1.184-1.149-2.193-1.775-3.029c-0.164-0.232-0.523-0.418-1.08-0.559l-1.254-0.382l0.767-0.626l2.751-0.803
	c1.045-0.3,2.032-0.451,2.959-0.451c0.188,0,1.01,0.174,2.474,0.521l3.446,0.768l0.279,0.348c-1.162,0.418-1.846,0.836-2.055,1.253
	c0.883,1.184,3.447,2.194,7.696,3.029c1.788,0.349,3.436,0.604,4.944,0.767s2.867,0.244,4.074,0.244
	c0.651,0,1.092-0.059,1.323-0.174v-0.767c0.187,0.302,0.395,0.522,0.626,0.661c0.466,0.325,1.36,0.488,2.682,0.488l2.264-0.035
	c0.279-0.209,0.419-0.488,0.419-0.836h0.87l0.175,0.662h6.858c1.557-0.279,2.862-0.465,3.918-0.557
	c1.059-0.092,2.027-0.141,2.908-0.141c1.184,0,2.356,0.256,3.518,0.766c0.325,0.141,1.219,0.627,2.682,1.463
	c0.882,0.512,1.509,0.766,1.881,0.766l0.696,0.245l0.592,0.21c0.163,0,0.592-0.425,1.288-1.272c0.697-0.847,1.114-1.271,1.255-1.271
	c0.372,0,0.557,0.115,0.557,0.348l-2.091,2.055l6.931,2.229c-2.646,1.161-4.515,1.834-5.605,2.02
	c-5.247,0.953-8.579,1.428-9.995,1.428h-10.307c-0.257,0.069-0.697,0.273-1.325,0.609c-0.627,0.338-1.125,0.505-1.496,0.505
	c-1.208,0-2.717,0.047-4.528,0.139c-1.811,0.095-3.03,0.141-3.656,0.141c-1.555,0-6.059-0.406-13.511-1.218
	c-2.113-0.279-3.796-0.721-5.05-1.324l-0.557,0.452l-0.314-0.243c-0.07-0.094-0.184-0.209-0.348-0.35l-5.711-1.01
	c-0.255,0.07-0.383,0.199-0.383,0.384c-0.07,0.209-0.176,0.313-0.314,0.313l-1.078-0.277c-0.418-0.163-0.768-0.244-1.045-0.244
	c-0.256-0.209-0.417-0.395-0.487-0.558c-1.3-0.419-2.46-0.685-3.483-0.802c-0.068-0.742-0.148-1.16-0.242-1.253
	C500.852,296.667,502.882,296.247,503.207,296.247z"/>
<path d="M415.172,296.84l1.532-0.697c0.72-2.646,1.277-5.083,1.672-7.313c1.021-0.185,1.857-0.312,2.508-0.382
	c0.648-0.07,1.207-0.104,1.67-0.104c1.115,0,2.055,0.318,2.82,0.955c0.768,0.641,1.859,1.725,3.274,3.258
	c1.417,1.531,2.554,2.635,3.413,3.309h43.111c0.465,0,1.078,0.277,1.846,0.835l1.428,0.94c2.111,0.557,3.412,0.986,3.899,1.289
	c0.302,0.209,0.696,0.568,1.185,1.078c0.441,0.512,0.824,0.848,1.149,1.011l-2.055,0.94c-0.464,0.232-0.813,0.395-1.046,0.486
	c-0.232,0.094-0.441,0.164-0.627,0.211c-2.25,0.486-4.166,0.729-5.744,0.729l-4.842,0.14l-4.84,0.104
	c-0.417,0-1.033-0.075-1.846-0.226c-0.813-0.151-1.451-0.227-1.916-0.227l-13.197,0.068l-0.104,0.21
	c-0.07,0.116-0.197,0.174-0.383,0.174c-2.369,0-3.889-0.104-4.563-0.313c-0.324-0.115-0.859-0.255-1.602-0.418
	c-0.744-0.162-1.579-0.324-2.508-0.486l-1.358-0.211l-3.204-0.452l-2.158-0.487c-0.649-0.162-1.092-0.266-1.323-0.313
	c-0.232-0.047-0.464-0.07-0.696-0.07c-0.324,0.07-0.604,0.221-0.836,0.453c-0.14-0.303-0.545-0.569-1.219-0.801
	c-0.418-0.186-0.767-0.291-1.045-0.314c-0.232,0.023-0.395,0.105-0.487,0.244c-0.14,0.141-0.279,0.209-0.419,0.209
	c-0.58,0-1.056-0.289-1.428-0.87c-0.533-0.14-1.027-0.255-1.479-0.349c-0.453-0.092-0.865-0.174-1.237-0.244
	c-0.997-0.255-1.624-0.383-1.881-0.383l-0.556,0.244l-0.314,0.209c-0.209-0.487-0.801-0.801-1.775-0.94
	c-1.463-0.255-2.403-0.487-2.821-0.696V296.84z"/>
<path d="M5.881,143.56l0.278-4.249c1.324-1.114,2.705-1.67,4.145-1.67c1.393,0,2.275,0.151,2.646,0.453
	c0.929,0.673,2.136,2.1,3.622,4.284c1.324,1.949,2.137,3.005,2.438,3.169c0.997,0.533,2.693,0.8,5.084,0.8l2.124-0.034l1.149-0.069
	l6.929-0.627l6.964-0.662h19.014c0.417-0.858,0.975-1.289,1.671-1.289c0.348,0.07,0.685,0.232,1.01,0.488l0.592,0.417
	c3.158,0.349,4.98,0.627,5.468,0.835c0.975,0.767,1.625,1.347,1.95,1.742l2.265,0.662c1.276,0.511,1.915,1.148,1.915,1.914
	c0,1.255-0.882,2.183-2.647,2.787c-0.998,0.326-1.961,0.615-2.889,0.87c-0.93,0.256-1.626,0.442-2.09,0.558
	c-1.765,0.557-2.647,1.393-2.647,2.507l0.07,0.557c-0.255-0.023-0.488-0.139-0.697-0.348l-0.417-0.557
	c-1.253,0.302-2.078,0.452-2.472,0.452l-0.489,0.488c-0.23,0.232-0.51,0.347-0.835,0.347c-0.302,0-0.522-0.103-0.661-0.313
	c-0.186-0.208-0.394-0.313-0.626-0.313c-0.302,0.093-0.685,0.274-1.15,0.541c-0.463,0.267-0.823,0.4-1.079,0.4
	c-0.301,0-1.015-0.319-2.142-0.958c-1.125-0.638-1.792-0.958-2.002-0.958c-0.092,0-0.208,0.034-0.348,0.104l0.069,0.14
	c-0.022,0.023-0.057,0.041-0.104,0.052c-0.047,0.012-0.127,0.018-0.245,0.018l-25.177-0.626c-0.441,0-1.846-0.21-4.214-0.627
	l-4.249-0.662c-0.441,0.07-0.708,0.511-0.801,1.324c-0.139,0.836-0.556,1.253-1.253,1.253l-0.871-0.173l-0.522-0.209v-2.542
	c-2.206-0.58-3.946-1.05-5.224-1.411c-1.276-0.359-2.194-0.644-2.75-0.853c0-0.673-0.163-1.265-0.488-1.776
	c-0.324-0.51-0.488-1.544-0.488-3.099L5.881,143.56z"/>
<path d="M165.207,298.008c0.155-0.23,0.257-0.406,0.309-0.521s0.091-0.225,0.116-0.327c-0.462-0.309-0.694-0.614-0.694-0.924
	l0.27-0.693c0.462,0,0.874-0.02,1.233-0.058c0.359-0.039,0.566-0.084,0.617-0.136c0-0.102,0.025-0.309,0.077-0.615
	c0-0.231,0-0.476,0-0.732c0-0.515-0.007-1.073-0.02-1.677c-0.013-0.602-0.02-1.238-0.02-1.905v-1.426c0-0.437,0-0.982,0-1.637
	s0.014-1.098,0.039-1.328h5.855v0.885l-0.462,0.193l5.045,3.773c2.158,1.542,3.646,2.312,4.47,2.312
	c-0.283,0.231-0.514,0.347-0.694,0.347c0.309,0.411,0.95,0.809,1.927,1.195c0.976,0.383,1.72,0.576,2.234,0.576l16.679-0.499
	c1.182-0.155,2.118-0.232,2.811-0.232c0.053,0,0.097-0.069,0.135-0.211c0.039-0.142,0.173-0.213,0.405-0.213
	c0.23,0,0.385,0.071,0.462,0.213c0.077,0.142,0.192,0.211,0.346,0.211l3.66-0.231l3.621-0.23c2.233,0,5.109,0.5,8.628,1.502
	c0.592,0.182,1.458,0.597,2.6,1.252c1.144,0.656,1.946,1.06,2.408,1.213c2.953,0.979,5.534,1.747,7.741,2.313
	c2.21,0.564,4.251,1.015,6.125,1.349c-1.489,0-3.159,0.088-5.007,0.27c-1.849,0.179-3.62,0.346-5.316,0.501l-0.578,0.384
	c-0.077-0.309-0.294-0.462-0.656-0.462h-9.051c-0.179,0.053-0.372,0.182-0.578,0.387c-0.282,0.203-0.513,0.307-0.692,0.307
	c-0.078-0.41-0.141-0.641-0.193-0.693l-30.199-0.23l-1.348,0.384c-0.463,0.233-0.694,0.578-0.694,1.04h-1.04
	c-0.641,0-1.212-0.063-1.714-0.191c-0.5-0.128-0.981-0.32-1.445-0.579c-0.153-0.101-0.307-0.275-0.462-0.521
	c-0.153-0.242-0.307-0.364-0.462-0.364c-0.205,0-0.385,0.051-0.538,0.152c-0.129,0.079-0.226,0.131-0.289,0.153
	c-0.064,0.028-0.135,0.054-0.213,0.079l-2.195-0.385l-2.927-0.639c-0.257-0.498-1.04-0.993-2.349-1.481
	c-1.311-0.487-2.236-0.731-2.774-0.731c-0.103,0-0.192,0.026-0.27,0.078c-0.078,0.053-0.135,0.09-0.174,0.114
	c-0.038,0.027-0.096,0.039-0.174,0.039c-0.179,0-0.423-0.114-0.73-0.345c-0.181-0.13-0.322-0.221-0.426-0.271
	c-0.102-0.052-0.192-0.088-0.269-0.116c-0.54,0.182-1.476,0.27-2.811,0.27l-0.849-0.074L165.207,298.008z"/>
<path d="M83.639,141.192c0.534-0.138,1.137-0.208,1.81-0.208c1.811,0,3.193,0.221,4.145,0.662c0.511,0.232,2.449,1.417,5.816,3.552
	c2.646,1.671,4.643,2.612,5.989,2.82l0.454,0.174c0.185,0.093,0.359,0.14,0.522,0.14h14.904c2.183,0,4.004-0.14,5.467-0.419
	l3.691-0.73c0.697,0,1.376,0.111,2.039,0.331c0.66,0.221,1.352,0.553,2.071,0.993c1.579,0.208,3.064,0.395,4.458,0.557
	c1.393,0.162,2.403,0.278,3.029,0.348c3.668,0.465,6.674,1.208,9.02,2.229c3.692,0,5.654,0.116,5.885,0.349
	c-3.899,0-6.059,0.035-6.476,0.104l-8.95,1.497l-23.854,0.184c-0.231,0.388-0.545,0.583-0.939,0.583h-1.359h-2.646h-0.454
	l-0.313-0.591h-6.128l-4.004-0.175l-4.006-0.208c-0.139,0-0.347,0.069-0.625,0.208c-0.279,0.14-0.489,0.209-0.627,0.209
	l-1.045-0.348l-1.01-0.383c-1.393-0.186-2.472-0.314-3.239-0.383c-0.766-0.07-1.428-0.104-1.984-0.104h-0.487
	c0.233-0.301,0.696-0.522,1.393-0.662l2.125-0.418v-0.696l-0.697-0.592c-0.349-0.604-0.708-0.917-1.08-0.94v-1.427
	c0-0.464-0.035-0.802-0.104-1.01l-0.697-1.253c-0.649-1.114-1.172-2.007-1.567-2.682c-0.14-0.256-0.313-0.534-0.522-0.837V141.192z"
	/>
<path d="M500.637,190.877v-1.915l-0.732-0.548c-0.324-0.228-0.558-0.456-0.696-0.684l1.011-0.419
	c-0.629-2.668-1.092-4.859-1.394-6.568l1.358-0.878c0.533-0.375,0.916-0.563,1.148-0.563c0.117,0,1.741,1.046,4.875,3.135
	c1.834,1.207,3.368,2.172,4.598,2.89c1.23,0.721,2.263,1.255,3.099,1.603c0.396,0.186,1.092,0.278,2.09,0.278l3.413-0.174
	l16.192-0.313c-0.093-0.069-0.141-0.161-0.141-0.279c0-0.114,0.035-0.242,0.105-0.382l0.767,0.767h1.671l2.543-0.175l2.507-0.21
	c0.396,0,0.782,0.031,1.166,0.09c0.384,0.062,0.657,0.127,0.818,0.198l1.881,1.002c0.187,0.098,0.44,0.236,0.766,0.414
	c0.141,0.06,0.314,0.119,0.522,0.177c1.812,0,3.669,0.14,5.571,0.418c1.394,0.209,4.401,0.813,9.019,1.811
	c0.35,0.094,0.663,0.157,0.941,0.192c0.279,0.034,0.651,0.052,1.114,0.052c0.465,0,0.905,0.035,1.324,0.105
	c0.418,0.069,0.66,0.116,0.73,0.139c-9.656,1.371-16.889,2.055-21.695,2.055l-0.905,0.731l0.105-0.418l-0.07-0.313l-17.759,0.557
	h-14.104c-0.813,0.79-1.392,1.185-1.741,1.185c-0.604,0-3.552-0.395-8.845-1.185l-0.522-0.868c-0.21-0.289-0.459-0.506-0.749-0.651
	c-0.291-0.145-0.527-0.235-0.714-0.271c-0.187-0.037-0.51-0.056-0.976-0.056l-1.532-0.174L500.637,190.877z"/>
<path d="M501.178,316.229l1.253,0.174l1.323,0.209l3.798,5.362c1.461,2.021,2.285,3.1,2.47,3.238
	c1.37,0.905,3.554,1.358,6.548,1.358l1.985-0.069l26.396-1.776h1.185c0.463,0.024,1.091,0.041,1.879,0.054
	c0.789,0.011,1.418,0.04,1.881,0.086c1.834,0.209,3.378,0.616,4.631,1.22c0.442,0.208,1.058,0.609,1.846,1.2
	c0.79,0.593,1.418,0.981,1.881,1.167c1.185,0.511,2.624,0.941,4.318,1.288l4.423,0.87c0.021,0.279,0.173,0.651,0.451,1.114
	c0.257,0.512,0.385,0.85,0.385,1.011c0,0.487-0.186,0.848-0.559,1.08c-0.789,0.51-1.287,0.882-1.496,1.114
	c-0.696,0.069-2.009,0.209-3.936,0.417c-1.927,0.21-3.818,0.313-5.677,0.313c-0.904,0-1.979,0.035-3.222,0.104
	c-1.24,0.07-2.314,0.152-3.219,0.244c-0.836,0-2.38-0.082-4.634-0.244c-2.251-0.161-4.253-0.3-6.006-0.418
	c-1.753-0.115-3.64-0.174-5.658-0.174l-15.498-1.254l-1.253-0.242c-0.464-0.117-0.87-0.175-1.22-0.175
	c-0.324,0.068-0.508,0.162-0.556,0.277l-0.209,0.21h-4.25c-3.155,0-5.177-0.104-6.058-0.313c-2.414-0.581-3.621-1.916-3.621-4.005
	c-0.651-0.79-1.185-1.29-1.602-1.498v-2.786l-0.559-4.317l-0.766-4.284C499.251,316.415,500.366,316.229,501.178,316.229z"/>
<path d="M332.64,101.615h5.711l2.438,5.885c1.252,2.925,2.193,4.387,2.82,4.387h9.123c1.021-1.996,1.66-3.469,1.916-4.422
	l1.184-0.975c0.371-0.371,0.559-0.906,0.559-1.602c0-0.139-0.035-0.302-0.105-0.487h-0.104c-4.248-0.673-7.523-1.347-9.822-2.021
	c1.65-0.719,5.828-1.079,12.539-1.079c3.969,0,6.719,0.07,8.252,0.209c3.922,0.396,7.371,1.08,10.342,2.055
	c-0.766,0.257-1.607,0.461-2.525,0.612c-0.916,0.15-1.932,0.225-3.047,0.225c-0.857,0-1.752,0.064-2.68,0.192
	c-0.93,0.127-1.883,0.307-2.855,0.539v0.697l0.73,2.368c0,0.766-0.035,1.382-0.104,1.845c0.209,0.304,0.486,0.453,0.836,0.453
	c0.371-0.046,0.828-0.104,1.375-0.174c0.545-0.069,1.016-0.104,1.41-0.104c1.254,0,2.543,0.243,3.865,0.731l0.242,0.209
	c0.117,0.07,0.279,0.104,0.488,0.104l2.404-0.382c0.348-0.07,0.76-0.151,1.234-0.244c0.479-0.093,0.855-0.14,1.133-0.14
	c0.859,0,1.689,0.076,2.488,0.227c0.803,0.151,1.586,0.377,2.354,0.679l0.102,0.417v0.627c0.049,0.279,0.154,0.417,0.314,0.417
	h1.045c0.744,0,1.113-0.417,1.113-1.253c0-0.093,0-0.291,0-0.593l-0.104-0.522c0.371,0.212,0.592,0.552,0.662,1.021
	c0.139,0.703,0.23,1.078,0.279,1.125c0.951-0.14,1.596-0.222,1.932-0.247c0.338-0.023,0.9-0.035,1.688-0.035
	c1.256,0,2.16,0.141,2.719,0.422l3.168,2.182c0.533,0.351,1.277,0.703,2.229,1.055c0.094,0.046,0.615,0.246,1.568,0.597
	c0.395,0.166,0.639,0.27,0.729,0.317v2.85c-1.879,0.375-3.434,0.651-4.666,0.827c-1.229,0.177-2.18,0.264-2.854,0.264l-15.811-0.557
	h-0.904c-0.813,0-1.381,0.037-1.707,0.111l-0.141,0.262c-0.092,0.124-0.242,0.185-0.451,0.185h-6.547
	c-0.395,0-0.592-0.143-0.592-0.429c-0.744-0.072-2.346-0.233-4.807-0.483c-2.459-0.25-5.072-0.376-7.834-0.376
	c-1.857,0-3.924-0.081-6.199-0.244c-0.813-0.068-2.971-0.289-6.477-0.661c-1.625-0.209-3.311-0.569-5.051-1.079
	c-0.254-0.07-0.648-0.348-1.184-0.835c-0.535-0.489-0.928-0.767-1.184-0.837l-3.238-0.661V101.615z"/>
<path d="M83.32,291.264c0.255,0.021,0.626,0.092,1.114,0.207c0.208,0.024,0.65,0.035,1.323,0.035l1.916-0.069
	c0.465-0.65,0.794-1.259,0.992-1.829c0.197-0.569,0.296-1.188,0.296-1.862c-0.185-0.093-0.278-0.267-0.278-0.522
	c-0.023-0.278-0.011-0.44,0.035-0.488c0.326-0.464,0.511-0.813,0.558-1.044l-0.314-1.253c0.209-0.256,0.396-0.418,0.558-0.488
	l0.313-2.264c0.14-0.905,0.417-1.485,0.836-1.741c1.787,0.325,2.868,0.755,3.238,1.289l4.004,5.78
	c1.602,2.299,2.821,3.865,3.657,4.7c0.163,0.164,0.384,0.245,0.662,0.245l0.731-0.105h0.731c0.348,0.418,0.674,0.628,0.975,0.628
	l14.139-0.21c-0.209-0.486-0.278-0.904-0.209-1.254c0.395,0.209,0.778,0.407,1.149,0.593c0.604,0.303,0.987,0.51,1.149,0.628
	l7.452,0.068l3.795,0.175c0.255-0.07,0.425-0.21,0.505-0.417c0.082-0.211,0.203-0.314,0.366-0.314c0.185,0,1.114,0.521,2.785,1.567
	c1.974,1.23,3.309,1.996,4.005,2.298c2.183,1.021,4.144,1.672,5.885,1.949c0.348,0.117,1.045,0.175,2.089,0.175h0.418h0.522h0.663
	h2.055c-0.325,0.046-0.917,0.152-1.776,0.313c-0.72,0.094-1.543,0.141-2.473,0.141l-0.766,1.323
	c-0.348,0.417-0.766,0.662-1.254,0.73c-1.277,0.187-2.525,0.338-3.744,0.453c-1.218,0.117-2.572,0.174-4.057,0.174
	c-0.557,0-1.44,0.03-2.647,0.087c-1.207,0.058-2.02,0.088-2.437,0.088l-4.91-0.244l-4.91-0.244l-3.378,0.244l-3.378,0.244
	c-2.275,0-4.318-0.07-6.129-0.209c-1.811-0.14-3.569-0.342-5.275-0.609c-1.707-0.267-3.569-0.749-5.589-1.445l-2.751-0.905
	c-0.231,0.069-0.417,0.209-0.556,0.418c-0.14,0.208-0.279,0.313-0.418,0.313c-0.278-0.069-1.137-0.43-2.577-1.08
	c-0.046-0.068-0.07-0.186-0.07-0.348c0-0.161,0.014-0.29,0.036-0.383c-0.906-0.558-2.351-0.98-4.336-1.271
	c-1.984-0.29-3.326-0.598-4.022-0.923c-0.858-0.418-1.288-0.94-1.288-1.567l0.976-0.418c-0.372-0.187-0.64-0.301-0.802-0.349
	c-0.162-0.045-0.394-0.092-0.695-0.139C82.624,291.553,82.994,291.264,83.32,291.264z"/>
<path d="M250.438,225.914c0.278-0.161,0.465-0.342,0.557-0.539s0.139-0.458,0.139-0.783l-0.696-10.83h4.005
	c-0.581,0.115-0.894,0.209-0.941,0.278l7.975,10.099h12.745l10.621-1.811l0.278-0.347c0.326,0.161,0.848,0.242,1.568,0.242
	c1.043,0,2.624-0.278,4.735-0.836c2.112-0.558,3.854-0.835,5.224-0.835c1.625,0,2.706,0.069,3.239,0.208l4.735,1.567
	c0.209,0.07,0.568,0.278,1.08,0.627c0.51,0.348,0.859,0.558,1.043,0.627c2.787,0.696,5.104,1.335,6.949,1.915
	c1.846,0.581,3.268,1.114,4.266,1.603c-3.459,0.813-5.294,1.219-5.503,1.219c-1.741,0.348-3.587,0.522-5.537,0.522h-17.202v0.939
	c-0.23,0.047-0.43,0.069-0.593,0.069h-0.417l-1.394-0.069l-1.323-0.104c-1.276,0-2.368,0.515-3.273,1.542
	c0-0.657-0.081-1.136-0.244-1.438h-4.876l-1.044,0.976c0-0.836-0.07-1.394-0.209-1.673c-0.672,0.49-1.462,0.736-2.368,0.736
	l-0.835-0.035l-0.905-0.036c-1.509,0-2.681,0.49-3.518,1.47c0-0.657-0.082-1.136-0.244-1.438h-4.874l-1.045,0.976
	c0-0.65-0.082-1.127-0.244-1.429c-0.58,0-1.537-0.046-2.874-0.139c-1.334-0.093-2.083-0.141-2.246-0.141
	c-0.905,0-1.666-0.027-2.281-0.086c-0.614-0.059-1.549-0.18-2.803-0.366c0-0.627-0.174-1.044-0.522-1.254
	c-0.348-0.114-0.586-0.185-0.714-0.208c-0.127-0.022-0.354-0.047-0.679-0.069c-0.766-0.116-1.323-0.267-1.671-0.453L250.438,225.914
	z"/>
<path d="M83.604,213.941h3.517c1.069,0,2.113,0.128,3.135,0.382c1.601,0.466,2.402,1.045,2.402,1.741
	c-0.07,0.395-0.22,0.743-0.452,1.046v0.314l6.232,4.422c2.531,1.649,3.936,2.472,4.214,2.472h12.467l1.045-0.417
	c0.441-0.141,0.743-0.21,0.905-0.21c0.116,0,0.278,0.069,0.487,0.21c0.209,0.138,0.383,0.208,0.521,0.208l4.841-0.208l4.91-0.21
	l0.592-0.296c0.093-0.099,0.221-0.197,0.384-0.296l0.417,0.592c0.696,0,1.276,0.029,1.741,0.086
	c0.464,0.059,0.987,0.157,1.566,0.296c0.581,0.137,1.603,0.506,3.065,1.106c1.463,0.6,2.542,0.981,3.238,1.143
	c6.826,1.566,11.539,2.478,14.139,2.731l-0.244,0.409c-5.804,0.913-9.286,1.367-10.448,1.367l-0.87-0.088l-0.871-0.086
	c-0.186,0-0.47,0.063-0.852,0.191c-0.384,0.128-0.714,0.191-0.994,0.191l-0.905-0.383l-31.445-0.627l-2.647,0.627l-17.865-2.925
	l0.488-0.592c0.209-0.279,0.314-0.489,0.314-0.628c-0.07-0.115-0.232-0.22-0.488-0.313l-0.522-0.279l0.696-0.174
	c0.069-0.069,0.105-0.279,0.105-0.628c0-0.742-0.697-3.133-2.09-7.173c-0.138-0.139-0.383-0.209-0.731-0.209V213.941z"/>
<path d="M497.257,224.857c0.165-0.162,0.593-0.418,1.29-0.767c0.535-0.301,0.8-0.522,0.8-0.661l-0.557-2.716l-0.382-2.612
	c-0.187-1.045-0.501-1.637-0.94-1.775l0.067-0.453c0.257-0.231,0.385-0.487,0.385-0.766c0-0.186-0.07-0.453-0.209-0.802l-0.211-0.87
	h2.195l1.915,1.602c0.696,0.534,1.313,0.802,1.846,0.802l0.488-0.069c-0.071,0.486-0.197,0.788-0.384,0.904
	c0.512,0.464,1.114,0.998,1.812,1.602c0.581,0.512,1.173,1.01,1.775,1.498c2.344,1.95,3.75,2.925,4.214,2.925l3.169-0.105
	l3.169-0.103l18.875,0.835c0.187,0,0.661-0.093,1.427-0.278c0.93-0.302,1.544-0.454,1.846-0.454c-0.186-0.3-0.278-0.579-0.278-0.835
	l0.069-0.279c0.093,0.279,0.413,0.559,0.959,0.837c0.545,0.277,0.957,0.418,1.234,0.418c0.302,0,0.802-0.069,1.498-0.209
	l1.463-0.209c0.464,0,0.957,0.041,1.48,0.122c0.521,0.082,1.097,0.203,1.724,0.366l1.043,0.521l3.31,1.835
	c1.323,0.783,2.193,1.212,2.611,1.279c0.744,0.231,1.741,0.52,2.995,0.865c0.929,0.255,2.032,0.543,3.309,0.865
	c1.671,0.438,3.1,0.658,4.283,0.658l1.498-0.105l-2.996,0.149l-0.626,1c-0.581,0.279-1.127,0.418-1.637,0.418l-45.793-0.418
	c-0.093,0.093-0.173,0.162-0.244,0.208c-0.256,0.21-0.476,0.418-0.661,0.627c-0.558,0.558-1.023,0.837-1.394,0.837
	c-0.371-0.093-0.744-0.181-1.114-0.261c-0.371-0.083-1.045-0.215-2.02-0.401c0-0.766-0.058-1.171-0.174-1.219
	c-0.489,0-0.958-0.028-1.41-0.087c-0.453-0.058-0.772-0.122-0.959-0.192c0-0.72-0.057-1.194-0.174-1.428
	c-0.464,0-0.904-0.039-1.322-0.121c-0.418-0.081-0.814-0.203-1.184-0.365l-1.045-0.559c-0.466-0.23-0.814-0.348-1.046-0.348h-3.028
	c-1.416,0-2.404-0.034-2.962-0.104V224.857z"/>
<path d="M333.128,223.673c0.604-0.65,1.334-1.161,2.193-1.534c0.23-0.16,0.754-0.243,1.566-0.243c0.768,0,1.336-0.151,1.707-0.453
	l-2.439-6.307l0.141-0.277l0.104-0.385c0.697-0.115,1.207-0.185,1.533-0.208c0.326-0.024,0.814-0.035,1.463-0.035
	c2.229,0.465,4.26,0.697,6.094,0.697c-0.07,0.093-0.129,0.163-0.174,0.208c-0.162,0.21-0.314,0.385-0.453,0.524
	c1.764,0.789,3.436,1.51,5.016,2.159c1.207,0.487,2.402,0.976,3.586,1.463c4.504,1.836,7.174,2.754,8.008,2.754
	c0.256-0.023,0.541-0.053,0.854-0.087c0.314-0.035,0.518-0.064,0.611-0.087l-0.105-0.664l-0.105-0.696h1.811
	c0.256,0,0.67,0.25,1.238,0.75s0.922,0.749,1.061,0.749c0.836,0.163,1.939,0.245,3.309,0.245l10.83-0.21
	c1.951,0,4.086,0.477,6.408,1.429l2.193,1.186c1.834,0.418,3.506,0.83,5.014,1.235c1.51,0.407,2.891,0.819,4.145,1.239
	c0.627,0.207,1.754,0.313,3.379,0.313l-0.244,0.626c-0.348-0.162-1.301-0.242-2.855-0.242l-2.924,0.695
	c-1.883,0.442-3.311,0.721-4.283,0.837c-2.881,0.324-5.127,0.539-6.74,0.644c-1.613,0.104-3.092,0.156-4.439,0.156l-4.631,0.209
	c-0.395,0.256-0.674,0.385-0.838,0.385c-0.184,0-0.316-0.076-0.398-0.229c-0.082-0.149-0.215-0.226-0.4-0.226h-13.756
	c-1.371-0.07-2.979-0.151-4.824-0.243c-1.846-0.094-3.904-0.141-6.18-0.141c-0.627,0.047-1.201,0.088-1.725,0.123
	c-0.523,0.034-1.166,0.051-1.932,0.051l-2.543,0.21l-2.264-0.07l-3.795-1.115l-1.775-0.627c-0.465-0.208-0.795-0.336-0.994-0.382
	c-0.195-0.048-0.377-0.081-0.539-0.105c-0.604-0.094-1.01-0.395-1.219-0.905C333.022,225.508,333.128,224.37,333.128,223.673z"/>
<path d="M420.78,214.01l5.257,2.891c3.693,2.09,6.512,3.529,8.464,4.318c0.883,0.348,2.009,0.521,3.378,0.521l3.482-0.034
	c0,0.535,0.068,0.94,0.207,1.219l21.068,0.801l2.787,0.175c1.16,0.116,1.903,0.231,2.229,0.348
	c3.669,1.649,8.566,3.228,14.695,4.736c0.79,0.208,1.393,0.487,1.811,0.835l-0.141,0.42c0.234,0.301,0.732,0.45,1.499,0.45h0.627
	l-10.028,0.279l-19.919-0.418l-14.487-0.905l-9.924,0.522l-1.638,0.034h-2.89c-0.952,0-1.816-0.098-2.594-0.295
	s-1.458-0.47-2.037-0.819c-1.068-0.648-1.673-1.462-1.812-2.437v-1.289l0.034-1.253c-1.439-0.559-2.391-0.837-2.855-0.837
	c0.302-0.301,0.452-0.661,0.452-1.079c0.488-0.093,0.825-0.301,1.012-0.627l-3.101-7.557H420.78z"/>
<path d="M164.706,223.082l2.542-9.716h4.631c0.187,0,0.557,0.243,1.114,0.73c0.65,0.512,1.069,0.797,1.254,0.854
	c0.186,0.06,0.441,0.1,0.767,0.123s0.696,0.034,1.114,0.034c0.487,0,0.999,0,1.532,0c0.534,0,1.091,0,1.671,0
	c-0.511,0.064-1.271,0.162-2.28,0.293c-1.011,0.13-1.852,0.194-2.525,0.194l2.611,3.135c0.999,1.184,1.95,2.124,2.855,2.82
	c0.326,0.256,0.941,0.384,1.846,0.384l0.87-0.07c0.186,0,0.488,0.07,0.905,0.209l0.871,0.209c0.232,0,0.551-0.075,0.958-0.227
	c0.407-0.15,0.69-0.227,0.854-0.227c0.232,0.07,0.389,0.164,0.469,0.279c0.082,0.115,0.192,0.174,0.331,0.174l13.825-0.801
	l0.244,0.244l16.785-1.951c1.253,0,2.321,0.07,3.204,0.21c0.882,0.139,1.625,0.325,2.229,0.557c0.302,0.116,0.952,0.534,1.95,1.254
	c0.906,0.627,1.428,0.939,1.568,0.939c0.232,0,1.033-1.032,2.402-3.099l1.255-0.104c0.626,0,1.148,0.15,1.566,0.453
	c-0.185,0-0.452,0-0.8,0c-0.883,0-1.58,0.36-2.09,1.079l-0.591,1.08l-0.627,1.113c0.557,0.071,1.602,0.466,3.133,1.186
	c2.044,0.997,3.065,1.949,3.065,2.854c0,1.114-1.161,1.984-3.482,2.611l-0.557,1.011c-0.278,0.348-0.581,0.521-0.905,0.521
	c-0.256-0.069-0.604-0.278-1.045-0.627c-0.442-0.348-0.778-0.521-1.01-0.521c-1.184,0-2.229,0.174-3.134,0.521l-0.558,0.383
	c-0.301-0.255-0.568-0.383-0.8-0.383c-0.14,0-0.278,0.035-0.418,0.105v0.696c-0.255-0.047-0.534-0.267-0.835-0.661h-9.578
	l-19.848-2.717c-1.022,0.44-1.904,0.662-2.647,0.662c-0.394-0.046-0.893-0.158-1.497-0.332c-0.604-0.174-1.37-0.436-2.298-0.782
	l-20.894-3.483V223.082z"/>
<path d="M334.729,299.311v-1.044l7.277-1.046v-1.218l-0.662-3.83c-0.44-2.23-0.627-3.529-0.559-3.9h4.25l8.426,8.078l5.051-0.662
	c0.141-0.022,0.319-0.115,0.54-0.278c0.222-0.162,0.373-0.255,0.453-0.279c0.081-0.023,0.134-0.033,0.155-0.033
	c0.164,0,0.378,0.068,0.645,0.209c0.267,0.139,0.47,0.208,0.608,0.208l1.5-0.243c0.23-0.372,0.475-0.559,0.73-0.559l0.139,0.385
	c0.071,0.139,0.187,0.209,0.348,0.209c1.835,0,3.682-0.059,5.538-0.176c1.858-0.113,3.448-0.242,4.771-0.382l3.344-0.662
	c1.438-0.302,2.497-0.452,3.169-0.452c1.624,0,3.053,0.26,4.283,0.777l4.596,1.938c1.115,0.277,2.073,0.502,2.873,0.674
	c0.801,0.172,1.679,0.352,2.629,0.534c2.973,0.645,5.304,1.312,6.999,2.004c0.303,0.229,0.453,0.459,0.453,0.688
	c-2.623,0.999-4.329,1.497-5.118,1.497h-5.956c-0.417,0-0.765,0.209-1.043,0.627c-0.023,0-0.054-0.023-0.088-0.069
	c-0.033-0.046-0.076-0.128-0.121-0.243c-0.139-0.209-0.29-0.314-0.453-0.314c-0.162,0.048-0.383,0.07-0.662,0.07
	c-0.302,0.07-0.598,0.11-0.888,0.122c-0.289,0.011-0.633,0.017-1.028,0.017h-0.417h-0.522h-0.662h-0.801h-1.01h-1.288
	c-0.976,0.117-1.653,0.191-2.038,0.227c-0.382,0.034-1.003,0.053-1.863,0.053l-0.104,0.208c-0.022,0.094-0.14,0.141-0.349,0.141
	c-0.185,0-0.276-0.069-0.276-0.21c-0.023-0.046-0.106-0.115-0.245-0.21h-6.931c-0.696,0-1.937,0.187-3.725,0.559
	c-0.906,0.187-1.648,0.313-2.229,0.383c-0.581,0.07-1.103,0.105-1.567,0.105l-11.249-0.418l-4.771,0.418l-4.771,0.418
	c-0.163-0.023-0.384-0.088-0.661-0.191c-0.279-0.106-0.511-0.204-0.697-0.298l-1.602-0.696c-1.137-0.347-2.53-0.674-4.18-0.974
	l-0.242-0.522l-0.35-0.559c-0.883-0.091-1.461-0.231-1.74-0.417C333.429,299.649,334.126,299.427,334.729,299.311z"/>
<path d="M250.125,285.487c0.464-0.116,0.835-0.313,1.114-0.592c-1.439-1.927-2.275-3.134-2.507-3.621
	c0.395-0.209,1.074-0.465,2.037-0.766c0.963-0.302,1.584-0.455,1.864-0.455c1.578,0,2.75,0.223,3.516,0.663
	c0.488,0.278,1.266,0.73,2.334,1.357c1.647,0.976,2.774,1.649,3.377,2.02c1.694,1.047,3.169,1.951,4.422,2.717
	c4.18,2.603,7.267,4.389,9.264,5.364c0.185,0.093,0.371,0.144,0.556,0.155c0.187,0.013,0.384,0.018,0.592,0.018l1.011-0.105
	l9.89-0.243c0.371-0.743,0.708-1.114,1.01-1.114c0,0.605,0.068,0.94,0.209,1.011l4.109,0.139l2.926,0.208
	c0.742,0,1.484-0.243,2.229-0.729c-0.257-0.487-0.385-0.918-0.385-1.289l0.07-0.453c0.674,0.906,1.139,1.357,1.393,1.357
	c0.256-0.045,0.709-0.139,1.358-0.276c1.114-0.231,1.892-0.407,2.333-0.523c0.836-0.209,1.545-0.359,2.124-0.453
	c0.581-0.092,1.046-0.14,1.394-0.14c0.186,0.048,0.883,0.593,2.09,1.637s2.147,1.685,2.82,1.917c0.417,0.186,1.48,0.382,3.186,0.591
	c1.706,0.209,2.885,0.511,3.534,0.905v5.711c-0.277,0.232-0.45,0.373-0.521,0.418c-0.07,0.048-0.292,0.174-0.662,0.384
	c-0.279,0-0.697,0.069-1.254,0.21c-0.14,0.022-0.325,0.057-0.557,0.104c-0.232,0.047-0.478,0.07-0.732,0.07
	c-9.24,0-13.998,0.047-14.277,0.142l0.837,0.887c-1.046,0.613-3.03,0.921-5.956,0.921c-4.016,0-8.74-0.773-14.173-2.32
	c-0.117-0.095-0.173-0.212-0.173-0.353l-0.105-0.315c-1.601-0.423-3.063-0.634-4.388-0.634l-1.149,0.314
	c-0.465,0.161-0.778,0.244-0.941,0.244l-4.526-0.802c-0.836-0.162-1.938-0.395-3.309-0.697c-0.999-0.184-2.055-0.359-3.169-0.522
	l-1.045-0.87c-0.069-0.486-0.116-0.964-0.139-1.427c-0.023-0.466-0.036-0.894-0.036-1.289c-0.162-0.117-0.481-0.256-0.958-0.418
	c-0.475-0.161-1.038-0.325-1.688-0.488c-1.323-0.395-2.066-0.661-2.229-0.8c-0.859-0.72-1.694-1.719-2.508-2.995l-1.949-3.481
	l-2.125-0.211c-0.951-0.207-1.543-0.509-1.776-0.903C249.115,285.663,249.661,285.604,250.125,285.487z"/>
<path d="M85.52,261.554c0.44,0,0.852-0.022,1.236-0.068c0.382-0.047,0.608-0.082,0.678-0.105c0.581-0.162,0.871-0.524,0.871-1.083
	l-0.034-0.278l-0.035-0.244c0.72-0.372,1.184-0.769,1.393-1.186l-4.249-10.331c-0.138-0.256-0.383-0.407-0.731-0.455
	c-0.278-0.115-0.417-0.231-0.417-0.348v-1.327l0.348,0.279c0.626-0.187,1.521-0.279,2.681-0.279h1.951l2.577,1.414
	c0.417,0.242,1.253,0.361,2.508,0.361v1.15l-0.489,0.173l5.12,4.283c2.948,2.321,4.956,3.481,6.023,3.481
	c0.209-0.021,0.523-0.067,0.941-0.138c0.441,0,0.882,0,1.323,0l2.995-0.139c0.139-0.187,0.208-0.407,0.208-0.662h0.907
	c0.163,0.464,0.464,0.697,0.904,0.697l2.438-0.105l2.403-0.141l0.835-0.244l0.836-0.485c0,0.485,0.175,0.729,0.522,0.729
	l6.059-0.868l6.06-0.873c2.739,0,4.108,0.501,4.108,1.497l0.07-0.104l-0.07-0.174l-0.035-0.141c0.024,0,0.035-0.011,0.035-0.032
	c0.07-0.025,0.14-0.035,0.209-0.035c0.349,0.067,1.092,0.475,2.229,1.217c1.462,0.906,2.472,1.464,3.029,1.673l6.407,2.229
	c2.764,1.021,4.597,1.916,5.501,2.681c-3.736,0.79-6.151,1.185-7.243,1.185l-0.208,0.35c-0.209,0.207-0.395,0.313-0.558,0.313
	l-0.697-0.279c-0.3-0.162-0.521-0.244-0.66-0.244c-0.371,0.072-0.836,0.411-1.394,1.02c-0.069-0.444-0.231-0.749-0.488-0.912
	l-2.089-0.107l-37.192,1.02l-6.337-1.082c-2.09-0.372-4.19-0.86-6.304-1.465l-1.707-1.083c-0.231-0.069-0.551-0.126-0.957-0.174
	s-0.854-0.07-1.341-0.07c-0.395,0-0.754-0.022-1.08-0.07c-0.325-0.046-0.627-0.091-0.905-0.139
	C83.986,261.647,84.591,261.554,85.52,261.554z"/>
<path d="M498.094,244.778h5.327c0.278,0.07,1.592,1.277,3.936,3.621c3.087,3.089,4.992,4.947,5.711,5.574
	c0.884,0.741,1.845,1.357,2.892,1.845c0.485,0.208,1.613,0.313,3.377,0.313l23.263-0.522c0.603,0,1.705,0.141,3.308,0.418
	c2.137,0.396,3.691,0.824,4.667,1.29c0.37,0.162,1.033,0.615,1.984,1.357c0.835,0.674,1.405,1.044,1.705,1.114l6.791,1.984
	c2.787,0.86,4.69,1.544,5.712,2.055v0.976l-0.314,0.313c-2.482,0.349-4.444,0.522-5.885,0.522l-31.063,0.279l-2.089-0.244
	l-2.055-0.278h-7.592c-0.65,0-2.334-0.139-5.05-0.418c-3.737-0.395-6.303-0.725-7.695-0.993c-1.394-0.267-2.878-0.806-4.458-1.617
	l-0.626-2.055c-0.35-0.999-0.893-1.731-1.637-2.195c0.233-0.185,0.749-0.477,1.549-0.871c0.801-0.395,1.341-0.729,1.62-1.009
	c-0.813-1.766-1.275-2.89-1.394-3.377c-0.627-2.763-1.229-4.864-1.811-6.305c-0.115-0.185-0.36-0.278-0.732-0.278
	C497.907,245.906,498.094,245.407,498.094,244.778z"/>
<path d="M2.396,32.489h5.327c0.278,0.07,1.592,1.277,3.936,3.621c3.087,3.089,4.992,4.947,5.711,5.574
	c0.884,0.741,1.845,1.357,2.892,1.845c0.485,0.208,1.613,0.313,3.377,0.313L46.9,43.319c0.603,0,1.705,0.141,3.308,0.418
	c2.137,0.396,3.691,0.824,4.667,1.29c0.37,0.162,1.033,0.615,1.984,1.357c0.835,0.674,1.405,1.044,1.705,1.114l6.791,1.984
	c2.787,0.86,4.69,1.544,5.712,2.055v0.976l-0.314,0.313c-2.482,0.349-4.444,0.522-5.885,0.522l-31.063,0.279l-2.089-0.244
	l-2.055-0.278H22.07c-0.65,0-2.334-0.139-5.05-0.418c-3.737-0.395-6.303-0.725-7.695-0.993c-1.394-0.267-2.878-0.806-4.458-1.617
	l-0.626-2.055c-0.35-0.999-0.893-1.731-1.637-2.195c0.233-0.185,0.749-0.477,1.549-0.871c0.801-0.395,1.341-0.729,1.62-1.009
	c-0.813-1.766-1.275-2.89-1.394-3.377c-0.627-2.763-1.229-4.864-1.811-6.305c-0.115-0.185-0.36-0.278-0.732-0.278
	C2.209,33.617,2.396,33.118,2.396,32.489z"/>
<path d="M415.854,258.779c0.582,0,1.023-0.221,1.325-0.662c0-0.905,0.174-2.171,0.521-3.796l0.873-3.621
	c0.276-1.114,0.729-2.193,1.357-3.239c0.905-1.484,1.788-2.228,2.646-2.228c0.58,0.069,1.421,0.621,2.522,1.654
	c1.104,1.031,1.969,1.549,2.596,1.549c0.209-0.022,0.401-0.053,0.575-0.088s0.389-0.099,0.645-0.19
	c-0.837,0.417-1.534,0.696-2.09,0.835c1.37,1.881,2.52,3.088,3.447,3.622c0.743,0.441,2.717,0.858,5.919,1.254
	c3.204,0.396,5.468,0.591,6.791,0.591c0.512,0,1.04-0.022,1.584-0.069c0.546-0.046,1.121-0.104,1.726-0.174
	c2.019-0.301,3.493-0.603,4.421-0.905l0.838-0.453c0.51-0.325,0.881-0.486,1.114-0.486c0.067,0.464,0.231,0.696,0.485,0.696
	c0.442-0.719,0.953-1.08,1.532-1.08c0.372,0.07,0.669,0.203,0.89,0.4c0.222,0.197,0.457,0.296,0.714,0.296
	c0.37-0.046,0.823-0.196,1.358-0.453l0.903-0.452c1.231-0.324,2.258-0.563,3.083-0.715c0.824-0.148,1.666-0.227,2.525-0.227
	c0.487-0.904,0.731-1.461,0.731-1.67c0.44,0.44,0.627,1.044,0.556,1.811l1.079-0.104c0.883,0,1.842,0.407,2.875,1.219
	c1.032,0.813,2.015,1.219,2.94,1.219l1.673-0.174c-0.441,0.372-0.813,0.615-1.115,0.731l-1.01,0.452
	c0.905,0.929,2.299,1.394,4.179,1.394h1.567c1.812,0,3.134,0.418,3.971,1.253c0.441-2.995,0.662-4.504,0.662-4.526
	c0.068-0.627,0.104-1.253,0.104-1.88c0.186,1.392,0.337,2.698,0.452,3.917c0.117,1.22,0.174,2.537,0.174,3.952
	c1.114,0.627,1.673,1.253,1.673,1.882c-0.07,0.418-0.267,0.765-0.592,1.044c-0.117,0.093-0.279,0.243-0.487,0.453
	c-0.071,0.093-0.141,0.208-0.209,0.347c-0.35,1.023-0.523,2.473-0.523,4.354c0,1.185-0.012,2.065-0.035,2.646
	c-0.021,0.58-0.058,1.127-0.104,1.637c-0.21-1.649-0.349-2.773-0.419-3.378c-0.209-1.855-0.313-3.214-0.313-4.074
	c-0.559,1.044-1.021,1.602-1.394,1.671l-1.707,0.279c-0.369,0.069-0.696,0.117-0.974,0.141c-0.279,0.021-0.51,0.034-0.696,0.034
	l-1.079-0.211l-1.047-0.138c-0.323,0.022-0.666,0.262-1.026,0.714c-0.359,0.452-0.666,0.679-0.923,0.679l-0.767-0.104l-0.556-0.139
	l-0.314,0.139v0.904c1.139,0.279,1.882,0.732,2.229,1.358c0.115,0.209,0.19,0.407,0.227,0.594c0.035,0.187,0.053,0.51,0.053,0.974
	c0,1.788-0.883,2.682-2.646,2.682c-0.649,0-1.358-0.29-2.125-0.871c-0.417-1.091-0.627-1.902-0.627-2.438
	c-0.395-1.066-1.021-1.996-1.88-2.786c-0.975-0.903-1.973-1.356-2.995-1.356l-1.045,0.207l-0.94,0.141l-2.82,0.349l-34.753-4.25
	c-1.207,0-2.067,0.327-2.577,0.976c-0.093,0.257-0.139,0.732-0.139,1.429c-0.466,0.209-0.883,0.313-1.255,0.313
	c-0.44,0-0.835-0.104-1.184-0.313v-1.219l0.627-0.592l0.418-0.42c-0.418-0.276-1.149-0.631-2.193-1.062
	c-1.046-0.43-1.718-0.76-2.021-0.991V258.779z"/>
<path d="M165.159,261.113c0.138-0.581,0.278-0.988,0.417-1.22l1.914-0.279c1.324,0,2.159-0.07,2.508-0.209
	c-1.022-4.38-1.717-7.549-2.089-9.507l0.419,0.279c1.183-0.186,2.216-0.279,3.099-0.279l0.522,0.104l1.322,0.279l4.458,4.821
	c0.906,1.02,1.712,1.893,2.421,2.62c0.708,0.729,1.34,1.348,1.897,1.856c0.117,0.093,0.406,0.141,0.871,0.141l1.01-0.105
	l41.475-0.522c1.904,0,3.506,0.21,4.806,0.628c0.417,0.115,1.068,0.533,1.949,1.253c1.045,0.883,1.567,1.485,1.567,1.811
	c-0.069,0.789-1.241,1.497-3.516,2.125c-1.833,0.511-3.216,0.765-4.145,0.765l-34.614,0.244c-2.578-0.347-5.224-0.701-7.94-1.062
	c-2.716-0.359-5.003-0.633-6.86-0.817c-1.857-0.187-3.599-0.279-5.224-0.279l-6.094-0.522c-0.418-0.395-0.626-0.696-0.626-0.906
	C164.914,262.076,165.066,261.668,165.159,261.113z"/>
<path d="M418.57,181.159c0.858-2.048,2.297-3.073,4.317-3.073c1.068,0,2.147,0.488,3.238,1.464l2.995,3.168
	c1.3,1.368,2.473,2.332,3.518,2.89c0.72,0.395,1.468,0.697,2.245,0.905c0.779,0.209,1.585,0.314,2.42,0.314
	c0.095,0.022,0.141,0.103,0.141,0.241c0.022,0.118,0.151,0.176,0.383,0.176h7.209v-1.29c0.533,0.234,0.94,0.64,1.219,1.22
	c0.231,0.048,0.626,0.07,1.184,0.07h1.358c0.186,0.046,0.464,0.068,0.835,0.068h0.94l0.801-0.139
	c1.765-0.696,3.332-1.554,4.701-2.575c1.765-1.371,2.868-2.16,3.308-2.369c0.651-0.349,1.365-0.604,2.142-0.767
	c0.779-0.16,1.598-0.243,2.456-0.243c2.671,0,4.771,0.708,6.303,2.124l1.707,2.021c0.72,0.882,1.282,1.397,1.688,1.549
	c0.407,0.151,0.819,0.269,1.237,0.347c0.418,0.083,0.87,0.123,1.358,0.123l2.367,0.036c2.972,0,5.212,0.464,6.721,1.393l0.279-9.924
	l0.453,0.313l0.104,9.959c0.325,0.371,0.64,0.627,0.941,0.766v0.906l-1.045,0.521c0,5.458-0.151,8.358-0.453,8.707
	c0-2.251-0.069-4.283-0.209-6.094c-0.047-0.581-0.116-1.253-0.21-2.02c-0.115,0.326-0.19,0.561-0.226,0.698
	c-0.035,0.141-0.052,0.326-0.052,0.559c-0.604,0.374-1.812,0.956-3.621,1.747c-1.812,0.791-2.973,1.187-3.482,1.187
	c-0.325-0.046-0.598-0.07-0.819-0.07c-0.221,0-0.458,0-0.714,0h-1.845l-1.114,0.07l-1.15,0.175l1.288,2.935
	c1.603,0.489,2.404,1.246,2.404,2.271c0,0.465-0.232,0.965-0.697,1.5c-0.533,0.489-0.997,0.733-1.394,0.733
	c-0.557,0-1.102-0.244-1.636-0.733c-0.465-0.487-0.696-1.022-0.696-1.605c0.069-0.628,0.302-1.209,0.696-1.746l-1.984-3.456
	l-10.586-0.664l-10.03-1.221l-23.401-3.422c-0.812,0-1.334,0.255-1.567,0.765l-0.208,1.394c-0.186,0.487-0.511,0.731-0.976,0.731
	c-0.44-0.07-0.835-0.267-1.184-0.593v-1.496l1.219-0.592c0.139-0.071,0.418-0.233,0.836-0.488c0.162-0.093,0.268-0.163,0.313-0.209
	H422.4c-1.811,0-3.042-0.349-3.691-1.047c-0.626-0.746-0.94-2.015-0.94-3.809C417.769,183.975,418.037,182.508,418.57,181.159z"/>
<path d="M334.38,258.708l1.115-0.105c0.186-0.115,0.43-0.254,0.73-0.417c0.303-0.162,0.592-0.29,0.871-0.383l-3.76-8.673
	c0.115-0.161,0.186-0.271,0.207-0.329c0.023-0.058,0.047-0.12,0.07-0.191c1.439-0.349,2.322-0.522,2.648-0.522
	c0.857,0,1.438,0.115,1.74,0.349c4.898,4.596,8.104,7.685,9.609,9.262c0.258,0.186,0.57,0.337,0.941,0.454
	c1.299,0.231,2.299,0.348,2.994,0.348l1.08,0.523c0.488,0.231,0.824,0.347,1.01,0.347h35.832c0.303-0.084,0.582-0.199,0.836-0.347
	c0.326-0.209,0.57-0.314,0.732-0.314c0.186,0,0.475,0.115,0.871,0.348l0.66,0.313h0.906c0.859,0,1.428,0.048,1.705,0.139
	c0.93,0.416,1.547,0.749,1.848,1.004l2.682,0.381c1.555,0.346,2.332,0.819,2.332,1.418c0,0.691-1.125,1.35-3.379,1.972
	c-1.623,0.464-2.877,0.693-3.76,0.693l-20.164-0.209c-0.207,0-0.404,0.105-0.59,0.314l-0.314,0.313
	c-1.045,0.348-2.158,0.521-3.344,0.521l-1.846-0.243l-2.229-0.313l-4.109-0.594l-3.516,0.453l-8.148-0.661
	c-6.453-0.579-10.592-0.994-12.414-1.237c-1.824-0.242-2.955-0.491-3.396-0.748c-0.139-0.998-0.314-1.823-0.523-2.472
	c0.258,0.022,0.594,0.243,1.012,0.661c0.395-0.604,0.592-1.021,0.592-1.255c-0.604-0.113-1.139-0.179-1.604-0.191
	c-0.463-0.011-0.939-0.017-1.426-0.017C333.187,258.905,333.685,258.708,334.38,258.708z"/>
<path d="M3.216,178.424c-0.413-0.313-0.762-0.494-1.047-0.547c2.326-0.703,4.212-1.053,5.66-1.053h0.581h0.697l0.581,0.154
	c0.569,0.439,1.111,0.904,1.628,1.396c0.519,0.49,1.061,1.059,1.628,1.705c1.448,1.602,2.442,2.635,2.985,3.1
	c1.215,0.982,2.545,1.615,3.992,1.9l35.234,0.426l0.698-0.193l0.658-0.232c0.491,0,1.027,0.098,1.608,0.291s1.183,0.471,1.803,0.832
	l3.218,1.744c1.162,0.492,2.861,1.047,5.097,1.668c2.235,0.619,3.469,0.93,3.701,0.93h5.931v0.582h-6.124l-2.326,0.621
	c-4.807,0.723-9.884,1.084-15.233,1.084l-1.898-0.039l-3.373-0.078l-3.139,0.039l-0.194,0.156l1.899,1.279
	c-0.155,0.076-0.788,0.115-1.899,0.115h-0.504h-0.659h-7.907l-2.171-0.193l-2.17-0.232c-0.827,0-1.279,0.039-1.357,0.115
	l-0.93,0.543c-0.232,0.156-0.388,0.246-0.465,0.271c-0.078,0.027-0.194,0.064-0.35,0.117l-0.542-0.893
	c-0.104-0.104-0.917-0.154-2.442-0.154l-0.62-0.039l-0.931-0.039l-0.969,0.242l-0.892,0.602c-0.438,0.295-0.762,0.469-0.969,0.523
	c0-1.238-0.064-2.094-0.194-2.568h-2.209h-1.705h-0.388h-0.465c-0.905,0-1.745-0.49-2.521-1.473
	c-0.051,0.055-0.116,0.18-0.193,0.371l-0.271,0.25c-0.207-0.389-0.335-0.699-0.388-0.932l-5.465-0.814
	c-1.447-0.232-2.416-0.658-2.908-1.279l0.079-3.744c-0.414-0.676-1.073-1.016-1.978-1.016l-1.977-0.234L3.216,178.424z"/>
<path d="M248.487,246.972h6.512c0.953,0.418,1.672,0.777,2.159,1.079c0.186,0.094,0.569,0.139,1.149,0.139l1.184,0.176
	c0,0.487,0.035,0.8,0.105,0.94l4.04,2.82c2.646,1.788,4.185,2.723,4.614,2.804c0.429,0.08,1.154,0.121,2.176,0.121h0.487h1.463
	l0.244,1.602l2.368,0.523l1.811,0.348l20.128-1.603c0.511,0,1.009,0.064,1.497,0.192c0.488,0.127,1.044,0.319,1.672,0.574
	l2.855,1.394l1.113,0.765l3.517,0.663l4.075,1.288c1.672,0.579,2.59,0.871,2.75,0.871c1.162,0,2.003,0.012,2.525,0.034
	c0.523,0.023,0.878,0.059,1.063,0.104l-4.701,0.417c-2.299,0.721-4.347,1.243-6.146,1.566c-1.799,0.327-3.277,0.488-4.439,0.488
	c-0.395,0.257-0.674,0.385-0.836,0.385c-0.208,0-0.487-0.076-0.836-0.227c-0.348-0.151-0.638-0.227-0.871-0.227
	c-0.161,0-0.37,0.011-0.626,0.035c-0.255,0.023-0.44,0.033-0.558,0.033h-0.627l-5.119,0.174c-0.23,0.024-0.545,0.14-0.939,0.35
	c-0.396,0.208-0.65,0.314-0.766,0.314l-1.149-0.279c-0.487-0.141-0.859-0.209-1.114-0.209c-0.439,0-0.767,0.138-0.975,0.417v0.871
	h-13.095c-0.069-0.627-0.127-0.964-0.175-1.01h-0.835c-0.302,0.303-1.079,0.453-2.333,0.453c-4.271,0-7.662-0.243-10.168-0.731
	c-4.155-0.838-6.768-1.255-7.835-1.255l-0.313-0.452c0.372-0.232,0.953-0.418,1.742-0.557c0.79-0.209,1.37-0.419,1.741-0.627
	l-0.244-1.045c0.07-0.581,0.372-0.871,0.905-0.871c0.093,0,0.17,0.03,0.228,0.088c0.057,0.058,0.086,0.099,0.086,0.122
	c0.047,0.023,0.14,0.034,0.279,0.034l1.498-0.557l-3.169-0.663c-3.157-4.223-5.468-7.173-6.931-8.846
	c-0.208-0.067-0.521-0.103-0.939-0.103l0.069-1.464l-0.208-0.174l-0.105-0.488V246.972z"/>
<path d="M4.273,225.747c0.163-0.094,0.359-0.197,0.594-0.314l1.461-7.383c0.604-3.11,1.175-5.56,1.706-7.348
	c0.233-0.672,0.802-1.01,1.707-1.01c0.952,0,1.614,0.325,1.984,0.975c1.068,1.88,1.834,3.257,2.299,4.127
	c0.465,0.872,1.011,1.91,1.638,3.116c0.324,0.628,0.556,1.081,0.694,1.358c0.279,0.604,0.523,1.127,0.731,1.566
	c0.581,1.139,1.22,1.916,1.916,2.333c0.883,0.559,1.975,0.906,3.275,1.047l3.271,0.347c4.389,0.72,7.093,1.08,8.114,1.08
	c1.068,0,2.379-0.249,3.936-0.748c1.555-0.5,2.752-0.749,3.587-0.749l5.188,0.767l5.188,0.73c0.186-0.906,0.337-1.904,0.452-2.996
	c0.116,0.188,0.175,0.616,0.175,1.29c0,0.303,0.022,0.581,0.069,0.836c0.046,0.256,0.094,0.452,0.139,0.592l7.069-0.069l1.985-0.141
	l1.846-0.104c0.79,0,1.563,0.169,2.316,0.506c0.755,0.336,1.467,0.781,2.141,1.34c0.232,0.209,0.608,0.649,1.131,1.323
	c0.524,0.674,0.936,1.104,1.238,1.288l1.775,0.87c0.72,0.35,1.253,0.696,1.603,1.047v1.392c-0.534,0.44-1.349,0.939-2.439,1.498
	c-1.23,0.648-2.076,0.974-2.54,0.974H30.669c-0.231-0.068-0.638-0.207-1.218-0.418c-0.929-0.324-1.637-0.591-2.125-0.801
	c-2.136-0.857-3.459-1.287-3.97-1.287c-0.812-0.86-2.031-1.614-3.657-2.264l-4.179-1.673l-1.358-0.729
	c-0.511-0.302-0.934-0.494-1.271-0.575c-0.336-0.081-1.689-0.257-4.057-0.523c-2.369-0.267-4.074-0.563-5.12-0.888
	C3.926,225.967,4.112,225.839,4.273,225.747z"/>
<path d="M5.509,245.05h15.742l-4.701,1.357c0.487,0.627,1.194,1.754,2.123,3.379c0.931,1.624,1.66,2.762,2.195,3.41
	c0.857,1.092,1.799,1.904,2.819,2.439c1.673,0.835,4.261,1.252,7.767,1.252l3.343-0.103c0.905,0,1.476-0.035,1.705-0.105
	c-0.091,0-0.196,0-0.312,0l0.765-0.104l2.404-0.384c1.114-0.209,1.892-0.342,2.332-0.4c0.442-0.059,0.731-0.088,0.871-0.088h6.581
	c0.069-0.464,0.104-0.87,0.104-1.218c0-0.35-0.01-0.593-0.035-0.731c0.652-0.765,1.949-1.241,3.901-1.428
	c0.813-0.023,1.655-0.046,2.524-0.069c0.871-0.022,1.922-0.035,3.152-0.035h4.874l0.35,0.313c0,2.09,0.068,3.483,0.207,4.18
	c1.556,0,2.718,0.279,3.482,0.836l3.413,2.333c1.904,1.394,2.854,2.357,2.854,2.891c0,0.628-0.445,1.144-1.341,1.549
	c-0.893,0.407-2.152,0.61-3.777,0.61c-0.696,0-1.851,0.046-3.465,0.139c-1.613,0.093-2.524,0.139-2.732,0.139
	c-0.581,0.149-0.999,0.384-1.255,0.705c-0.302-0.493-1.102-0.738-2.402-0.738l-3.31-0.034c-0.254,0-0.661,0.075-1.218,0.225
	c-0.558,0.151-0.976,0.227-1.255,0.227l-7.973,0.036c-5.061,0-8.568-0.093-10.518-0.279c-3.227-0.418-7.103-1.428-11.631-3.03
	l-6.616-2.576c-1.484-0.558-2.717-0.963-3.69-1.219c-1.255-0.325-2.379-0.488-3.379-0.488l-0.313-0.347
	c0.325-0.351,0.592-0.587,0.8-0.715c0.209-0.129,0.522-0.284,0.94-0.471c-0.557-3.134-2.193-6.441-4.909-9.925l-1.708-0.452
	l-0.104-0.559C4.862,245.224,5.325,245.05,5.509,245.05z"/>
<path d="M89.385,178.267c0.696,0,3.018,1.306,6.964,3.917l6.373,4.302l12.466,0.209h1.427h0.627l0.14-0.209l0.488-0.419l0.452,0.21
	c0.256,0.139,0.465,0.209,0.626,0.209c1.323-0.209,2.067-0.319,2.229-0.331c0.163-0.013,0.522-0.019,1.08-0.019
	c2.066-0.254,3.564-0.382,4.492-0.382c0.047-0.023,0.087-0.093,0.122-0.209c0.034-0.116,0.156-0.174,0.366-0.174
	c0.325,0.068,0.487,0.196,0.487,0.383c0.884,0,1.939,0.088,3.169,0.262c1.231,0.173,2.52,0.435,3.866,0.782
	c2.135,0.813,3.471,1.358,4.004,1.638c6.06,1.602,10.726,2.785,13.999,3.551c-0.557,0.251-1.601,0.568-3.134,0.955
	c-0.766,0.203-1.427,0.351-1.984,0.442c-0.558,0.091-0.963,0.137-1.219,0.137h-7l-4.806-0.105l-4.736-0.106
	c-0.208,0-0.342,0.071-0.401,0.212c-0.057,0.138-0.156,0.206-0.295,0.206h-7.244c-0.649,0-1.683-0.104-3.099-0.312
	c-1.416-0.209-2.46-0.314-3.134-0.314h-10.133c-0.255,0.022-0.453,0.097-0.593,0.227l-0.313,0.193l-19.326-2.648l0.104-0.521
	c0.511-0.303,0.767-0.64,0.767-1.012c0-0.998-0.291-1.531-0.871-1.602c0.186-0.232,0.36-0.395,0.522-0.488
	c-0.163-0.838-0.58-2.471-1.254-4.894c-0.302-1.002-0.51-1.84-0.627-2.516c-0.115-0.678-0.174-1.2-0.174-1.574H89.385z"/>
<path d="M7.123,291.269c-0.486-2.369-0.8-4.075-0.94-5.12l-0.452-1.045l1.219-0.905c0.745-0.511,1.404-0.767,1.985-0.767
	c0.302,0.093,1.916,0.987,4.841,2.681c3.39,1.975,5.954,3.274,7.696,3.901c1.879,0.721,4.688,1.428,8.426,2.124
	c1.788,0.349,3.094,0.587,3.918,0.713c0.825,0.129,1.354,0.193,1.585,0.193c0.442,0,0.777-0.115,1.011-0.35
	c-0.256-0.694-0.384-1.333-0.384-1.914l0.73,1.357c0.396,0.604,0.745,0.906,1.045,0.906l19.813-0.209l3.901,1.775l6.479,2.264
	c3.04,0.905,5.188,1.358,6.44,1.358h-0.73c0,0.86-0.244,1.346-0.73,1.462l-2.962,0.105l-4.979-0.105l-24.132,0.452l-0.593,0.245
	l-0.592,0.208h-7.034c-0.21,0-0.385-0.073-0.523-0.227c-0.138-0.151-0.289-0.227-0.452-0.227c-2.159,0-3.882,0.048-5.172,0.143
	c-1.288,0.093-2.256,0.229-2.907,0.403c-0.649,0.178-1.393,0.406-2.228,0.686c-0.836,0.281-1.799,0.634-2.892,1.056l-3.273,1.196
	c-0.255,0-1.358-0.245-3.308-0.735l-0.035-2.553l-2.158-0.735c-0.141-0.442-0.522-0.804-1.149-1.083
	c-0.047-0.373-0.105-0.841-0.175-1.399c-0.069-0.561-0.104-1.015-0.104-1.364c-1.114,0-2.089-0.104-2.925-0.314
	c0.372-0.115,0.79-0.208,1.254-0.278c0.464-0.068,1.021-0.104,1.671-0.104c0.279-0.418,0.488-0.661,0.627-0.732l-2.159-0.835
	c-0.789-0.301-1.289-0.802-1.498-1.496C6.16,291.581,6.775,291.336,7.123,291.269z"/>
<path d="M164.706,326.195c1.578-0.382,2.697-0.61,3.357-0.687l-0.458-3.55c-0.152-0.914-0.26-1.723-0.324-2.422
	c-0.063-0.7-0.096-1.479-0.096-2.346h1.375c0.482,0,1.12,0.355,1.907,1.067l3.891,3.51c1.68,1.477,2.914,2.468,3.701,2.976
	c0.459,0.283,1.019,0.421,1.68,0.421h1.716c-0.051,0.126-0.107,0.229-0.171,0.305c-0.063,0.077-0.146,0.166-0.248,0.268l2.327,0.152
	l0.229-0.268c0.077-0.101,0.229-0.152,0.458-0.152c0.228,0,0.342,0.077,0.342,0.229c0,0.128,0.077,0.19,0.23,0.19h9.5l0.458-0.152
	l0.191-0.229l9.232,0.229l1.641,0.152h1.373c1.12,0,2.575-0.185,4.369-0.553c1.793-0.369,3.072-0.553,3.834-0.553
	c0.637,0,1.292,0.096,1.966,0.286c0.674,0.19,1.354,0.463,2.041,0.819c0.687,0.357,1.666,1.044,2.938,2.061
	c0.916,0.738,1.551,1.107,1.907,1.107l0.458-0.154c0-0.271-0.077-0.473-0.229-0.608l0.497,0.072c-0.051,0.077-0.077,0.2-0.077,0.376
	l0.077,0.408c0.432,0.251,0.827,0.376,1.182,0.376c0.23-0.051,0.396-0.088,0.497-0.112c0.102-0.027,0.153-0.05,0.153-0.075
	c0.127,0.1,0.242,0.188,0.344,0.262c0.33,0.247,0.648,0.498,0.953,0.746c0.839,0.673,1.533,1.06,2.08,1.159
	c0.547,0.101,1.259,0.186,2.136,0.262c0.878,0.074,1.953,0.11,3.225,0.11l5.722,0.191l-8.05,0.114h-2.06l-0.955,0.078
	c-1.145,0.433-2.887,0.826-5.226,1.182c-1.221,0.204-2.238,0.345-3.053,0.419c-0.813,0.077-1.576,0.115-2.289,0.115h-12.018
	c-0.204,0.358-0.382,0.639-0.534,0.843c-0.05,0.077-0.114,0.153-0.191,0.231l-5.723,0.956l-8.699-0.764
	c-0.382-0.921-0.609-1.57-0.686-1.954h-3.167l-3.625-0.571l-0.343-0.077l-4.005-0.686l-10.798,0.113
	c-0.126-0.195-0.273-0.589-0.438-1.177c-0.166-0.59-0.311-0.986-0.439-1.188l-0.229,0.114l-0.535,0.113
	c-0.737-0.076-1.107-0.406-1.107-0.992l0.192-0.646l0.153-0.574l-0.077-0.267c-1.272,0-2.098-0.088-2.479-0.269V326.195z"/>
<path d="M250.002,331.168c0.361-0.117,0.697-0.216,1.01-0.296c0.313-0.081,0.766-0.222,1.358-0.418
	c0.592-0.198,0.946-0.319,1.063-0.367c0-0.579-0.187-0.961-0.558-1.147c-0.556-0.163-1.032-0.245-1.428-0.245l-1.636-0.277
	c0.279-0.256,0.661-0.466,1.148-0.626l1.254-0.35c-0.905-2.321-1.601-3.795-2.089-4.422c0.302-0.511,0.744-0.767,1.323-0.767
	c1.671,0,3.169,0.568,4.493,1.705l3.551,3.171c1.58,1.137,3.425,1.706,5.538,1.706l6.826,0.174l6.79,0.141h7.697
	c0.371,0,0.904,0.103,1.602,0.313c0.417,0.117,0.707,0.19,0.869,0.225c0.163,0.036,0.396,0.053,0.697,0.053l11.492-1.219
	c1.949,0,3.656,0.244,5.119,0.731l1.775,0.802c0.371,0.187,0.684,0.338,0.94,0.451c0.255,0.118,0.546,0.233,0.87,0.349
	c1.695,0.512,4.411,1.186,8.148,2.021l-6.338,0.767l-4.248,0.556l-23.506-0.313c-0.417,0.999-0.73,1.498-0.938,1.498
	c-2.855,0.418-6.095,0.626-9.716,0.626c-1.184,0-2.473-0.058-3.866-0.174c-1.392-0.116-2.878-0.279-4.457-0.487
	c0-0.371-0.029-0.697-0.087-0.976c-0.058-0.277-0.109-0.441-0.156-0.487c-0.325,0-0.649,0-0.975,0h-0.801
	c-5.061,0-9.773-0.743-14.138-2.229C249.184,331.446,249.642,331.285,250.002,331.168z"/>
<path d="M333.337,315.566h5.188c0.209,0.07,1.58,1.278,4.107,3.622c1.512,1.394,2.787,2.515,3.832,3.36
	c1.045,0.848,1.963,1.503,2.75,1.969c0.791,0.463,1.848,0.8,3.17,1.009l3.238,0.453c1.068,0.21,1.973,0.361,2.717,0.452
	c0.742,0.094,1.301,0.141,1.67,0.141c5.805,0,9.717-0.244,11.736-0.732l3.795-0.94c0.908-0.208,1.732-0.359,2.475-0.452
	c0.742-0.092,1.404-0.139,1.984-0.139c1.416,0,2.686,0.086,3.813,0.262c1.127,0.174,2.072,0.423,2.838,0.747
	c0.188,0.07,0.553,0.314,1.096,0.731c0.549,0.418,0.926,0.639,1.133,0.662c4.318,1.091,8.729,2.125,13.234,3.101l-1.984,0.173
	c-1.744,0.72-4.934,1.08-9.578,1.08l-3.482-0.139l-3.482-0.105h-1.393c-0.557,0.188-1.045,0.528-1.461,1.021
	c-0.141,1.312-0.258,2.086-0.35,2.321l-25.666-0.418c-0.51,0-1.045,0.376-1.602,1.129c-0.604,0.756-1.078,1.135-1.426,1.135
	l-1.848-0.39c-1.184-0.33-1.984-0.517-2.402-0.564c0-0.471-0.125-0.988-0.383-1.553c-0.465,0.163-1.09,0.243-1.881,0.243
	l-5.955-0.279l-1.6-0.765l-2.752-0.593v-3.69c1.439-0.442,2.635-0.731,3.588-0.872c-0.326-0.208-0.627-0.313-0.906-0.313v-1.775
	l0.869-0.593c-0.486-0.581-1.414-2.113-2.785-4.596c-1.115-2.042-2.053-3.425-2.82-4.145L333.337,315.566z"/>
<path d="M13.903,329.95c0-1.602-0.07-3.388-0.209-5.362c-0.14-1.973-0.21-3.157-0.21-3.552c1.649-0.998,2.555-1.498,2.718-1.498
	c0.231,0,0.639,0.43,1.218,1.288c0.674,0.93,1.196,1.51,1.567,1.742c0.256,0.067,0.836,0.105,1.74,0.105h0.419
	c-0.744,0.44-1.29,0.694-1.637,0.765l2.611,3.308c1.045,1.254,1.964,1.846,2.751,1.778v1.114c-0.139,0-0.208,0.103-0.208,0.312
	l27.754-4.283l2.995,0.314c1.207,0.276,2.553,0.87,4.039,1.775c0.14,0.022,0.372,0.07,0.696,0.139c0.324,0,0.639,0,0.94,0h0.452
	l0.453,0.558c2.646,0.488,4.457,0.871,5.433,1.149c1.95,0.557,3.504,1.253,4.666,2.089l0.069,0.487
	c-0.743,0.35-1.538,0.621-2.386,0.819c-0.848,0.196-1.78,0.295-2.802,0.295c-0.418,0-1.22,0.024-2.403,0.07
	c-1.184,0.047-2.172,0.07-2.961,0.07c-0.835,0-2.217-0.041-4.143-0.123c-1.927-0.081-3.32-0.121-4.181-0.121l-4.039-0.418
	c-0.465-0.048-1.057-0.104-1.775-0.176c-0.719-0.067-1.381-0.103-1.984-0.103c-0.581,0-1.58,0.314-2.996,0.94l-2.122,0.81
	c-0.212,0.136-0.35,0.329-0.42,0.577l-0.277,0.71l-8.881,0.236c-0.302,0-0.998-0.035-2.09-0.104
	c-1.091-0.071-2.02-0.105-2.784-0.105c-0.837,0-1.614-0.022-2.334-0.068c-0.72-0.047-1.566-0.105-2.542-0.176
	c-0.187,0.07-0.378,0.205-0.574,0.401c-0.198,0.197-0.399,0.295-0.611,0.295l-1.322-0.242c-0.209-0.047-0.464-0.104-0.767-0.176
	c-0.3-0.067-0.556-0.103-0.766-0.103l-0.661-0.523c-0.139-0.115-1.242-0.174-3.31-0.174l-4.316-0.94
	c-0.069-0.558-0.128-0.858-0.174-0.904c-0.256,0.162-0.72,0.243-1.394,0.243c-0.301,0-0.645-0.035-1.028-0.105
	c-0.382-0.068-0.782-0.161-1.2-0.276c-1.092-0.303-1.707-0.629-1.846-0.977C7.787,330.925,11.396,330.299,13.903,329.95z"/>
<path d="M83.708,321.069c0.069-1.021,0.104-2.031,0.104-3.03c0.232-0.626,0.441-1.09,0.627-1.392
	c0.765-0.487,1.625-0.731,2.576-0.731c1.3,0,2.229,0.817,2.786,2.455c0.557,1.637,0.952,2.954,1.185,3.953
	c0.302,0.742,2.216,1.555,5.746,2.437c3.134,0.789,5.396,1.186,6.79,1.186l4.354-0.594c1.695-0.231,2.716-0.372,3.064-0.418
	c1.625-0.208,2.739-0.314,3.342-0.314c0.187,0.048,0.627,0.071,1.324,0.071h1.67c1.348,0,2.346-0.081,2.996-0.244l5.014-1.531
	c2.114-0.65,3.704-0.976,4.771-0.976c0.905,0,1.498,0.034,1.775,0.104l0.662,0.418l0.626,0.382l-0.104-3.028l-0.104-3.03l1.01,5.292
	c0.023,0.304,0.313,0.453,0.871,0.453c0.302-0.046,0.667-0.104,1.097-0.174c0.429-0.068,0.771-0.104,1.026-0.104l2.021-0.313
	c0.998,0,2.112,0.487,3.343,1.463c0.79,0.627,1.822,1.612,3.1,2.96c1.276,1.346,2.333,2.31,3.168,2.891
	c-0.766,0.857-1.764,1.461-2.995,1.811l-2.75,0.835v1.254h9.019c0.348,0.069,0.604,0.162,0.766,0.278l0.557,0.626v1.29l-0.94,0.661
	h-30.783c-0.233-0.115-0.454-0.314-0.662-0.591c-0.209-0.279-0.314-0.523-0.314-0.732c0.465-0.628,0.848-1.092,1.149-1.394
	l-0.487-0.452h-9.716l-0.731-0.278c-0.302-0.187-0.534-0.279-0.697-0.279c-0.278,0-0.545,0.104-0.801,0.314l-0.696,0.522
	c-0.07-0.488-0.255-0.837-0.558-1.046c-1.787,0-3.754-0.151-5.902-0.451c-2.147-0.302-4.184-0.605-6.112-0.907l-4.561-0.73
	c-0.326,0.069-0.529,0.134-0.611,0.192c-0.081,0.058-0.213,0.085-0.4,0.085c-0.509-0.067-1.403-0.288-2.681-0.661l-3.761-1.079
	c-0.302-0.533-0.453-1.579-0.453-3.134C83.429,325.226,83.523,323.785,83.708,321.069z"/>
  
</svg>
