<?xml version="1.0" encoding="UTF-8" standalone="no"?>
<svg version="1.1" xmlns="http://www.w3.org/2000/svg" xmlns:xlink="http://www.w3.org/1999/xlink" top="0" left="0">

  <path
     d="M 439.48098,95.969555 L 393.34268,142.46481 L 305.91233,133.41187 L 324.72376,114.58551 L 308.61525,98.464215 L 276.15845,130.94677 L 185.25346,123.08136 L 201.15145,107.27643 L 186.46085,92.574165 L 158.32,120.73735 L 45.386032,112.12042 L 15.000017,131.66667 L 221.20641,192.48691 L 298.26133,237.01135 L 191.91028,345.62828 L 152.82697,408.6082 L 41.549634,393.05411 L 21.037984,413.58203 L 109.25334,470.93369 L 166.38515,558.95725 L 186.8968,538.42933 L 171.35503,427.06371 L 234.28504,387.94939 L 342.81586,281.51396 L 387.305,358.63003 L 448.07703,565.00001 L 467.60778,534.58989 L 458.99769,421.56633 L 487.16033,393.38134 L 473.14247,379.35235 L 456.6139,395.97492 L 448.79636,303.63439 L 481.25315,271.15184 L 465.14464,255.03055 L 446.33321,273.8569 L 436.04766,185.1164 L 482.35108,138.7864 C 501.1942,119.92833 560.62425,61.834815 564.99998,14.999985 C 515.28999,23.707295 476.1521,61.495405 439.48098,95.969555 z "     
     />
  
</svg>
