<?xml version="1.0" encoding="UTF-8" standalone="no"?>
<svg version="1.1" xmlns="http://www.w3.org/2000/svg" xmlns:xlink="http://www.w3.org/1999/xlink" top="0" left="0">
  <defs>
    <path id="planePart200" d="M -7.057,24.54 C -7.057,24.54 1.588,24.5 2.448,23.2 5.361,16.6 13.2,10.01 14.89,3.819 20.79,2.331 31.37,2.626 31.37,2.626 31.37,2.626 39.54,2.183 41.58,-0.3797 18.51,-0.4731 -30.28,-0.6378 -30.28,-0.6378 L -31.15,0.9105 -27.13,2.49 -29.34,9.628 C -29.34,9.628 -25.65,11.42 -23.89,10.89 -20.5,9.805 -18.34,3.409 -18.34,3.409 L -2.049,3.994 z" style="fill:#000;" />

  <path id="planePart300" d="M 7.29,33.3 C 6.96,33.3 6.2,33.1 5,32.7 4.67,31.5 4.09,28.8 3.26,24.7 L 0.961,13.3 C 0.836,12.6 0.588,11.5 0.215,9.85 -0.032,9.6 -0.364,9.12 -0.776,8.42 L -0.59,8.11 -0.406,7.86 -0.777,7.49 C -0.777,7.41 -0.716,7.27 -0.591,7.09 -0.468,6.9 -0.407,6.71 -0.407,6.5 -0.408,5.01 -0.926,4.04 -1.96,3.59 -2.45,3.38 -4.23,3.2 -7.29,3.04 -8.53,2.99 -10.4,2.91 -13,2.79 -13.4,3.78 -13.9,5.24 -14.7,7.16 -15.4,9.08 -16.3,10.1 -17.4,10.1 -19.1,10.1 -19.9,8.93 -19.9,6.45 L -19.9,1.31 C -20.2,1.1 -21.4,0.19 -21.4,0.19 -15.2,-0.02 25.2,-0.029 25.2,-0.029 25.2,-0.029 24.3,1.26 22.6,1.84 21.6,2.21 20.4,2.46 19,2.59 18.9,2.87 18.6,3.14 18.3,3.39 L 18.2,3.39 C 18,3.39 17.6,3.24 16.8,2.96 14,2.96 12,3.02 10.7,3.15 10.2,3.15 9.78,3.5 9.45,4.2 9.2,4.78 9.07,5.38 9.08,6 10.5,5.75 11.7,5.62 12.5,5.62 13.3,5.62 13.9,5.75 14.2,5.99 14.2,5.66 14.3,5 14.5,4.01 14.7,4.22 14.7,4.88 14.7,5.99 14.7,6.82 15,7.38 15.5,7.67 15.4,8.04 15.2,8.35 14.8,8.6 14.8,9.55 14.7,10.7 14.5,12.1 14.4,11.4 14.3,10.5 14.1,9.53 13.8,9.69 12.7,9.78 11,9.78 L 9.26,9.78 9.2,9.59 9.22,32.4 8.85,32.9 C 8.27,33.1 7.75,33.2 7.29,33.3 z" style="fill:#000;" />

  <path id="planePart400" d="M 2.57,22.9 C 0,22.9 -2.84,22.7 -5.98,22.2 -6.1,22.1 -6.25,21.8 -6.41,21.5 -6.12,21.5 -5.68,21.4 -5.08,21.3 -4.48,21.2 -4.03,21.1 -3.74,21.1 -3.21,21.1 -2.84,21.2 -2.63,21.5 L -2.56,2.84 C -4.17,2.83 -6.15,2.7 -8.51,2.45 -8.63,2.69 -9.07,2.82 -9.81,2.81 -10.6,2.81 -11.5,2.77 -12.6,2.68 -13,4.04 -13.6,6.02 -14.5,8.62 -15.4,8.91 -16.4,9.05 -17.3,9.04 L -18.6,9.04 -18.6,1.36 C -19.6,0.983 -20.1,-0.117 -20.1,-0.117 L 25.3,0.084 C 25.3,0.084 22.8,2.09 17.8,2.49 15.8,2.64 12.7,2.72 8.78,2.7 L 8.78,3.26 C 8.78,3.84 8.69,4.35 8.53,4.81 8.24,4.8 7.85,4.89 7.35,5.05 7.35,5.67 7.21,6.41 6.94,7.28 6.66,8.15 6.49,8.91 6.4,9.57 6.4,9.94 6.46,10.3 6.58,10.7 6.38,10.7 6.15,11.1 5.9,11.8 5.81,12.3 5.71,12.8 5.58,13.2 5.71,13.2 5.87,13.3 6.08,13.5 5.87,13.7 5.6,14.1 5.27,14.7 5.22,14.9 5.1,15.6 4.89,16.6 4.97,16.7 5.13,17 5.38,17.3 5.17,17.5 4.95,17.7 4.7,17.8 4.61,18.4 4.42,19.3 4.13,20.5 L 4.44,20.9 6.6,21.1 C 7.47,21.2 8.13,21.5 8.58,21.7 8.21,22.5 6.2,22.9 2.57,22.9 z" style="fill:#000" />

  <path id="planePart500" d="M -5.9007,16.908 C -6.8623,16.956 -8.172,16.707 -9.8301,16.172 -9.436,15.155 -7.4226,12.584 -3.7884,8.4445 -4.5701,8.3387 -5.3198,8.117 -6.0166,7.8051 L -6.0109,5.407 C -5.2179,5.242 -4.0026,5.1697 -2.3436,5.1749 -2.3006,4.8525 -2.2466,4.3768 -2.2028,3.7451 -2.2015,3.152 -2.338,2.7768 -2.5912,2.6222 -4.1645,2.1387 -6.9642,1.8847 -10.98,1.8705 -12.332,1.8653 -13.178,1.9144 -13.526,2.0162 -16.418,4.5716 -18.323,5.8414 -19.232,5.8376 -19.623,5.8363 -20.024,5.7576 -20.414,5.5887 -20.413,5.1633 -19.406,3.7361 -17.393,1.2928 -17.434,1.0737 -18.29,0.7488 -19.937,0.3169 -18.764,0.32205 -17.96,0.27307 -17.517,0.17121 L -17.452,-0.30582 28.312,-0.29162 C 28.312,-0.29162 25.035,0.7978 22.942,1.2671 21.409,1.5843 19.686,1.9517 17.762,2.3708 15.584,2.6853 12.635,2.7781 8.9264,2.6622 7.9214,3.4061 6.9366,4.3317 5.9719,5.4495 7.5463,5.4547 9.0891,5.563 10.621,5.7757 L 10.616,7.7741 C 8.5238,7.7664 5.7863,8.0268 2.4248,8.5437 2.1704,8.9176 1.6614,9.6113 0.9194,10.614 2.3988,10.619 3.8882,10.767 5.3671,11.03 3.4967,11.023 1.8588,11.043 0.46385,11.103 0.01843,11.785 -0.98839,13.031 -2.5672,14.845 -1.0772,14.85 0.48636,14.984 2.1553,15.26 0.31645,15.358 -1.5438,15.531 -3.4148,15.796 -3.8073,16.491 -4.643,16.86 -5.9007,16.908 z" />

  <path id="planePart600" d="M -5.8835,16.051 C -6.6286,16.05 -8.032,15.85 -10.097,15.43 -8.9802,13.62 -6.4615,9.669 -2.5349,3.5987 L -2.4729,3.2282 C -3.3409,3.0983 -5.8406,2.9183 -9.9717,2.6673 -10.55,3.2066 -11.457,4.0074 -12.698,5.0865 -13.772,5.867 -14.846,6.2764 -15.92,6.3258 -16.622,6.3662 -17.387,6.3261 -18.213,6.1955 -18.088,5.8655 -17.49,5.0162 -16.416,3.6558 -15.547,2.5467 -15.113,1.7761 -15.113,1.3661 -15.113,1.0761 -15.196,0.82646 -15.361,0.6263 -16.023,0.62601 -16.683,0.53581 -17.343,0.37665 -17.054,0.32599 -15.361,-0.22241 -15.361,-0.22241 L 28.386,-0.15079 C 28.386,-0.15079 27.372,1.3338 26.589,1.4935 26.422,1.5342 24.976,1.6636 22.251,1.8628 L 17.107,2.3017 16.983,3.2318 15.744,3.2319 C 14.216,3.2316 13.204,3.1916 12.707,3.1016 11.551,3.1013 10.601,3.2707 9.8575,3.6008 9.4019,3.8012 6.8609,6.0399 2.2348,10.292 L 2.2348,10.662 C 0.08454,12.811 -1.7324,14.421 -3.2191,15.501 -3.758,15.871 -4.6445,16.051 -5.8835,16.051 z" />

    <g id="airplane200">
      <use xlink:href="#planePart200" />
      <use xlink:href="#planePart200" transform="scale(1, -1) " />
    </g>

    <g id="airplane300">
      <use xlink:href="#planePart300" />
      <use xlink:href="#planePart300" transform="scale(1, -1) " />
    </g>

    <g id="airplane400">
      <use xlink:href="#planePart400" />
      <use xlink:href="#planePart400" transform="scale(1, -1) " />
    </g>

    <g id="airplane500">
      <use xlink:href="#planePart500" />
      <use xlink:href="#planePart500" transform="scale(1, -1) " />
    </g>

    <g id="airplane600">
      <use xlink:href="#planePart600" />
      <use xlink:href="#planePart600" transform="scale(1, -1) " />
    </g>

    <path id="trap"
       stroke-dasharray="10,10"
       style="fill:none;stroke:#555"
       d="M 2.714,96.4 C 2.714,96.4 1222,54.23 1224,421.1 1226,788 345.6,779.3 342.7,415 339.8,50.69 1505,96.4 1505,96.4" /> 
  </defs>

  <path style="fill:none;stroke:#ddd;stroke-width:70px;stroke-linecap:butt;stroke-linejoin:miter;stroke-opacity:1" d="M0,100 L200,100" />
  <path style="fill:none;stroke:#ddd;stroke-width:70px;stroke-linecap:butt;stroke-linejoin:miter;stroke-opacity:1" d="M1200,100 L1500,100" />
  <use xlink:href="#trap" />

  <g id="airplaneList">
    <use x="90" y="200" xlink:href="#airplane200"/>
    <use x="90" y="300" xlink:href="#airplane300"/>
    <use x="90" y="400" xlink:href="#airplane400"/>
    <use x="90" y="500" xlink:href="#airplane500"/>
    <use x="90" y="600" xlink:href="#airplane600"/>
  </g>

  <g id="animationFrame">
  </g>

  <script xlink:href="airplane.js"></script>  

</svg>
