<?xml version="1.0" encoding="UTF-8"?>
<!DOCTYPE svg PUBLIC "-//W3C//DTD SVG 1.1//EN" "http://www.w3.org/Graphics/SVG/1.1/DTD/svg11.dtd">
<svg version="1.1" xmlns="http://www.w3.org/2000/svg" xmlns:xlink="http://www.w3.org/1999/xlink" top="0" left="0">
<title>Butterfly</title>

<defs>

    <g id="butterfly1">
      <use x="17" y="-43" xlink:href="#leftHand"/>
      <use x="23" y="-43" xlink:href="#rightHand"/>
      <use xlink:href="#body"/>
      <use x="21" y="15" xlink:href="#rightWing"/>
      <use x="19" y="15" xlink:href="#leftWing"/>
    </g>

    <path id="rightWing" d="M 100,66 C 150,166 0,166 0,66 0,66 0,66 0,16 200,-133 200,-33 100,66z" style="fill:#000" />
    <use id="leftWing" xlink:href="#rightWing" transform="scale(-1, 1)" />
    <path id="body" d="M 25,21 C 35,46 27,131 20,131 12,132 5,46 15,21 0,11 0,2 20,1 40,2 40,11 25,21 z" />
    <path id="rightHand" d="M 0,45 C 5,10 45,0 45,0" style="fill:none;stroke:#000;stroke-width:2" />
    <use id="leftHand" xlink:href="#rightHand" transform="scale(-1, 1)" />


    <g id="butterfly2">
      <use x="17" y="-43" xlink:href="#leftHand"/>
      <use x="23" y="-43" xlink:href="#rightHand"/>
      <use xlink:href="#body"/>
      <use x="19" y="15" xlink:href="#leftWingBF2"/>
      <use x="21" y="15" xlink:href="#rightWingBF2"/>
    </g>

    <use id="leftWingBF2" xlink:href="#rightWingBF2" transform="scale(-1, 1)" />
    <path id="rightWingBF2" d="M 24.17,-2.27 C 31.89,-7.6 58.66,-28.71 104.9,-38.3 151.2,-47.9 148.3,-9.53 146.7,9.24 144.9,28 140.4,54.2 121.8,54 103.3,53.6 101.6,54 101.6,54 101.6,54 122,65.7 122.5,72.2 123.1,78.4 120.2,83.9 121.6,85.5 123.3,87.3 125.8,89.6 121,90.5 116.1,91.3 113.5,96.4 112.4,98.6 111.1,100.7 110.9,106 114.3,108.3 117.4,110.9 124.2,115.2 124.2,116.9 124.2,118.6 121,118.6 112.2,113.7 112.2,113.7 108.3,111.3 106.5,112.7 104.5,113.9 97.8,118.9 100.9,122.4 104.2,126.1 108.6,130.6 113,133.4 117.4,136.1 123.1,139.3 123.3,142.1 123.6,145.1 114.8,141.9 109.3,136.3 103.9,130.6 97,127.2 90.04,131.1 83.29,135.2 83.5,138 84.73,139.7 85.68,141.2 87.86,146.3 83.5,145.5 79.17,144.4 79.89,141.2 75.56,139.7 71.21,138 65.67,141.2 63.5,143.1 61.32,145.1 61.55,151.3 61.55,153.2 61.55,155.3 54.32,161.5 52.15,151.3 49.97,140.8 50.71,132 45.13,128 39.37,123.9 21.26,114.8 14.99,104.9 8.71,95.2 5.11,85.5 4.62,82.6 2.623,7.5 -5.965,19.99 24.17,-2.27 z" />

    <g id="butterfly3">
      <use x="17" y="-43" xlink:href="#leftHand"/>
      <use x="23" y="-43" xlink:href="#rightHand"/>
      <use xlink:href="#body"/>
      <use x="19" y="15" xlink:href="#leftWingBF3"/>
      <use x="21" y="15" xlink:href="#rightWingBF3"/>
    </g>

    <use id="leftWingBF3" xlink:href="#rightWingBF3" transform="scale(-1, 1)" />
    <path id="rightWingBF3" d="M 7.509,20.31 C 9.202,16.82 35.52,-12.89 56.78,-27.14 77.77,-41.68 97.28,-50.12 127.7,-57.97 127.7,-57.97 148.6,-62.35 158.2,-62.64 168.2,-62.64 181.6,-60.31 177.7,-44.88 174.3,-29.77 166.3,-23.08 156,-13.47 145.4,-3.87 141.1,1.67 138.1,8.07 135.2,14.47 117.7,48.82 107.2,49.42 96.7,49.71 94.66,50 94.66,50 94.66,50 105.8,54.35 106.1,68.1 106.1,81.8 101.4,80.9 99.03,87.5 96.4,94.3 95.83,94.3 90.88,99.8 85.9,105.4 79.25,112.7 68.44,113.1 63.49,113.5 64.07,119.4 54.44,121.6 45.16,123.7 39.82,125.4 36.69,127.3 33.44,129.2 19.75,141.6 17.8,137.3 15.58,133.3 5.946,82.9 2.818,74.7 1.125,41.07 -0.8294,27.5 7.509,20.31 z" />

</defs>

<use y="120" x="220" xlink:href="#butterfly1"/>
<use y="120" x="600" xlink:href="#butterfly2"/>
<use y="120" x="1000" xlink:href="#butterfly3"/>

</svg>
