<?xml version="1.0" encoding="UTF-8" standalone="no"?>
<svg
   xmlns="http://www.w3.org/2000/svg"
   xmlns:xlink="http://www.w3.org/1999/xlink"
   version="1.1">
  <title>CogWeel</title>
  <defs>

   <path id="templateCogWeel" d="M -3 -61 L -3 -52 C -8 -51 -13 -50 -17 -49 L -21 -57 L -27 -54 L -23 -46 C -27 -44 -31 -42 -34 -39 L -40 -45 L -45 -40 L -39 -34 C -42 -30 -45 -26 -47 -22 L -55 -25 L -57 -19 L -49 -16 C -51 -12 -51 -7 -52 -3 L -61 -3 L -61 3 L -52 3 C -51 8 -50 13 -49 17 L -57 21 L -54 27 L -46 23 C -44 27 -42 31 -39 34 L -45 40 L -40 45 L -34 39 C -30 42 -26 45 -22 47 L -25 55 L -19 57 L -16 49 C -12 50 -7 51 -3 52 L -3 61 L 3 61 L 3 52 C 8 51 13 50 17 48 L 21 57 L 27 54 L 23 46 C 27 44 31 41 34 38 L 41 45 L 45 40 L 39 34 C 42 30 44 26 46 22 L 55 25 L 58 19 L 49 16 C 50 12 51 7 51 3 L 61 3 L 61 -3 L 51 -3 C 51 -8 50 -13 48 -17 L 57 -21 L 54 -27 L 46 -23 C 44 -27 41 -31 38 -34 L 45 -40 L 40 -45 L 34 -39 C 30 -42 26 -44 22 -47 L 25 -55 L 19 -57 L 16 -49 C 12 -50 7 -51 3 -52 L 3 -61 L -3 -61 z " />

  <use id="cogWeel" xlink:href="#templateCogWeel" fill="gray">
    <animateTransform id="weelRotate"
        attributeName="transform" attributeType="XML"
        type="rotate" fill="freeze" 
        from="0" to="360" dur="8s"
        begin="0s" repeatCount="indefinite"
    />
  </use>

  <use id="cogWeel2" xlink:href="#templateCogWeel" fill="gray">
    <animateTransform id="weelRotate"
        attributeName="transform" attributeType="XML"
        type="rotate" fill="freeze" 
        from="360" to="0" dur="8s" repeatCount="indefinite"
    />
  </use>


  </defs>

<use x="200" y="200" xlink:href="#cogWeel" />
<use x="90" y="173" xlink:href="#cogWeel2" />
 
</svg>
