<?xml version="1.0" encoding="UTF-8" standalone="no"?>
<svg version="1.1" xmlns="http://www.w3.org/2000/svg" xmlns:xlink="http://www.w3.org/1999/xlink" top="0" left="0">

   <g>
    <path
       d="M 859.19467,461.73349 L 859.19467,461.59186 C 848.33829,463.10695 837.55618,464.53452 826.82635,465.8836 C 816.09652,467.23269 805.41974,468.50196 794.75802,469.68371 C 784.09631,470.8655 773.45715,471.96225 762.80518,472.9755 C 752.15313,473.98867 741.48364,474.91551 730.78296,475.75889 C 725.43266,476.18058 720.08186,476.57993 714.70843,476.95891 C 709.335,477.33793 703.94539,477.69781 698.54154,478.03393 C 693.1377,478.3701 687.71242,478.68249 682.27087,478.97565 C 676.82933,479.26878 671.37132,479.54236 665.88472,479.79234 C 660.39818,480.04228 654.88748,480.26903 649.34867,480.47568 C 643.80972,480.68233 638.23791,480.87086 632.63946,481.03403 C 627.04095,481.1972 621.41097,481.33949 615.7456,481.45903 C 610.08017,481.57857 604.38362,481.67496 598.64397,481.75073 L 494.51143,481.75073 C 486.07659,481.64853 477.89311,481.50097 469.95532,481.30904 C 462.01767,481.11708 454.31863,480.88415 446.84172,480.60903 C 439.36475,480.3339 432.1191,480.01908 425.06665,479.66731 C 418.01425,479.31553 411.15594,478.92248 404.49172,478.50061 C 397.82745,478.07878 391.34849,477.62763 385.0361,477.14225 C 378.7237,476.65687 372.58125,476.13456 366.58439,475.59222 C 360.58758,475.04986 354.73887,474.48495 349.02125,473.89218 C 343.30368,473.29941 337.71752,472.67872 332.2428,472.04214 C 326.76812,471.40548 321.40175,470.74931 316.13365,470.07539 C 310.86556,469.40148 305.69929,468.71335 300.60147,468.00869 C 290.40583,466.59934 280.51579,465.13484 270.78337,463.64188 C 251.96507,460.75515 238.89724,456.82457 220.2175,453.91279 L 222.56924,484.27792 L 769.64803,483.97577 C 790.38402,482.53671 810.20032,481.72502 857.37144,462.02518 L 859.19467,461.73349 z"
       style="fill:#000;stroke:#000;stroke-width:0.22489579px;" />
    <path
       d="M 202.5,402.5 L 147.0625,405.6875 L 147.0625,413.15625 L 137.96875,415.625 C 136.03831,416.0496 135.4292,416.7137 135.15625,417.4375 C 118.36811,419.69256 108.89676,424.35474 104.125,427 C 124.1049,436.07465 143.15215,439.46633 186.03125,447.28125 L 218.59375,453.3125 C 237.27349,456.22427 251.96295,460.76952 270.78125,463.65625 C 280.51368,465.14921 290.39811,466.59065 300.59375,468 C 305.69157,468.70465 310.85691,469.38859 316.125,470.0625 C 321.39311,470.73643 326.77532,471.39459 332.25,472.03125 C 337.72472,472.66783 343.31368,473.31348 349.03125,473.90625 C 354.74888,474.49902 360.59694,475.05139 366.59375,475.59375 C 372.59062,476.13609 378.71885,476.67087 385.03125,477.15625 C 391.34364,477.64164 397.83573,478.07817 404.5,478.5 C 411.16421,478.92187 418.0101,479.30447 425.0625,479.65625 C 432.11495,480.00803 439.36678,480.31862 446.84375,480.59375 C 454.32067,480.86886 462.0311,481.12054 469.96875,481.3125 C 477.90654,481.50442 486.06516,481.6478 494.5,481.75 L 598.65625,481.75 C 604.39589,481.67423 610.08457,481.58829 615.75,481.46875 C 621.41536,481.34923 627.02649,481.19442 632.625,481.03125 C 638.22344,480.86808 643.8048,480.6754 649.34375,480.46875 C 654.88254,480.2621 660.38846,480.03119 665.875,479.78125 C 671.36162,479.53128 676.83971,479.26188 682.28125,478.96875 C 687.7228,478.67559 693.12741,478.36742 698.53125,478.03125 C 703.93508,477.69512 709.34532,477.34777 714.71875,476.96875 C 720.09217,476.58976 725.43095,476.17169 730.78125,475.75 C 741.48193,474.90663 752.16045,473.98192 762.8125,472.96875 C 773.46447,471.95551 784.08829,470.86929 794.75,469.6875 C 805.41174,468.50574 816.08267,467.22409 826.8125,465.875 C 837.54233,464.52591 848.33112,463.10884 859.1875,461.59375 L 859.1875,461.71875 L 971.75,444.375 C 975.09048,443.31774 977.94032,441.93699 978.9375,439.1875 L 979.875,411.34375 C 980.29275,409.68435 979.87831,408.473 978.625,407.71875 L 202.5,402.5 z"
       style="fill:#000;stroke:#000;stroke-width:0.22489579px;" />
    <rect
       y="311.26126"
       x="519.05231"
       height="54.044102"
       width="1.5666561"
       
       style="fill:#000;stroke:#000;stroke-width:0.2;" />
    <path
       
       d="M 594.47137,370.30742 L 594.47137,405.14451 L 640.67557,405.45516 L 653.55365,405.42063 C 656.58528,402.95783 657.34729,399.83985 657.47707,396.55031 C 657.47707,379.18798 637.13729,370.52603 626.28574,370.52603 L 594.47137,370.30742 z"
       style="fill:#000;stroke:#000;stroke-width:0.2;" />
    <path
       
       d="M 592.27883,370.28445 L 592.27883,405.13303 L 594.47137,405.14451 L 594.47137,370.30742 L 592.27883,370.28445 z"
       style="fill:#000;stroke:#000;stroke-width:0.2;" />
    <path
       
       d="M 518.62213,357.15725 C 510.00881,357.42004 504.4344,367.76661 498.18565,375.88736 L 494.48143,376.8653 L 494.27373,381.77791 C 507.74493,383.0658 521.38425,369.65917 544.67836,369.97379 L 545.20912,369.96231 L 544.98992,357.16877 L 518.62213,357.15725 z"
       style="fill:#000;stroke:#000;stroke-width:0.2;" />
    <path
       
       d="M 114.7236,432.76081 C 112.58815,432.76081 110.86305,434.46955 110.86305,436.59862 L 113.3697,468.95442 C 113.3697,471.08349 115.0948,472.79222 117.23026,472.79222 L 148.73195,472.79222 C 150.8674,472.79222 152.5925,471.08349 152.5925,468.95442 L 152.5925,443.28693 C 139.45639,440.13571 125.08176,435.89849 115.83464,432.76081 L 114.7236,432.76081 z"
       style="fill:#000;stroke:#000;stroke-width:0.2;" />
    <path
       
       d="M 132.86916,438.18034 L 132.86916,451.14644 C 132.86916,451.75832 133.36324,452.25092 133.97695,452.25092 C 134.59067,452.25092 135.08475,451.75832 135.08475,451.14644 L 135.08475,438.76708 C 134.33942,438.56993 133.60167,438.37778 132.86916,438.18034 z"
       style="fill:#000;stroke:#000;stroke-width:0.2;" />
    <path
       
       d="M 192.57174,449.25516 L 192.57174,461.00745 C 192.57174,461.74365 193.06582,462.33631 193.67954,462.33631 L 198.99925,462.33631 C 199.61297,462.33631 200.10705,461.74365 200.10704,461.00745 L 200.10704,450.87474 C 197.5989,450.35405 195.08445,449.80888 192.57174,449.25516 z"
       style="fill:#000;stroke:#000;stroke-width:0.2;" />
    <path
       
       d="M 185.47494,461.66902 C 184.86123,461.66902 184.36715,462.16162 184.36715,462.7735 L 184.36715,462.99212 C 184.36715,463.604 184.86123,464.09659 185.47494,464.09659 L 220.60122,464.09659 L 220.62429,461.66902 L 185.47494,461.66902 z"
       style="fill:#000;stroke:#000;stroke-width:0.2;" />
    <path
       transform="matrix(0.3692644,0,0,0.3681595,91.09558,184.74181)"
       d="M 303.00001,755.5 A 17.4,6.3000002 0 1 1 268.20001,755.5 A 17.4,6.3000002 0 1 1 303.00001,755.5 z"
               />
    <path
       d="M 186.69813,461.67135 C 186.69813,461.67135 187.55977,455.79861 189.46761,454.49224 C 189.68678,454.34217 190.35385,454.49224 190.35385,454.49224 C 189.79202,457.76713 189.39286,460.82576 190.57541,461.78179 L 186.69813,461.67135 z"
       style="fill:#000;stroke:#000;stroke-width:0.22489579px;" />
    <path
       d="M 190.74157,464.17829 C 190.74157,464.17829 189.87993,470.05102 187.97209,471.3574 C 187.75294,471.50746 187.08586,471.3574 187.08586,471.3574 C 187.6477,468.08251 188.04685,465.02384 186.8643,464.06784 L 190.74157,464.17829 z"
       style="fill:#000;stroke:#000;stroke-width:0.22489579px;" />
    <path
       
       d="M 977.22088,407.71283 L 977.69088,380.06597 L 977.29923,380.22218 L 976.12419,407.71283 L 977.22088,407.71283 z"
       style="fill:#000;fill-opacity:0.7;fill-rule:evenodd;stroke:#000;stroke-width:0.22489579px;" />
    <g
       style="fill:#000"
       transform="matrix(0.3692644,0,0,0.3681595,86.55968,-173.56763)"
       >
      <path
         style="fill:#000;stroke:#000;stroke-width.6;"
         d="M 2392.1289,1544.1386 C 2388.574,1542.2702 2385.0623,1540.054 2381.7539,1537.8261 C 2378.3561,1535.538 2375.1574,1533.2925 2372.2539,1531.4198 C 2370.8747,1535.7333 2369.6235,1540.1328 2371.0351,1546.6386 C 2379.0081,1547.5108 2385.7695,1545.8998 2392.1289,1544.1386 z"
          />
      <path
         style="fill:#000;stroke:#000;stroke-width.6;"
         d="M 2409.0976,1522.7323 C 2408.6331,1523.2998 2408.206,1523.7886 2407.7226,1524.4198 C 2405.622,1527.1626 2403.3509,1530.4616 2400.9101,1533.7948 C 2398.4693,1537.1281 2395.8501,1540.4919 2393.0976,1543.4198 C 2392.8735,1543.6582 2392.6362,1543.8439 2392.4101,1544.0761 C 2398.3647,1542.4202 2403.9785,1540.6466 2409.8789,1540.7011 C 2409.8789,1540.7011 2408.8317,1529.0649 2409.0039,1523.7323 C 2409.0115,1523.4948 2409.0545,1523.0897 2409.0976,1522.7323 z"
          />
      <path
         style="fill:#000;fill-opacity:0.7;fill-rule:evenodd;stroke:#000;stroke-width.6;"
         d="M 2393.2539,1509.2948 C 2393.0932,1509.3525 2392.9136,1509.3933 2392.7539,1509.4511 C 2392.0266,1510.036 2391.2742,1510.5578 2390.5663,1511.2011 C 2387.8138,1513.7024 2385.2259,1516.5722 2382.7851,1519.4198 C 2380.3443,1522.2674 2378.042,1525.0767 2375.9413,1527.4198 C 2374.891,1528.5914 2373.9015,1529.6589 2372.9413,1530.5448 C 2372.7313,1530.7387 2372.5532,1530.8365 2372.3476,1531.0136 C 2372.3062,1531.1423 2372.2951,1531.291 2372.2539,1531.4198 C 2375.1574,1533.2925 2378.356,1535.538 2381.7539,1537.8261 C 2385.0623,1540.054 2388.5738,1542.2702 2392.1289,1544.1386 C 2392.2235,1544.1124 2392.3156,1544.1023 2392.4101,1544.0761 C 2392.6362,1543.8439 2392.8735,1543.6582 2393.0976,1543.4198 C 2395.8501,1540.4919 2398.4693,1537.1281 2400.9101,1533.7948 C 2403.3509,1530.4616 2405.622,1527.1626 2407.7226,1524.4198 C 2408.206,1523.7886 2408.6331,1523.2998 2409.0976,1522.7323 C 2409.1569,1522.2398 2409.2227,1521.7716 2409.2539,1521.3573 C 2406.9899,1519.5973 2404.593,1517.6328 2402.0039,1515.5761 C 2399.2174,1513.3628 2396.2609,1511.1679 2393.2539,1509.2948 z"
          />
      <path
         style="fill:#000;stroke:#000;stroke-width.6;"
         d="M 2393.2539,1509.2948 C 2396.261,1511.1679 2399.2174,1513.3628 2402.0039,1515.5761 C 2404.5931,1517.6328 2406.9899,1519.5973 2409.2539,1521.3573 C 2409.7074,1515.3217 2411.1289,1505.2636 2411.1289,1505.2636 C 2404.6988,1505.44 2398.7612,1507.3188 2393.2539,1509.2948 z"
          />
      <path
         style="fill:#000;stroke:#000;stroke-width.6;"
         d="M 2372.3476,1531.0136 C 2372.5532,1530.8365 2372.7313,1530.7387 2372.9413,1530.5448 C 2373.9013,1529.6589 2374.891,1528.5914 2375.9413,1527.4198 C 2378.042,1525.0767 2380.3443,1522.2674 2382.7851,1519.4198 C 2385.2259,1516.5722 2387.8138,1513.7024 2390.5663,1511.2011 C 2391.2742,1510.5578 2392.0266,1510.036 2392.7539,1509.4511 C 2385.5132,1512.0684 2379.1308,1514.8592 2374.2226,1514.6073 C 2375.4807,1521.6806 2373.8584,1526.318 2372.3476,1531.0136 z"
          />
      <path
         style="fill:#000;fill-opacity:0.7;fill-rule:evenodd;stroke:#000;stroke-width.6;"
         d="M 2393.3163,1517.5448 L 2391.1913,1518.1698 C 2390.8144,1519.3121 2390.5813,1520.5279 2390.4413,1521.7636 C 2387.685,1522.2496 2385.3272,1522.717 2385.5976,1523.4511 L 2385.7539,1525.1073 C 2387.2295,1524.0465 2388.7841,1523.5257 2390.3163,1523.2011 C 2390.2649,1524.0756 2390.2467,1524.9644 2390.2539,1525.8573 C 2387.2052,1526.4008 2384.6436,1527.0228 2384.0351,1528.2636 L 2384.1913,1529.8886 C 2385.7315,1528.1956 2387.8754,1527.6205 2390.2851,1527.2323 C 2390.3753,1530.4649 2390.639,1533.721 2390.3476,1536.6698 L 2392.4726,1536.6698 C 2392.7345,1533.5498 2392.5473,1530.2094 2392.5039,1526.8886 C 2394.6302,1526.6168 2396.8475,1526.3332 2399.0351,1525.5448 L 2398.8789,1524.0448 C 2397.0041,1524.6781 2394.7334,1525.0725 2392.5039,1525.4511 C 2392.5064,1524.5595 2392.5194,1523.6712 2392.5663,1522.7948 C 2394.1838,1522.5664 2395.7588,1522.3831 2397.1601,1521.7948 L 2397.0039,1520.2948 C 2395.9198,1520.7213 2394.3318,1521.0555 2392.6913,1521.3573 C 2392.8151,1520.0535 2392.9934,1518.7734 2393.3163,1517.5448 z"
          />
    </g>
    <g
       style="fill:#000"
       transform="matrix(0.3692644,0,0,0.3681595,86.34184,183.71313)"
       >
      <path
         style="fill:#000;stroke:#000;stroke-width.6;"
         d="M 1032.9,511.60001 L 1026.9,530.80001 L 1041.9,530.80001 L 1036.2,511.60001 L 1032.9,511.60001 z"
          />
      <g
         style="fill:#000"
         
         transform="matrix(0.8839404,0.4675996,-0.4675996,0.8839404,348.08385,-416.16816)">
        <rect
           y="493"
           x="1004.7"
           height="1.8"
           width="31.199999"
           
           style="fill:#000;stroke:#000;stroke-width:0.6;" />
        <rect
           y="490.89999"
           x="1031.1"
           height="5.0999999"
           width="17.4"
           
           style="fill:#000;stroke:#000;stroke-width:0.6;" />
      </g>
      <rect
         style="fill:#000;stroke:#000;stroke-width:0.6;"
         
         width="15"
         height="6.5999999"
         x="1026.9"
         y="531.10004" />
      <rect
         style="fill:#000;stroke:#000;stroke-width:0.6;"
         
         width="4.7999997"
         height="8.6999998"
         x="1032.2999"
         y="505.30002"
         ry="2.3999999" />
    </g>
    <g
       style="fill:#000"
       transform="matrix(0.3692644,0,0,0.3681595,108.83721,183.76618)"
       >
      <path
         style="fill:#000;stroke:#000;stroke-width.6;"
         d="M 1032.9,511.60001 L 1026.9,530.80001 L 1041.9,530.80001 L 1036.2,511.60001 L 1032.9,511.60001 z"
          />
      <g
         style="fill:#000"
         
         transform="matrix(0.8839404,0.4675996,-0.4675996,0.8839404,348.08385,-416.16816)">
        <rect
           y="493"
           x="1004.7"
           height="1.8"
           width="31.199999"
           
           style="fill:#000;stroke:#000;stroke-width:0.6;" />
        <rect
           y="490.89999"
           x="1031.1"
           height="5.0999999"
           width="17.4"
           
           style="fill:#000;stroke:#000;stroke-width:0.6;" />
      </g>
      <rect
         style="fill:#000;stroke:#000;stroke-width:0.6;"
         
         width="15"
         height="6.5999999"
         x="1026.9"
         y="531.10004" />
      <rect
         style="fill:#000;stroke:#000;stroke-width:0.6;"
         
         width="4.7999997"
         height="8.6999998"
         x="1032.2999"
         y="505.30002"
         ry="2.3999999" />
    </g>
    <g
       style="fill:#000"
       transform="matrix(0.3692644,0,0,0.2187601,83.20481,46.483458)"
       >
      <path
         style="fill:#000;stroke:#000;stroke-width:0.7;"
         d="M 1334.0312,1455.25 C 1330.1671,1455.25 1327.0312,1459.6135 1327.0312,1465 C 1327.0312,1470.3865 1330.167,1474.75 1334.0312,1474.75 C 1336.6098,1474.5084 1339.2196,1474.7045 1341.8125,1474.6875 C 1342.1183,1474.7445 1342.433,1474.75 1342.75,1474.75 C 1346.6142,1474.75 1349.75,1470.3865 1349.75,1465 C 1349.75,1459.6135 1346.6142,1455.25 1342.75,1455.25 C 1342.4307,1455.25 1342.1205,1455.2859 1341.8125,1455.3438 L 1334.0312,1455.25 z"
          />
      <path
         
         d="M 1261.3371,1466.0811 A 6.3639607,8.485281 0 1 1 1248.6092,1466.0811 A 6.3639607,8.485281 0 1 1 1261.3371,1466.0811 z"
         transform="matrix(1.1,0,0,1.15,-46.463691,-221.14322)" />
      <path
         d="M 1331.0064,1457.2979 L 1305.2564,1457.3917 L 1305.2564,1472.6417 C 1313.8343,1472.7253 1322.4475,1472.465 1331.0064,1472.7667 C 1334.0509,1472.7667 1336.5376,1469.3134 1336.5376,1465.0479 C 1336.5376,1460.7825 1334.0508,1457.298 1331.0064,1457.2979 z"
         
          />
      <rect
         style="fill:#000;stroke:#000;stroke-width:0.7;"
         
         width="4.9499998"
         height="3.45"
         x="-1347.1815"
         y="1463.0918"
         ry="1.35"
         transform="scale(-1,1)" />
    </g>
    <rect
       ry="5.623086"
       y="361.96671"
       x="553.42328"
       height="14.994896"
       width="18.17321"
       style="fill:#000;stroke:#000;stroke-width:0.2;" />
    <g transform="matrix(0.3692644,0,0,0.2187601,83.20481,46.483458)">
        <path
           
           d="M 1287.8438,1457.4062 L 1262.0938,1457.5 L 1262.0938,1472.75 C 1270.6717,1472.8336 1279.2849,1472.5733 1287.8438,1472.875 C 1290.8883,1472.875 1293.375,1469.4217 1293.375,1465.1562 C 1293.375,1460.8908 1290.8882,1457.4063 1287.8438,1457.4062 z"
           style="fill:#000;stroke:#000;stroke-width:0.7;" />
        <path
           d="M 1262.1875,1455.0625 L 1253.2812,1455.1562 L 1253.2812,1474.4688 C 1256.2451,1474.5715 1259.2346,1474.2858 1262.1875,1474.5625 C 1266.0517,1474.5625 1269.1875,1470.199 1269.1875,1464.8125 C 1269.1875,1459.426 1266.0517,1455.0625 1262.1875,1455.0625 z"
           style="fill:#000;stroke:#000;stroke-width:0.7;" />
        <path
           transform="matrix(1.1,0,0,1.15,-126.98224,-221.18496)"
           d="M 1261.3371,1466.0811 A 6.3639607,8.485281 0 1 1 1248.6092,1466.0811 A 6.3639607,8.485281 0 1 1 1261.3371,1466.0811 z"
 />
      <rect
         style="fill:#000;stroke:#000;stroke-width:0.7;"
         
         width="4.9499998"
         height="3.45"
         x="1262.1"
         y="1462.75"
         ry="1.35" />
    </g>
    <path
              d="M 655.89377,389.00436 C 655.1256,385.69789 649.98566,379.40391 645.12806,376.3938 C 643.10924,376.47188 645.95005,378.87041 646.94709,379.73031 C 649.82105,382.44708 650.33527,382.13355 652.66824,386.36459 C 653.38827,388.34967 655.32973,390.7694 656.01689,390.76935 C 657.05626,390.61046 656.53097,390.20799 655.89377,389.00436 z"
       style="fill:#000;stroke:#000;stroke-width:0.2;" />
    <g
       style="fill:#000;fill-opacity:1"
       transform="matrix(0.3692644,0,0,0.3681595,90.31966,-173.80189)"
       >
      <path
         style="fill:#000;stroke:#000;stroke-width.6;"
         d="M 1633.0601,1524.5011 L 1638.0101,1521.8011 L 1638.3101,1524.5011 L 1633.0601,1524.5011 z"
         
          />
      <path
         style="fill:#000;stroke:#000;stroke-width.6;"
         d="M 1525.6338,1522.8102 L 1633.652,1524.8187 L 1633.4762,1530.965 L 1531.2286,1530.6577 C 1527.3408,1530.6283 1523.2191,1522.8408 1525.6338,1522.8102 z"
         
          />
      <rect
         style="fill:#000;stroke:#000;stroke-width:0.6;"
         
         width="5.3034582"
         height="7.2125087"
         x="1632.6146"
         y="1524.1522"
         ry="1.3393397" />
      <path
         d="M 1640.85,553.52502 A 1.5749999,1.5749999 0 1 1 1637.7,553.52502 A 1.5749999,1.5749999 0 1 1 1640.85,553.52502 z"
         transform="translate(-0.2899163,969.1011)" />
      <rect
         style="fill:#000;stroke:#000;stroke-width:0.6;"
         
         width="1.1999999"
         height="7.0499997"
         x="1638.3102"
         y="1524.3511"
         ry="0.59999996" />
    </g>
    <path
       d="M 518.15625,350.53125 L 210.625,394.71875 L 518.15625,350.53125 z M 542.53125,369.96875 C 520.54069,370.46786 507.33148,383.02889 494.28125,381.78125 L 444.5625,381.78125 C 440.92471,381.78124 438.46875,388.54607 438.46875,394.25 C 438.46876,398.9253 440.41208,402.85927 443.125,404.125 L 565.96875,404.96875 L 592.28125,405.125 L 592.28125,370.28125 L 557.53125,370.03125 L 545.21875,369.96875 L 544.6875,369.96875 C 543.95956,369.95892 543.24062,369.95265 542.53125,369.96875 z"
       style="fill:#000;stroke:#000;stroke-width:0.2;" />
    <path
       transform="matrix(0.3692644,0,0,0.3681595,338.41748,260.63005)"
       d="M 445.64106,336.34585 C 475.46436,334.95875 516.51146,309.90925 545.55526,308.76865 C 546.96556,308.76865 793.46296,310.60915 794.38316,311.52935 C 795.30336,312.44955 795.87106,313.72245 795.87106,315.13265 C 795.87106,316.54285 795.40946,318.34605 794.59526,319.79655 C 793.78116,321.24715 547.38976,321.07235 545.97956,321.07235 C 519.09296,319.94785 477.81666,345.10445 446.48956,344.40695 C 445.07936,344.40695 287.88955,345.21805 286.75715,344.82815 C 285.62485,344.43825 284.84505,343.69585 284.84505,342.28555 C 284.84505,340.87535 285.41265,339.60255 286.33295,338.68225 C 287.25315,337.76205 444.23086,336.34585 445.64106,336.34585 z"
       style="fill:#000;stroke:none;stroke-width:1;" />
    <path
       transform="matrix(0.3692644,0,0,0.3681595,338.41748,260.63005)"
       d="M 599.95786,303.91365 L 622.20776,301.51365 L 623.83206,392.34885 L 617.04386,392.34885 L 616.19526,339.74005 C 613.01786,323.40135 607.51196,315.87565 599.95786,303.91365 z"
       style="fill:#000;fill-opacity:0.7;fill-rule:evenodd;stroke:#000;stroke-width.6;" />
    <rect
       transform="matrix(0.9876439,0.1567146,0,1,0,0)"
       ry="0"
       y="446.96973"
       x="150.88123"
       height="1.9723622"
       width="75.375046"
       style="fill:#000;stroke:#000;stroke-width:0.2;" />
    <rect
       transform="matrix(0.9931589,0.1167703,-0.1174627,0.9930773,0,0)"
       ry="4.4180942"
       rx="125.32732"
       y="347.26001"
       x="862.17499"
       height="4.4180942"
       width="53.171879"
       
       style="fill:#000;stroke:#000;stroke-width:0.2;" />
    <g transform="matrix(0.3692644,0,0,0.3681595,86.55968,-173.56763)">
      <rect
         style="fill:#000;stroke:#000;stroke-width:0.6;"
         width="673.73132"
         height="1.6970563"
         x="1535.8359"
         y="1557.2977"
         rx="0"
         ry="1.6970563" />
      <rect
         style="fill:#000;stroke:#000;stroke-width:0.6;"
         width="0.84852815"
         height="17.81909"
         x="2080"
         y="1558.1809"
         ry="0.42426407" />
      <rect
         style="fill:#000;stroke:#000;stroke-width:0.6;"
         width="0.84852815"
         height="17.81909"
         x="2200.0212"
         y="1558.9949"
         ry="0.42426407" />
      <rect
         style="fill:#000;stroke:#000;stroke-width:0.6;"
         width="0.84852815"
         height="18.667612"
         x="2159.1514"
         y="1558.1808"
         ry="0.44446698" />
      <rect
         style="fill:#000;stroke:#000;stroke-width:0.6;"
         width="0.84852815"
         height="18.667612"
         x="2120"
         y="1558.1809"
         ry="0.44446698" />
      <rect
         style="fill:#000;stroke:#000;stroke-width:0.6;"
         width="0.84852815"
         height="17.81909"
         x="1920.8486"
         y="1558.181"
         ry="0.42426407" />
      <rect
         style="fill:#000;stroke:#000;stroke-width:0.6;"
         width="0.84852815"
         height="16.970562"
         x="2040.8699"
         y="1558.9951"
         ry="0.40406105" />
      <rect
         style="fill:#000;stroke:#000;stroke-width:0.6;"
         width="0.84852815"
         height="17.81909"
         x="2000"
         y="1558.1809"
         ry="0.42426407" />
      <rect
         style="fill:#000;stroke:#000;stroke-width:0.6;"
         width="0.84852815"
         height="17.81909"
         x="1960.8486"
         y="1558.181"
         ry="0.42426407" />
      <rect
         style="fill:#000;stroke:#000;stroke-width:0.6;"
         width="0.84852815"
         height="17.81909"
         x="1759.9788"
         y="1557.3669"
         ry="0.42426407" />
      <rect
         style="fill:#000;stroke:#000;stroke-width:0.6;"
         width="0.84852815"
         height="17.81909"
         x="1880"
         y="1558.1809"
         ry="0.42426407" />
      <rect
         style="fill:#000;stroke:#000;stroke-width:0.6;"
         width="0.84852815"
         height="17.81909"
         x="1839.1301"
         y="1557.3668"
         ry="0.42426407" />
      <rect
         style="fill:#000;stroke:#000;stroke-width:0.6;"
         width="0.84852815"
         height="17.81909"
         x="1799.9788"
         y="1557.3669"
         ry="0.42426407" />
      <rect
         style="fill:#000;stroke:#000;stroke-width:0.6;"
         width="0.84852815"
         height="14.978994"
         x="1599.1302"
         y="1558.1559"
         ry="0.35664275" />
      <rect
         style="fill:#000;stroke:#000;stroke-width:0.6;"
         width="0.84852815"
         height="14.978994"
         x="1719.1515"
         y="1558.8401"
         ry="0.35664275" />
      <rect
         style="fill:#000;stroke:#000;stroke-width:0.6;"
         width="0.84852815"
         height="14.978994"
         x="1678.2816"
         y="1558.1558"
         ry="0.35664275" />
      <rect
         style="fill:#000;stroke:#000;stroke-width:0.6;"
         width="0.84852815"
         height="14.978994"
         x="1639.1302"
         y="1558.1559"
         ry="0.35664275" />
      <rect
         style="fill:#000;stroke:#000;stroke-width:0.80388206;"
         width="0.82074183"
         height="36.570648"
         x="-111.72079"
         y="2792.6699"
         ry="0.8707298"
         transform="matrix(0.9997346,-2.3039198e-2,0.8307001,0.5567202,0,0)" />
    </g>
	
    <g transform="matrix(-0.3692263,-5.2916456e-3,-5.3075273e-3,0.3681214,1032.4162,-166.33131)">
      <rect
         style="fill:#000;stroke:#000;stroke-width:0.6;"
         width="673.73132"
         height="1.6970563"
         x="1535.8359"
         y="1557.2977"
         rx="0"
         ry="1.6970563" />
      <rect
         style="fill:#000;stroke:#000;stroke-width:0.6;"
         width="0.84852815"
         height="17.81909"
         x="2080"
         y="1558.1809"
         ry="0.42426407" />
      <rect
         style="fill:#000;stroke:#000;stroke-width:0.6;"
         width="0.84852815"
         height="17.81909"
         x="2200.0212"
         y="1558.9949"
         ry="0.42426407" />
      <rect
         style="fill:#000;stroke:#000;stroke-width:0.6;"
         width="0.84852815"
         height="18.667612"
         x="2159.1514"
         y="1558.1808"
         ry="0.44446698" />
      <rect
         style="fill:#000;stroke:#000;stroke-width:0.6;"
         width="0.84852815"
         height="18.667612"
         x="2120"
         y="1558.1809"
         ry="0.44446698" />
      <rect
         style="fill:#000;stroke:#000;stroke-width:0.6;"
         width="0.84852815"
         height="17.81909"
         x="1920.8486"
         y="1558.181"
         ry="0.42426407" />
      <rect
         style="fill:#000;stroke:#000;stroke-width:0.6;"
         width="0.84852815"
         height="16.970562"
         x="2040.8699"
         y="1558.9951"
         ry="0.40406105" />
      <rect
         style="fill:#000;stroke:#000;stroke-width:0.6;"
         width="0.84852815"
         height="17.81909"
         x="2000"
         y="1558.1809"
         ry="0.42426407" />
      <rect
         style="fill:#000;stroke:#000;stroke-width:0.6;"
         width="0.84852815"
         height="17.81909"
         x="1960.8486"
         y="1558.181"
         ry="0.42426407" />
      <rect
         style="fill:#000;stroke:#000;stroke-width:0.6;"
         width="0.84852815"
         height="17.81909"
         x="1759.9788"
         y="1557.3669"
         ry="0.42426407" />
      <rect
         style="fill:#000;stroke:#000;stroke-width:0.6;"
         width="0.84852815"
         height="17.81909"
         x="1880"
         y="1558.1809"
         ry="0.42426407" />
      <rect
         style="fill:#000;stroke:#000;stroke-width:0.6;"
         width="0.84852815"
         height="17.81909"
         x="1839.1301"
         y="1557.3668"
         ry="0.42426407" />
      <rect
         style="fill:#000;stroke:#000;stroke-width:0.6;"
         width="0.84852815"
         height="17.81909"
         x="1799.9788"
         y="1557.3669"
         ry="0.42426407" />
      <rect
         style="fill:#000;stroke:#000;stroke-width:0.6;"
         width="0.84852815"
         height="14.978994"
         x="1599.1302"
         y="1558.1559"
         ry="0.35664275" />
      <rect
         style="fill:#000;stroke:#000;stroke-width:0.6;"
         width="0.84852815"
         height="14.978994"
         x="1719.1515"
         y="1558.8401"
         ry="0.35664275" />
      <rect
         style="fill:#000;stroke:#000;stroke-width:0.6;"
         width="0.84852815"
         height="14.978994"
         x="1678.2816"
         y="1558.1558"
         ry="0.35664275" />
      <rect
         style="fill:#000;stroke:#000;stroke-width:0.6;"
         width="0.84852815"
         height="14.978994"
         x="1639.1302"
         y="1558.1559"
         ry="0.35664275" />
      <rect
         style="fill:#000;stroke:#000;stroke-width:0.80388206;"
         width="0.82074183"
         height="36.570648"
         x="-111.72079"
         y="2792.6699"
         ry="0.8707298"
         transform="matrix(0.9997346,-2.3039198e-2,0.8307001,0.5567202,0,0)" />
    </g>
  </g>
</svg>
