<?xml version="1.0" encoding="UTF-8" standalone="no"?>
<svg version="1.1" xmlns="http://www.w3.org/2000/svg" xmlns:xlink="http://www.w3.org/1999/xlink" top="0" left="0">

    <path d="M 198,528.09448 C 198,528.09448 384,540.09448 444,538.09448 C 504,536.09448 558,532.09448 582,534.09448 C 606,536.09448 694,516.09448 674,528.09448 C 654,540.09448 702,538.09448 636,544.09448 C 570,550.09448 474,558.09448 426,554.09448 C 378,550.09448 284,542.09448 254,538.09448 C 224,534.09448 198,528.09448 198,528.09448 z" style="fill:#555;stroke:#000;stroke-width:2;"/>
    <path d="M 194,526.09448 L 238,576.09448 C 238,576.09448 370,572.09448 440,576.09448 C 510,580.09448 602,574.09448 614,572.09448 C 626,570.09448 668,550.09448 674,546.09448 C 680,542.09448 678,528.09448 678,528.09448 C 678,528.09448 668,538.09448 614,542.09448 C 560,546.09448 458,552.09448 412,548.09448 C 366,544.09448 300,542.09448 266,536.09448 C 232,530.09448 194,526.09448 194,526.09448 z" style="fill:#ddd;stroke:#000; stroke-width:2;"/>
		
    <path d="M 497,30 L 484,542" style="stroke:#000;stroke-width:4;"/>
    <path d="M 362,109 L 338,540" style="stroke:#000;stroke-width:4;"/>
    <path d="M 362,109 L 338,540" style="stroke:#000;stroke-width:4;"/>
    <path d="M 200,527 L 106,510" style="stroke:#000; stroke-width:2;"/>
		
    <path d="M 582.0339,42.704653 C 582.0339,42.704653 558.41808,35.619907 541.88701,37.981489 C 525.35593,40.343071 501.74011,33.258325 501.74011,33.258325 L 499.37853,75.7668 C 499.37853,75.7668 499.37853,59.235726 513.54802,59.235726 C 527.71751,59.235726 520.63277,68.682054 544.24859,56.874144 C 567.86441,45.066234 582.0339,42.704653 582.0339,42.704653 z" style="fill:red;"/>
		
    <path d="M 496.96718,276.52512 L 593.82083,171.32201 C 593.82083,171.32201 643.91755,284.87457 662.28635,343.32074 C 680.65514,401.76691 700.69383,470.23243 700.69383,470.23243 L 491.95751,513.64958 L 496.96718,276.52512 z" style="fill: LightSkyBlue; stroke:#000; stroke-width: 1;"/>
    <path d="M 208.73632,513.64958 C 208.73632,513.64958 258.83304,436.83461 287.22118,390.07768 C 315.60932,343.32074 337.3179,303.24337 337.3179,303.24337 L 337.3179,510.3098 C 337.3179,510.3098 297.24052,511.97969 267.18249,515.31947 C 237.12446,518.65925 208.73632,513.64958 208.73632,513.64958 z" style="fill: LightSkyBlue;  stroke:#000; stroke-width: 2;"/>
    <path d="M 327.29856,306.58315 C 327.29856,306.58315 242.13414,390.07768 213.746,413.45615 C 185.35786,436.83461 111.88267,508.63991 111.88267,508.63991 C 111.88267,508.63991 177.0084,493.61089 210.40621,490.27111 C 243.80403,486.93133 260.50293,483.59155 260.50293,483.59155 L 327.29856,306.58315 z" style="fill:LightSkyBlue;stroke:#000;stroke-width: 2;"/>
    <path d="M 203.72665,371.70888 C 203.72665,371.70888 258.83304,283.20468 285.55129,244.7972 C 312.26954,206.38971 352.34691,142.93387 352.34691,142.93387 C 352.34691,142.93387 338.98779,204.71982 335.64801,236.44774 C 332.30823,268.17566 332.30823,313.26271 332.30823,313.26271 C 332.30823,313.26271 300.58031,319.94227 268.85238,333.3014 C 237.12446,346.66052 203.72665,371.70888 203.72665,371.70888 z" style="fill: LightSkyBlue;  stroke:#000; stroke-width: 2;"/>
    <path d="M 357.35659,319.94227 L 459.21991,226.4284 C 459.21991,226.4284 469.23926,269.84556 472.57904,308.25304 C 475.91882,346.66052 485.93816,503.63024 485.93816,503.63024 L 342.32757,511.97969 L 357.35659,319.94227 z" style="fill:LightSkyBlue;  stroke:#000; stroke-width: 2;"/>
    <path d="M 365.70604,147.94354 C 365.70604,147.94354 389.08451,194.70048 387.41462,204.71982 C 385.74473,214.73917 382.40494,264.83588 374.05549,291.55413 C 365.70604,318.27238 355.6867,326.62184 355.6867,326.62184 L 365.70604,147.94354 z" style="fill: LightSkyBlue;  stroke:#000; stroke-width: 2;"/>
    <path d="M 500.96718,91.167262 C 500.96718,91.167262 524.34565,141.26398 544.38433,152.95321 C 564.42302,164.64245 582.79182,174.66179 582.79182,174.66179 L 522.67575,289.88424 C 522.67575,289.88424 505.97685,236.44774 502.63707,213.06928 C 499.29729,189.69081 499.29729,172.9919 499.29729,172.9919 L 500.96718,91.167262 z" style="fill:LightSkyBlue ;stroke:#000; stroke-width: 2;"/>

</svg>
