<?xml version="1.0" encoding="UTF-8" standalone="no"?>
<svg version="1.1" xmlns="http://www.w3.org/2000/svg" xmlns:xlink="http://www.w3.org/1999/xlink" top="0" left="0">
    <path
 d="M36,123L183,123C191,115 191,115 191,107L40,107C38,107 38,107 36,106L4,90L4,91C36,108 36,115 36,123z"/>

    <g transform="translate(216,-27)">
      <path
   style="fill:#002cc0"
   d="M-55,103L-28,92L-9,124L-55,130L-55,103z"/>
      <path
   d="M-55,132L-9,125L-9,124L-55,130L-55,132z"/>
      <path
   d="M-55,103L-28,92L-28,91L-55,101L-55,103z" />
    </g>

    <g transform="translate(161,-17)">
      <path
   d="M0,41L-1,41L-2,53L-3,124L0,124L0,41z"/>
      <path
   d="M-17,70L17,70L17,69L0,68L-17,69L-17,70z"/>
      <path
   d="M21,93L-21,93L-21,92L0,91L21,92L21,93z"/>
      <path
   d="M-5,43L5,43L5,42L-5,42L-5,43z"/>
      <path
   d="M-21,92C-21,92 -10,90 0,90C10,90 21,92 21,92L17,70L-17,70L-21,92z"
   style="fill:#0034e0"/>
      <path
   d="M-17,69C-17,69 -8,67 0,67C8,67 17,69 17,69L12,55L-12,55L-17,69z"
   style="fill:#0034e0"/>
      <path
   d="M-12,55L12,55L12,54L0,53L-12,54L-12,55z"/>
      <path
   d="M-12,54C-12,54 -6,52 0,52C6,52 12,54 12,54L5,43L-5,43L-12,54z"
   style="fill:#013cff"/>
      <path transform="translate(-37,0)"
   style="fill:#0035e0"
   d="M16,93L58,93L58,95C53,95 52,96 47,96C42,96 41,95 37,95C33,95 32,96 26,96C20,96 19,95 16,95L16,93z"/>
    </g>

    <g transform="translate(124,-17)">
      <path
   d="M0,21L-1,21L-2,35L-3,124L0,124L0,21z"/>
      <path
   d="M-21,58L21,58L21,57L0,56L-21,57L-21,58z"/>
      <path
   d="M26,85L-26,85L-26,84L0,83L26,84L26,85z"/>
      <path
   d="M-28,124C-28,124 -14,121 0,121C14,121 28,124 28,124L26,85L-26,85L-28,124z"
   style="fill:#013cff"/>
      <path
   d="M-7,24L7,24L7,23L-7,23L-7,24z"/>
      <path
   d="M-26,84C-26,84 -13,81 0,81C13,81 26,84 26,84L21,58L-21,58L-26,84z"
   style="fill:#013cff"/>
      <path
   d="M-21,57C-21,57 -10,55 0,55C10,55 21,57 21,57L15,38L-15,38L-21,57z"
   style="fill:#2155ff"/>
      <path
   d="M-15,38L15,38L15,37L0,36L-15,37L-15,38z"/>
      <path
   d="M-15,37C-15,37 -8,35 0,35C8,35 15,37 15,37L7,24L-7,24L-15,37z"
   style="fill:#416dff"/>
    </g>

    <g transform="translate(86,-17)">
      <path
   d="M0,31L-1,31L-2,45L-3,124L0,124L0,31z"/>
      <path
   d="M-19,64L19,64L19,63L0,62L-19,63L-19,64z"/>
      <path
   d="M23,89L-23,89L-23,88L0,87L23,88L23,89z"/>
      <path
   d="M-25,124C-25,124 -12,121 0,121C12,121 25,124 25,124L23,89L-23,89L-25,124z"
   style="fill:#2155ff"/>
      <path
   d="M-6,34L6,34L6,33L-6,33L-6,34z"/>
      <path
   d="M-23,88C-23,88 -12,86 0,86C12,86 23,88 23,88L19,64L-19,64L-23,88z"
   style="fill:#2155ff"/>
      <path
   d="M-19,63C-19,63 -9.4,61 0,61C9,61 19,63 19,63L14,47L-14,47L-19,63z"
   style="fill:#416dff"/>
      <path
   d="M-14,47L14,47L14,46L0,45L-14,46L-14,47z"/>
      <path
   d="M-14,46C-14,46 -8,44 0,44C8,44 14,46 14,46L6,34L-6,34L-14,46z"
   style="fill:#6186ff"/>

      <path
   d="M-7,120C-24,120 -41,124 -41,124L-2,62L-7,120z"
   style="fill:#416eff"/>
      <path
   d="M-23,117C-39,117 -58,119 -58,119L-2,45L-23,117z"
   style="fill:#6187ff"/>
      <path
   d="M-52,114C-52,114 -67,107 -82,107L-1,33L-52,114z"
   style="fill:#819fff"/>
    </g>
</svg>
