<?xml version="1.0" encoding="UTF-8" standalone="no"?>
<svg version="1.1" xmlns="http://www.w3.org/2000/svg" xmlns:xlink="http://www.w3.org/1999/xlink" top="0" left="0">

    <g transform="scale(0.5)">
    <rect
       y="959.78668"
       x="2111.2615"
       height="37.426151"
       width="149.70461" style="fill:#000;stroke:#020300;stroke-width:0.1;" />
    <rect
       y="959.09363"
       x="2099.8257"
       height="2.7723076"
       width="171.88307" style="fill:#000;stroke:#020300;stroke-width:0.1;" />
    <path
       d="M 2257.3579,1019.7847 C 2261.8031,1014.273 2266.2629,1008.8116 2270.7954,1003.5035 C 2259.8553,1003.3381 2248.9494,1003.3991 2238.0766,1003.6597 C 2227.2039,1003.9203 2216.356,1004.3803 2205.5454,1005.0347 C 2194.7348,1005.6892 2183.9551,1006.5185 2173.2016,1007.5347 C 2162.4482,1008.551 2151.7156,1009.7513 2141.0142,1011.0972 C 2130.3127,1012.4431 2119.6373,1013.9538 2108.9829,1015.5972 C 2098.3285,1017.2407 2087.6892,1019.032 2077.0766,1020.941 C 2066.4641,1022.8499 2055.8711,1024.8612 2045.2954,1027.0035 C 2034.7197,1029.1458 2024.183,1031.4099 2013.6392,1033.7535 C 1992.5514,1038.4406 1971.5052,1043.4851 1950.5142,1048.7847 C 1929.5231,1054.0843 1908.5741,1059.6295 1887.6392,1065.2847 C 1845.7693,1076.5952 1803.9652,1088.3738 1762.0766,1099.566 L 167.07664,1113.2847 L 166.38914,1200.5035 L 2145.3206,1201.5 C 2147.1948,1198.1245 2154.98,1177.7378 2156.8579,1174.3785 C 2159.2496,1169.892 2161.6223,1165.3542 2164.0454,1160.941 C 2168.7048,1152.4548 2173.4247,1144.0903 2178.2016,1135.8785 C 2182.9786,1127.6666 2187.8051,1119.5926 2192.7016,1111.6597 C 2197.5982,1103.7269 2202.5586,1095.934 2207.5766,1088.2847 C 2208.2245,1087.2971 2208.8955,1086.3613 2209.5454,1085.3785 C 2209.6306,1085.2467 2209.7102,1085.1039 2209.7954,1084.9722 C 2224.2602,1062.6134 2239.1028,1041.8617 2254.4204,1023.3472 C 2255.4029,1022.1597 2256.3711,1020.9529 2257.3579,1019.7847 z"
       style="fill:#000;stroke:#000;stroke-width:0.2;" />
    <rect
       y="994.09399"
       x="2209.3318"
       height="5.5446153"
       width="62.376919" style="fill:#000;stroke:#020300;stroke-width:0.1;" />
    <g
       style="fill:#000"
       transform="translate(10.545395,316.40972)">
      <path
         style="fill:#000;stroke:#000;stroke-width:0.2;"
         d="M 720.79275,653.61217 L 723.91881,577.8812 L 730.1565,565.75236 L 735.70111,565.75236 L 736.39419,575.80197 L 741.59227,575.80197 L 743.42646,653.46863 L 720.79275,653.61217 z"/>
      <path
         style="fill:#000;stroke:#000;stroke-width:0.2;"
         d="M 736.04765,567.13851 L 759.26573,555.00966 C 761.77716,552.70331 763.56203,553.30317 765.15688,554.66313 L 838.62303,554.66313 C 842.51133,553.17915 846.12945,551.0197 851.79149,553.97005 L 864.26688,554.31659 L 864.26688,555.70274 L 852.13803,557.0889 C 850.86739,565.35314 841.9729,565.33614 841.0488,558.12851 L 767.92919,569.56428 C 765.5537,570.68948 763.23084,572.02523 759.95881,569.56428 L 736.74073,571.64351 L 736.04765,567.13851 z"/>
      <path
         d="M 849.36575,578.57428 A 1.7326922,4.1584611 0 1 1 845.90036,578.57428 A 1.7326922,4.1584611 0 1 1 849.36575,578.57428 z" />
      <path
         style="fill:#000;fill-opacity:0.7;fill-rule:evenodd;stroke:#000;stroke-width:0.2;"
         d="M 844.51419,563.67313 L 845.5538,577.53466"
          />
      <path
         style="fill:#000;fill-opacity:0.7;fill-rule:evenodd;stroke:#000;stroke-width:0.2;"
         d="M 849.36572,577.53466 L 849.36572,562.28697"
          />
      <rect
         style="fill:#000;stroke:#020300;stroke-width:0.1;" width="43.663845"
         height="1.7326922"
         x="713.52264"
         y="612.18854" />
      <rect
         style="fill:#000;stroke:#020300;stroke-width:0.1;" width="33.614231"
         height="1.7326922"
         x="715.94843"
         y="589.83679" />
      <path
         style="fill:#000;stroke:#000;stroke-width:0.2;"
         d="M 742.28534,587.93082 L 758.91919,573.02966 L 763.77073,570.25736 L 764.81034,570.60389 L 762.03804,575.45543 L 743.6715,590.35659 L 742.28534,587.93082 z"
          />
      <rect
         style="fill:#000;stroke:#020300;stroke-width:0.1;" width="18.713076"
         height="1.7326922"
         x="713.52264"
         y="566.44543" />
      <path
         style="fill:#000;stroke:#000;stroke-width:0.2;"
         d="M 724.26535,574.76236 L 721.83958,567.83159 L 718.37419,566.44543 L 719.41381,562.63351 C 724.33881,557.6984 728.57597,558.95385 732.58227,562.28697 L 732.92881,566.44543 L 726.34458,576.84159 L 724.26535,574.76236 z"  />
      <path d="M 727.38419,557.43542 A 6.0644226,3.8119228 0 1 1 715.25534,557.43542 A 6.0644226,3.8119228 0 1 1 727.38419,557.43542 z" />
    </g>
    <path d="M 2107.0766,958.28472 L 379.60789,972.37847 L 379.60789,985.09722 L 371.63914,986.81597 L 281.88914,987.84722 L 241.32664,988.19097 L 241.70164,1005.8785 L 231.29539,1007.2535 L 167.88914,1007.566 L 167.07664,1113.2847 L 1762.0766,1099.566 C 1803.9652,1088.3738 1845.7693,1076.5952 1887.6392,1065.2847 C 1908.5741,1059.6295 1929.5231,1054.0843 1950.5142,1048.7847 C 1971.5052,1043.4851 1992.5514,1038.4406 2013.6392,1033.7535 C 2024.183,1031.4099 2034.7197,1029.1458 2045.2954,1027.0035 C 2055.8711,1024.8612 2066.4641,1022.8499 2077.0766,1020.941 C 2087.6892,1019.032 2098.3285,1017.2407 2108.9829,1015.5972 C 2119.6373,1013.9538 2130.3127,1012.4431 2141.0142,1011.0972 C 2151.7156,1009.7513 2162.4482,1008.551 2173.2016,1007.5347 C 2183.9551,1006.5185 2194.7348,1005.6892 2205.5454,1005.0347 C 2216.356,1004.3803 2227.2039,1003.9203 2238.0766,1003.6597 C 2248.9494,1003.3991 2259.8553,1003.3381 2270.7954,1003.5035 C 2266.2629,1008.8116 2261.8031,1014.273 2257.3579,1019.7847 C 2262.278,1013.9603 2267.2302,1008.3141 2272.2642,1003.0035 L 2272.2642,997.65972 L 2219.3892,998.94097 L 2189.5766,974.34722 L 2117.5142,970.53472 L 2107.0766,958.28472 z"
       style="fill:#000;stroke:#000;stroke-width:0.2;" />
    <g
       transform="translate(10.545395,316.40972)"
       style="fill:#000;fill-opacity:1">
      <rect
         style="fill:#000;stroke:#020300;stroke-width:0.1;" width="15.68254"
         height="20.583334"
         x="1300.6707"
         y="493.01984" />
      <path
         style="fill:#000;stroke:#000;stroke-width:0.2;"
         d="M 1314.0738,455.55313 L 1320.3115,448.9689 L 1324.4699,391.79006 L 1333.4799,381.39391 L 1390.6588,381.39391 L 1384.4211,387.97814 L 1349.0742,390.75044 L 1341.7969,398.02775 L 1352.5395,482.23659 L 1352.5395,521.0489 L 1298.4795,521.74197 L 1314.0738,455.55313 z"
          />
      <rect
         style="fill:#000;stroke:#020300;stroke-width:0.1;" width="4.1584611"
         height="73.466148"
         x="1328.6284"
         y="284.70966" />
      <rect
         style="fill:#000;stroke:#020300;stroke-width:0.1;" width="21.485384"
         height="4.1584611"
         x="1321.0045"
         y="295.79892" />
      <rect
         style="fill:#000;stroke:#020300;stroke-width:0.1;" width="30.495382"
         height="2.0792305"
         x="1326.8958"
         y="356.44315" />
      <rect
         style="fill:#000;stroke:#020300;stroke-width:0.1;" width="4.1584611"
         height="10.049615"
         x="1321.0045"
         y="372.38391" />
      <path style="fill:#000;stroke:#020300;stroke-width:0.1;" d="M 1328.2818,346.74005 A 2.7723076,3.1188459 0 1 1 1322.7372,346.74005 A 2.7723076,3.1188459 0 1 1 1328.2818,346.74005 z" />
      <path style="fill:#000;stroke:#020300;stroke-width:0.1;" d="M 1338.3315,348.47275 A 2.2524998,2.4257691 0 1 1 1333.8265,348.47275 A 2.2524998,2.4257691 0 1 1 1338.3315,348.47275 z" />
      <rect
         style="fill:#000;stroke:#020300;stroke-width:0.1;" width="2.0792305"
         height="55.79269"
         x="1338.678"
         y="301.34354" />
      <rect
         style="fill:#000;stroke:#020300;stroke-width:0.1;" width="10.396153"
         height="22.178461"
         x="1332.4403"
         y="359.21545" />
      <rect
         style="fill:#000;stroke:#020300;stroke-width:0.1;" width="2.7723076"
         height="16.633844"
         x="1348.7277"
         y="365.45312" />
      <rect
         style="fill:#000;stroke:#020300;stroke-width:0.1;" width="20.445768"
         height="1.7326922"
         x="1322.0442"
         y="379.31467" />
      <path
         style="fill:#000;stroke:#020300;stroke-width:0.1;"   d="M 1319.6184,302.03659 A 3.1188459,3.1188459 0 1 1 1313.3807,302.03659 A 3.1188459,3.1188459 0 1 1 1319.6184,302.03659 z" />
    </g>
    <path d="M 1730.9829,943.34722 L 1733.1079,960.47222 L 1733.5454,960.47222 L 1730.9829,943.34722 z"
       style="fill:#000;fill-opacity:0.7;fill-rule:evenodd;stroke:#000;stroke-width:0.2;" />
    <path d="M 1707.5454,928.06597 L 1670.8266,928.94097 L 1671.5142,934.84722 L 1656.9516,934.84722 L 1640.6704,939.69097 L 1640.6704,950.44097 L 1651.4204,958.75347 L 1664.2329,960.12847 L 1705.0142,960.75347 L 1733.1079,960.47222 L 1730.9829,943.34722 L 1728.6704,927.90972 L 1707.5454,928.06597 z"
       style="fill:#000;stroke:#000;stroke-width:0.2;" />
    <path d="M 1453.5454,812.59722 L 1453.8266,803.15972 L 1453.5454,803.15972 L 1453.5454,812.59722 z"
       style="fill:#000;fill-opacity:0.7;fill-rule:evenodd;stroke:#000;stroke-width:0.2;" />
    <g
       transform="translate(10.545395,316.40972)"
       style="fill:#000;fill-opacity:1">
      <rect
         style="fill:#000;stroke:#020300;stroke-width:0.1;" width="10.781746"
         height="20.093254"
         x="1248.2322"
         y="494" />
      <rect
         style="fill:#000;stroke:#020300;stroke-width:0.1;" width="23.523809"
         height="19.603174"
         x="1265.3849"
         y="494" />
      <rect
         style="fill:#000;stroke:#020300;stroke-width:0.1;" width="10.011814"
         height="52.986607"
         x="747.0965"
         y="1080.0096"
         transform="matrix(0.8190416,-0.5737342,0.5734188,0.8192624,0,0)" />
      <rect
         style="fill:#000;stroke:#020300;stroke-width:0.1;" width="10.011814"
         height="52.986607"
         x="763.96405"
         y="1080.6058"
         transform="matrix(0.8190416,-0.5737342,0.5734188,0.8192624,0,0)" />
      <rect
         style="fill:#000;stroke:#020300;stroke-width:0.1;" width="10.011814"
         height="52.986607"
         x="780.42511"
         y="1080.1697"
         transform="matrix(0.8190416,-0.5737342,0.5734188,0.8192624,0,0)" />
      <rect
         style="fill:#000;stroke:#020300;stroke-width:0.1;" width="10.011814"
         height="52.986607"
         x="799.51593"
         y="1080.6779"
         transform="matrix(0.8190416,-0.5737342,0.5734188,0.8192624,0,0)" />
      <path
         style="fill:#000;stroke:#000;stroke-width:0.2;"
         d="M 1237.2053,486.64881 L 1231.5694,477.82738 L 1293.5645,434.21032 L 1297.2401,432.98512 L 1321.9891,469.00595 C 1318.4025,469.25099 1315.6962,469.49603 1313.4127,469.74107 C 1296.497,472.48726 1274.7131,481.31879 1255.3383,487.13889 L 1248.2321,487.13889 C 1265.9295,476.13846 1310.738,466.75501 1311.4524,461.40972 C 1310.6878,459.17964 1301.0187,443.11519 1298.4653,442.29663 C 1295.9119,441.47807 1294.914,442.08573 1293.5645,442.78671 C 1292.4037,443.3897 1249.6456,470.41353 1244.5565,475.37698 C 1239.5944,480.21651 1241.371,487.62897 1241.371,487.62897 L 1237.2053,486.64881 z"  />
      <path
         style="fill:#000;stroke:#000;stroke-width:0.2;"
         d="M 1284.5,485.28125 L 1321,484.6875 L 1321,484.65625 L 1284.5,485.28125 z"
          />
    </g>
    <g
       style="fill:#000"
       transform="translate(10.545395,316.40972)">
      <rect
         style="fill:#000;stroke:#000;stroke-width:1.92641032;" width="11.761905"
         height="19.603174"
         x="1163.4484"
         y="506.74207" />
      <path style="fill:#000;stroke:#020300;stroke-width:0.5;" 
         d="M 1189.32,493.32584 A 19.752691,18.366537 0 1 1 1149.8146,493.32584 A 19.752691,18.366537 0 1 1 1189.32,493.32584 z" />
    </g>
    <path d="M 1189.7642,839.65972 L 1209.7642,839.31597 L 1210.2642,803.15972 L 1209.5766,803.15972 L 1209.5766,839.19097 L 1189.7642,839.65972 z"
       style="fill:#000;fill-opacity:0.7;fill-rule:evenodd;stroke:#000;stroke-width:0.2;" />
    <path 
       d="M 1150.1079,913.31597 L 1167.1392,913.81597 L 1168.1079,930.97222 L 1456.7642,930.47222 L 1471.9516,928.03472 L 1473.9204,909.90972 L 1470.9829,905.47222 L 1455.7954,905.00347 L 1456.2642,875.09722 L 1454.3266,871.65972 L 1425.3892,872.15972 L 1426.3892,855.50347 L 1454.3266,855.50347 L 1453.8266,803.15972 L 1453.5454,812.59722 L 1453.7187,839.1876 L 1454.2441,839.1876 L 1453.551,838.65078 L 1332.7642,838.34722 L 1332.3266,821.37847 L 1331.5454,801.09722 L 1295.0454,801.69097 L 1210.2642,803.15972 L 1209.7642,839.31597 L 1189.7642,839.65972 L 1150.6704,840.56597 L 1150.1079,913.31597 z"
       style="fill:#000;stroke:#000;stroke-width:0.2;" />
    <path d="M 1645.5,792.0625 L 1599.75,792.75 L 1595.5938,801.0625 L 1453.8125,803.15625 L 1454.3125,855.5 L 1426.375,855.5 L 1425.375,872.15625 L 1454.3125,871.65625 L 1456.25,875.09375 L 1455.7812,905 L 1470.9688,905.46875 L 1473.9062,909.90625 L 1471.9375,928.03125 L 1456.75,930.46875 L 1168.0938,930.96875 L 1167.125,913.8125 L 1150.0938,913.3125 L 1149.9375,932.75 L 915,934.125 L 915.6875,968.09375 L 1705,960.75 L 1664.2188,960.125 L 1651.4062,958.75 L 1640.6562,950.4375 L 1640.6562,939.6875 L 1656.9375,934.84375 L 1671.5,934.84375 L 1670.8125,928.9375 L 1707.5312,928.0625 L 1639.9688,928.59375 L 1639.2188,897.625 L 1687.0938,887.71875 L 1687.0938,885.28125 L 1638.9375,885.9375 L 1638.5625,871.0625 L 1652.4375,870.375 L 1658.6562,830.875 L 1645.5,792.0625 z M 1658.6875,829.5 L 1658.6875,833.65625 L 1674.9688,831.5625 L 1674.625,829.5 L 1658.6875,829.5 z"
       style="fill:#000;stroke:#000;stroke-width:0.2;" />
    <g
       transform="translate(10.545395,316.40972)"
       style="fill:#000;fill-opacity:1">
      <path style="fill:#000;stroke:#020300;stroke-width:0.1;" 
         d="M 1531.3534,453.30063 A 8.4901915,8.1436539 0 1 1 1514.373,453.30063 A 8.4901915,8.1436539 0 1 1 1531.3534,453.30063 z" />
      <path style="fill:#000;stroke:#020300;stroke-width:0.1;" 
         d="M 1593.7303,462.48389 A 18.713076,18.019999 0 1 1 1556.3041,462.48389 A 18.713076,18.019999 0 1 1 1593.7303,462.48389 z" />
      <path style="fill:#000;stroke:#020300;stroke-width:0.1;" 
         d="M 1571.5518,450.87488 A 6.4109612,6.4109612 0 1 1 1558.7299,450.87488 A 6.4109612,6.4109612 0 1 1 1571.5518,450.87488 z" />
      <path
         style="fill:#000;stroke:#000;stroke-width:0.2;"
         d="M 1533.0861,486.04851 L 1537.9376,411.88929 L 1553.1853,404.95852 L 1598.9284,405.6516 L 1599.6215,408.07737 L 1554.2249,416.04775 L 1560.8091,485.35544 L 1533.0861,486.04851 z"
          />
      <path
         style="fill:#000;stroke:#000;stroke-width:0.2;"
         d="M 1538.9772,411.54275 L 1537.9376,393.52275 L 1530.3138,393.52275 L 1530.3138,390.75044 L 1527.888,390.4039 L 1527.5415,386.93852 L 1561.1557,386.93852 L 1561.1557,391.09698 L 1551.1061,394.56237 L 1553.5318,407.03775 L 1538.9772,411.54275 z"
          />
      <rect
         style="fill:#000;stroke:#020300;stroke-width:0.1;" width="13.861538"
         height="10.396153"
         x="1550.7595"
         y="394.56238" />
      <rect
         style="fill:#000;stroke:#020300;stroke-width:0.1;" width="12.475384"
         height="11.782307"
         x="1552.4922"
         y="431.98853" />
      <rect
         style="fill:#000;stroke:#020300;stroke-width:0.1;" width="24.25769"
         height="2.0792305"
         x="1582.6411"
         y="400.10699" />
      <rect
         style="fill:#000;stroke:#020300;stroke-width:0.1;" width="2.0792305"
         height="4.5049996"
         x="1593.3838"
         y="401.83966" />
      <rect
         style="fill:#000;stroke:#020300;stroke-width:0.1;" width="89.684525"
         height="1.4702381"
         x="1503.0734"
         y="489.09921" />
    </g>
    <rect
       y="980.57898"
       x="2199.6287"
       height="2.7723076"
       width="70.347305" style="fill:#000;stroke:#020300;stroke-width:0.1;" />
    <path 
       d="M 1595.7667,833.64831 L 1599.4229,871.20089 L 1645.1704,871.06597 L 1645.1704,833.65972 L 1595.7667,833.64831 z"
       style="fill:#000;fill-opacity:0.7;fill-rule:evenodd;stroke:#000;stroke-width:0.2;" />
    <path d="M 1611.7263,800.72554 L 1615.1917,795.18093 L 1622.9888,795.18093 L 1622.469,801.07208 L 1611.7263,800.72554 z"
       style="fill:#000;fill-opacity:0.7;fill-rule:evenodd;stroke:#000;stroke-width:0.2;" />
    <path d="M 1626.8007,794.83439 L 1626.4542,800.55227 L 1633.9047,800.379 L 1632.172,795.00766 L 1626.8007,794.83439 z"
       style="fill:#000;fill-opacity:0.7;fill-rule:evenodd;stroke:#000;stroke-width:0.2;" />
    <path d="M 1637.3701,795.18093 C 1637.7167,795.874 1639.1028,800.379 1639.1028,800.379 L 1644.994,800.379 L 1641.8751,795.00766 L 1637.3701,795.18093 z"
       style="fill:#000;fill-opacity:0.7;fill-rule:evenodd;stroke:#000;stroke-width:0.2;" />
    <rect
       y="805.92358"
       x="1612.0729"
       height="9.5298071"
       width="10.396153" style="fill:#000;stroke:#020300;stroke-width:0.1;" />
    <rect
       y="805.57709"
       x="1626.6274"
       height="10.222884"
       width="9.5298071" style="fill:#000;stroke:#020300;stroke-width:0.1;" />
    <rect
       y="805.57709"
       x="1639.2761"
       height="9.7030764"
       width="6.5842304" style="fill:#000;stroke:#020300;stroke-width:0.1;" />
    <rect
       y="845.94879"
       x="1612.0729"
       height="9.5298071"
       width="13.168461" style="fill:#000;stroke:#020300;stroke-width:0.1;" />
    <rect
       y="845.77557"
       x="1627.3206"
       height="9.7030764"
       width="6.930769" style="fill:#000;stroke:#020300;stroke-width:0.1;" />
    <rect
       y="858.94403"
       x="1612.4193"
       height="5.371346"
       width="12.475384" style="fill:#000;stroke:#020300;stroke-width:0.1;" />
    <rect
       y="858.59747"
       x="1626.974"
       height="5.7178845"
       width="6.2376919" style="fill:#000;stroke:#020300;stroke-width:0.1;" />
    <rect
       y="841.27057"
       x="1578.9784"
       height="1.0396153"
       width="77.971153" style="fill:#000;stroke:#020300;stroke-width:0.1;" />
    <rect
       y="845.42902"
       x="1636.3306"
       height="10.222884"
       width="5.7178845" style="fill:#000;stroke:#020300;stroke-width:0.1;" />
    <rect
       y="858.59747"
       x="1636.3306"
       height="5.7178845"
       width="5.0248075" style="fill:#000;stroke:#020300;stroke-width:0.1;" />
    <path d="M 1646.5534,845.60227 L 1646.5534,855.47862 L 1652.098,855.47862 L 1654.1772,845.429 L 1646.5534,845.60227 z"
       style="fill:#000;stroke:#000;stroke-width:0.2;" />
    <rect
       y="858.42419"
       x="1646.2069"
       height="5.8911533"
       width="5.371346" style="fill:#000;stroke:#020300;stroke-width:0.1;" />
    <g
       style="fill:#000"
       transform="translate(10.545395,316.40972)">
      <rect
         style="fill:#000;stroke:#020300;stroke-width:0.1;" width="2.2525635"
         height="18.713135"
         x="1663.9043"
         y="593.30219" />
      <path
         style="fill:#000;stroke:#000;stroke-width:0.2;"
         d="M 1657.8399,592.95562 C 1658.7063,593.30216 1671.7014,593.12889 1671.7014,593.12889 L 1671.5282,583.25255 C 1671.6437,577.44023 1657.5511,577.65666 1657.8399,583.25255 L 1657.8399,592.95562 z"  />
    </g>
    <rect
       ry="0"
       y="807.46924"
       x="1286.712"
       height="28.424603"
       width="23.523809" style="fill:#000;stroke:#000;stroke-width:0.5;" />
    <rect
       ry="0"
       y="807.22418"
       x="1316.1167"
       height="28.424603"
       width="9.0664682" style="fill:#000;stroke:#000;stroke-width:0.5;" />
    <rect
       ry="0"
       y="807.46924"
       x="1268.4567"
       height="28.424603"
       width="13.477182"
       style="fill:#000;stroke:#000;stroke-width:0.5;" />
    <rect
       y="839.19135"
       x="1149.2708"
       height="2.7723076"
       width="305.64691"
       style="fill:#000;stroke:#373937;stroke-width:0.5;" />
    <rect
       y="871.07288"
       x="1146.4984"
       height="2.0792305"
       width="309.80536"
       style="fill:#000;stroke:#373937;stroke-width:0.5;" />
    <rect
       y="940.28076"
       x="973.55139"
       height="11.761905"
       width="45.577381"
       style="fill:#000;stroke:#020300;stroke-width:0.5;" />
  </g>
  
</svg>
