<?xml version="1.0" encoding="UTF-8" standalone="no"?>
<?xml-stylesheet type="text/css" href="ship.css" ?>
<svg version="1.1" xmlns="http://www.w3.org/2000/svg" xmlns:xlink="http://www.w3.org/1999/xlink" top="0" left="0">
    <path class="body"
 d="M36,124L183,124C191,116 191,116 191,108L40,108C38,108 38,108 36,107L4,91L4,92C36,109 36,116 36,124z"/>

      <path class="snail1"
   d="M 157,77 184,66 203,98 157,104 157,77 z"/>
      <path
   d="M 157,106 203,99 203,98 157,104 157,106 z"/>
      <path
   d="M 157,77 184,66 184,65 157,75 157,77 z" />


      <path
   d="M 158,25 157,25 156,37 155,108 158,108 158,25 z"/>
      <path
   d="M 141,54 175,54 175,53 158,52 141,53 141,54 z"/>
      <path
   d="M 179,77 137,77 137,76 158,75 179,76 179,77 z"/>
      <path
   d="M 153,27 163,27 163,26 153,26 153,27 z"/>
      <path class="snail2"
   d="M 137,76 C 137,76 148,74 158,74 168,74 179,76 179,76 L 175,54 141,54 137,76 z"/>
      <path  class="snail2"
   d="M 141,53 C 141,53 150,51 158,51 166,51 175,53 175,53 L 170,39 146,39 141,53 z"/>
      <path
   d="M 146,39 170,39 170,38 158,37 146,38 146,39 z"/>
      <path class="snail3"
   d="M 146,38 C 146,38 152,36 158,36 164,36 170,38 170,38 L 163,27 153,27 146,38 z"/>
      <path class="snail4"
   d="M 137,77 179,77 179,79 C 174,79 173,80 168,80 163,80 162,79 158,79 154,79 153,80 147,80 141,80 140,79 137,79 L 137,77 z"/>


      <path
   d="M 122,5 121,5 120,19 119,108 122,108 122,5 z"/>
      <path
   d="M 101,42 143,42 143,41 122,40 101,41 101,42 z"/>
      <path
   d="M 148,69 96,69 96,68 122,67 148,68 148,69 z"/>
      <path class="snail3"
   d="M 94,108 C 94,108 108,105 122,105 136,105 150,108 150,108 L 148,69 96,69 94,108 z"/>
      <path
   d="M 115,8 129,8 129,7 115,7 115,8 z"/>
      <path  class="snail3"
   d="M 96,68 C 96,68 109,65 122,65 135,65 148,68 148,68 L 143,42 101,42 96,68 z"/>
      <path class="snail6"
   d="M 101,41 C 101,41 112,39 122,39 132,39 143,41 143,41 L 137,22 107,22 101,41 z"/>
      <path
   d="M 107,22 137,22 137,21 122,20 107,21 107,22 z"/>
      <path class="snail5"
   d="M 107,21 C 107,21 114,19 122,19 130,19 137,21 137,21 L 129,8 115,8 107,21 z"/>



      <path
   d="M 86,15 85,15 84,29 83,108 86,108 86,15 z"/>
      <path
   d="M 67,48 105,48 105,47 86,46 67,47 67,48 z"/>
      <path
   d="M 109,73 63,73 63,72 86,71 109,72 109,73 z"/>
      <path class="snail6"
   d="M 61,108 C 61,108 74,105 86,105 98,105 111,108 111,108 L 109,73 63,73 61,108 z"/>
      <path
   d="M 80,18 92,18 92,17 80,17 80,18 z"/>
      <path class="snail6"
   d="M 63,72 C 63,72 74,70 86,70 98,70 109,72 109,72 L 105,48 67,48 63,72 z"/>
      <path  class="snail5"
   d="M 67,47 C 67,47 76.6,45 86,45 95,45 105,47 105,47 L 100,31 72,31 67,47 z"/>
      <path
   d="M 72,31 100,31 100,30 86,29 72,30 72,31 z"/>
      <path class="snail8"
   d="M 72,30 C 72,30 78,28 86,28 94,28 100,30 100,30 L 92,18 80,18 72,30 z"/>

      <path class="snail8"
   d="M 79,104 C 62,104 45,108 45,108 L 84,46 79,104 z"/>
      <path class="snail9"
   d="M 63,101 C 47,101 28,103 28,103 L 84,29 63,101 z"/>
      <path class="snail10"
   d="M 34,98 C 34,98 19,91 4,91 L 85,17 34,98 z"/>

</svg>
