<?xml version="1.0" encoding="UTF-8" standalone="no"?>
<svg
   xmlns:svg="http://www.w3.org/2000/svg"
   xmlns="http://www.w3.org/2000/svg"
   version="1.0"
   width="191.92558"
   height="187.64871">
  <path
     d="M 36.4,126.6 1.902,74.14 C 1.902,74.14 -2.971,65.96 4.614,66.65 7.918,66.85 8.053,71.65 8.053,71.65 L 22.91,61.4 C 22.91,61.4 22.81,46.88 29.87,39.34 27.7,38.08 25.69,36.65 25.69,36.65 25.69,36.65 40.81,36.65 49.91,36.65 49.91,34.32 50.03,27.65 50.03,27.65 L 29.91,27.73 33.96,22.26 29.94,16.67 50.03,16.71 50.03,11.65 C 50.03,6.455 48.18,5.748 51.5,5.85 54.82,5.952 56.7,8.26 55.07,9.891 54.32,10.65 53.91,15.49 53.91,23.85 L 53.91,36.65 71.98,36.65 C 58.85,56.41 68.91,76.6 68.91,76.6 66.4,76.55 63.85,76.6 63.85,76.6 63.85,76.6 73.04,91.53 73.98,91.6 78.32,86.67 81.11,82.3 85.13,76.55 83.02,76.51 80.26,76.55 75.63,76.55 68.36,57.91 74.54,43.73 85.91,29.65 L 83.16,27.65 100.5,27.65 100.6,22.15 80.81,22.25 84.02,17.16 80.93,11.65 100.5,11.65 100.5,6.016 C 100.5,6.016 98.6,1.884 100.8,0.6875 105.2,-1.657 107.5,1.643 104.4,6.339 103.2,8.126 102.8,11.66 103.1,18.78 L 103.5,27.65 127.8,27.65 C 127.8,27.65 109.2,45.25 121.7,76.55 116.4,76.55 114.8,76.55 114.8,76.55 114.8,76.55 119.5,82.56 121.5,85.77 123.5,89.01 125.6,91.63 126.2,91.6 126.9,91.57 130,88.32 133.1,84.35 L 139.1,76.55 127.1,76.55 130.9,73.58 C 125.7,64.49 128.1,47.72 134.2,39.27 134.7,38.59 130.6,36.65 130.6,36.65 130.6,36.65 143,36.65 151.9,36.65 151.9,33.65 151.9,27.65 151.9,27.65 L 133.9,27.76 137.8,22.29 C 137.8,22.29 135.5,19.03 133.8,16.71 L 150.9,16.71 151.4,8.73 C 151.4,8.73 149.4,3.649 153.3,3.649 157.2,3.649 158.5,5.556 156.4,8.302 155.3,9.663 154.9,8.956 154.9,8.956 L 154.9,36.65 174.7,36.65 C 166,58.66 166.2,58.88 174.8,76.55 167.4,76.59 154.9,76.65 154.9,76.65 L 154.9,91.54 C 154.9,91.54 158.4,91.67 164.8,91.63 170.6,91.59 173.6,88.21 180,81.53 184.9,76.39 185.7,74.95 185.3,72.71 184.6,69.47 186.9,67.19 189.9,68.13 192.3,68.91 192.7,73.41 190.4,74.3 183.1,85.51 173,107.9 173,107.9 L 169.5,107.2 C 166.6,106.6 165.8,106.9 164.9,108.7 163.9,110.5 164.1,111.3 166.4,113.7 L 169.1,116.5 164.4,126.6 z M 57.41,111.4 C 57.43,109 56.91,108.4 51.43,108.4 45.95,108.4 45.11,109 45.09,111.4 45.07,113.8 45.56,114.7 51.44,114.6 57.32,114.4 57.39,113.9 57.41,111.4 z M 77.41,111.4 C 77.51,109 77.11,108.5 71.96,108.5 66.81,108.4 65.81,108.9 65.91,111.4 66.01,113.9 66.27,114.6 71.93,114.6 76.79,114.5 77.31,113.9 77.41,111.4 z M 95.76,111.4 C 95.81,108.9 94.08,108.7 89.91,108.6 85.74,108.5 84.21,109.1 84.26,111.4 84.31,113.8 85.75,114.5 89.92,114.6 94.09,114.7 95.71,114 95.76,111.4 z M 115.5,111.4 C 115.6,108.9 114.1,108.4 109.2,108.4 104.3,108.4 103.2,108.9 103.1,111.3 103,113.8 104,114.5 109.2,114.6 114.4,114.6 115.5,114 115.5,111.4 z M 135.1,111.4 C 135.2,109 134.1,108.4 128.5,108.4 122.9,108.4 122,109.2 121.9,111.4 121.9,113.7 122.3,114.6 128.5,114.6 134.7,114.6 135.1,113.9 135.1,111.4 z M 109.2,96.76 C 109.2,96.35 109.2,96.28 108.4,95.21 107,93.35 106.9,96.76 106.9,96.76 106.9,96.76 108.7,96.76 109.2,96.76 z M 116.9,96.76 C 116.9,96.76 116.8,94 114.9,94.7 113.6,95.22 114.2,96.76 114.2,96.76 z M 57.06,96.76 54.14,94.06 54.12,96.76 z M 65.48,96.76 C 65.48,96.76 61.49,93.41 61.49,94.76 61.49,96.19 61.51,96.76 61.51,96.76 z M 73.49,96.76 C 73.49,96.76 71.42,94.05 70.6,94.57 69.98,94.97 70.25,96.76 70.25,96.76 z M 93.77,79.9 96.11,76.55 92.27,76.55 C 88.52,76.55 88.07,76.95 82.52,85.04 77.31,92.62 76.89,93.63 78.08,95.54 78.8,96.7 80.51,96.76 80.9,96.76 86.09,91.24 89.11,86.55 93.77,79.9 z M 125.7,96.76 C 125.7,96.76 123.8,94.38 122.9,94.94 121.9,95.56 122.9,96.76 122.9,96.76 z M 139.1,88.46 C 147.8,75.75 147.5,76.55 147.5,76.55 L 142.7,76.58 128.5,93.59 C 129.2,95.45 130.4,95.58 132.5,96.76 132.9,96.76 135.6,93.51 139.1,88.46 z M 32.51,96.76 46.26,76.55 37.89,76.55 25.91,91.65 C 25.92,97.25 32.51,96.76 32.51,96.76 z M 47.86,79.11 36.68,96.65 47.74,96.76 z M 99.13,76.55 C 95.21,83.04 89.38,89.44 85.91,96.18 90.43,96.89 93.98,96.65 98.91,96.65 98.91,90.19 99.13,83.01 99.13,76.55 z M 142.9,93.65 C 144.6,92.07 144.6,91.63 145.7,91.63 147.5,91.63 150.1,91.59 150.1,91.59 L 150,76.55 135.7,96.64 C 135.7,96.64 139.6,97.41 142.9,93.65 z M 114.3,93.11 C 114.6,92.23 114.2,91.32 113.4,90.99 111.4,90.24 110.5,91.14 111.3,93.11 112,95.08 113.5,95.09 114.3,93.11 z M 121.9,92.15 C 121.9,91.32 121,90.65 119.9,90.65 118.8,90.65 117.9,91.32 117.9,92.15 117.9,92.98 118.8,93.65 119.9,93.65 121,93.65 121.9,92.98 121.9,92.15 z M 34.01,76.55 C 34.01,76.55 27.34,76.56 23.74,76.55 23.45,72.72 23.57,69.62 22.56,65.96 22.06,65.47 9.914,74.47 9.914,75.33 9.914,78.22 20.96,92.65 20.96,92.65 z M 69.41,91.65 C 69.07,91.1 68.12,90.65 67.3,90.65 66.47,90.65 66.07,91.1 66.41,91.65 66.75,92.2 67.71,92.65 68.53,92.65 69.36,92.65 69.75,92.2 69.41,91.65 z M 61.41,90.65 C 61.07,90.1 60.17,89.65 59.41,89.65 58.65,89.65 57.75,90.1 57.41,90.65 57.06,91.22 57.92,91.65 59.41,91.65 60.9,91.65 61.77,91.22 61.41,90.65 z M 57.91,86.85 C 57.91,85.81 55.75,83.65 54.71,83.65 54.27,83.65 53.91,84.55 53.91,85.65 53.91,86.98 54.58,87.65 55.91,87.65 57.01,87.65 57.91,87.29 57.91,86.85 z M 65.3,86.23 C 64.72,84.71 61.95,83.28 61.15,84.08 60.08,85.15 61.98,87.65 63.85,87.65 65.17,87.65 65.66,87.16 65.3,86.23 z M 110.9,86.77 C 110.9,85.33 108.1,83.43 107,84.12 104.9,85.37 105.9,87.65 108.4,87.65 109.8,87.65 110.9,87.25 110.9,86.77 z M 117.9,85.65 C 116.7,83.41 112.9,82.91 112.9,84.98 112.9,86.92 113.9,87.65 116.6,87.65 118.7,87.65 118.8,87.39 117.9,85.65 z M 59.91,79.65 C 59.91,78.09 59.25,77.65 56.91,77.65 54.58,77.65 53.91,78.09 53.91,79.65 53.91,81.2 54.58,81.65 56.91,81.65 59.25,81.65 59.91,81.2 59.91,79.65 z M 112.7,79.5 C 112.3,76.61 107.6,76.55 107.6,76.55 107.6,76.55 107,78.05 108.4,79.63 110.8,82.32 113.1,82.26 112.7,79.5 z"
     style="fill:#000000"/>
</svg>
