<?xml version="1.0" encoding="UTF-8"?>
<?xml-stylesheet type="text/css" href="tv.css" ?>
<svg version="1.1"
  xmlns="http://www.w3.org/2000/svg"
  xmlns:xlink="http://www.w3.org/1999/xlink"
  preserveAspectRatio="none"
  width="100%" height="100%"> 
  <title>TV SVG</title>

<defs>
  <path id="templateTvBody" class="template" d="M 41,10 C 29,11 16,17 14,29 1,73 6,115 14,157 16,171 30,174 41,176 95,185 151,183 207,176 219,175 233,169 234,157 241,116 247,73 234,28 230,15 217,11 206,10 150,4 94,3 41,10 z M 164,30 C 167,31 171,31 174,33 182,73 178,113 174,153 171,155 167,156 164,156 107,163 94,164 43,156 39,156 35,153 30,153 25,112 24,72 32,33 35,31 40,31 43,30 87,25 125,24 164,30 z"/>
  <path id="templateTvScreenFrame" class="template" d="M 28,21 C 68,18 107,18 147,21 149,21 150,23 150,24 154,54 152,92 150,122 150,124 149,125 147,125 108,128 70,130 28,125 27,125 26,124 26,122 21,95 22,57 26,24 26,23 27,21 28,21 z M 12,6 C 68,1 108,2 164,6 166,6 168,8 168,10 174,52 171,94 168,137 168,139 166,140 164,141 110,144 70,148 12,141 10,140 8,139 8,137 1,99 2,57 8,10 8,8 10,6 12,6 z"/>

  <path id="templateTvAntenna" class="template" d="M 92,25 C 66,28 22,28 3,25 3,13 23,3 47,3 72,3 92,13 92,25 z"/>
  <path id="templateTvPanel" class="template" d="M 17,2 C 26,2 33,8 33,15 L 33,67 C 33,75 26,81 17,81 9,81 2,75 2,67 L 2,15 C 2,8 9,2 17,2 z"/>

  <path id="templateTvSwitcher" class="template" d="M 10,0 C 4,0 0,4 0,10 0,15 4,20 10,20 15,20 20,15 20,10 20,4 15,0 10,0 z M 10,3 C 13,3 16,5 17,8 L 3,8 C 4,5 7,3 10,3 z M 17,11 C 16,15 13,17 10,17 7,17 4,15 3,11 A 1,1 0 0 0 3,11 L 17,11 z"/>

  <marker id="markerTvAntennaCap" viewBox="0 0 50 50" refX="25" refY="25">
    <circle r="20" cx="25" cy="25"/>
  </marker>

  <marker id="markerTvLegCap" viewBox="0 0 60 60" refX="36" refY="15">
    <path d="M 50,47 12,47 0,19 31,0 61,19 z"/>
  </marker>

  <pattern id="patternTvBody" patternUnits="userSpaceOnUse" width="10" height="10">
    <rect width="10" height="10"/>
    <path d="M0,0 L10,10 M10,0 L0,10"/>
  </pattern>

  <radialGradient id="gradientTvFrame">
    <stop style="stop-color:#111" offset="0%"/>
    <stop style="stop-color:#555" offset="100%"/>
  </radialGradient>

  <radialGradient id="gradientTvAntenna">
    <stop style="stop-color:#333" offset="50%"/>
    <stop style="stop-color:#555" offset="100%"/>
  </radialGradient>

  <linearGradient id="gradientTvPanel">
    <stop style="stop-color:#555" offset="0%"/>
    <stop style="stop-color:#333" offset="50%"/>
    <stop style="stop-color:#555" offset="100%"/>
  </linearGradient>

  <g id="switchTwoButton">
    <circle cx="10" cy="10" r="10" />
    <use id="switchTwo" xlink:href="#templateTvSwitcher"/>
  </g>
  <g id="switchOneButton">
    <circle cx="10" cy="10" r="10" />
    <use id="switchOne" xlink:href="#templateTvSwitcher"/>
  </g>

  <g id="led">
    <circle cx="0" r="3" id="led1" />
    <circle cx="10" r="3" id="led2" />
    <circle cx="20" r="3" id="led3" />
  </g>

  <g id="tvPanel">
    <use xlink:href="#templateTvPanel" x="95" y="33" fill="url(#gradientTvPanel)"/>
    <use xlink:href="#switchOneButton" x="103" y="80" />
    <use xlink:href="#switchTwoButton" x="103" y="50" />
    <use xlink:href="#led" x="100" y="140" />
  </g>


  <g id="tvAntenna">
    <path d="M200,0 L115,35 L30,0" class="antenna-line" marker-start="url(#markerTvAntennaCap)" marker-end="url(#markerTvAntennaCap)" />
    <use xlink:href="#templateTvAntenna" x="67" y="25" fill="url(#gradientTvAntenna)"/>
  </g>

  <g id="tvBody">
    <path d="M210,185 L125,155 L40,185" class="leg-line" marker-end="url(#markerTvLegCap)" marker-start="url(#markerTvLegCap)"/>
    <use xlink:href="#templateTvBody" x="0" y="0"  fill="url(#patternTvBody)"/>
    <use xlink:href="#templateTvScreenFrame" x="20" y="20" fill="url(#gradientTvFrame)"/>
  </g>

  <g id="tvSet">
    <use x="0" y="0" xlink:href="#tvAntenna" />
    <use x="0" y="40" xlink:href="#tvBody" />
    <use x="100" y="40" xlink:href="#tvPanel" />
  </g>

  <text id="textSVG">SVG</text>

  <g id="image">
    <rect x="40" y="70" width="160" height="130"/>
    <use x="60" y="150" xlink:href="#textSVG" />
  </g>

  <g id="fullTV">
    <use xlink:href="#image" />
    <use xlink:href="#tvSet" />
  </g>

</defs>

<use x="1%" y="4%" xlink:href="#fullTV" transform="scale(0.9)" />


</svg>
