<?xml version="1.0" encoding="UTF-8" standalone="no"?>
<?xml-stylesheet type="text/css" href="airplane.css" ?>
<svg version="1.1" xmlns="http://www.w3.org/2000/svg" xmlns:xlink="http://www.w3.org/1999/xlink" top="0" left="0">
  <defs>
    <path id="planePart200" d="M 2.1099217,36.447243 C -0.6170212,28.710883 2.2829511,18.86372 -0.66292432,12.27215 -0.70352332,12.148018 -2.3946423,11.563547 -5.7382843,10.51973 L -5.7340803,9.2197389 C -5.6081473,8.9311449 -4.9050093,8.5804169 -3.6226903,8.1745609 -2.0930913,7.6825039 -1.2450903,7.3742439 -1.0786933,7.2517819 -1.1368285,6.0131474 -0.72718831,4.7861941 -1.5004673,3.7793997 -5.7975103,3.4765039 -9.5333563,3.1134223 -12.714007,2.6911356 -14.090206,8.4378769 -13.957639,9.4071479 -15.349654,13.092666 -15.681054,13.834598 -16.076326,14.227322 -16.528453,14.26586 -18.553442,14.259313 -19.583297,12.975976 -19.615013,10.41386 L -19.611007,9.1748679 C -19.49915,6.7421973 -19.533253,4.3027383 -19.525364,1.8631071 -21.709655,1.9137298 -22.245175,-0.05542516 -22.245175,-0.05542516 L 22.367621,-0.08448478 C 22.367621,-0.08448478 20.397088,2.7151989 16.34724,3.2801069 15.975242,3.278904 13.702051,3.334554 9.5306747,3.4440667 9.4456697,4.063795 9.2775957,5.0142566 9.0254587,6.293448 10.058453,6.2967881 11.173186,6.381393 12.369639,6.5522626 12.781632,7.1735979 13.173829,7.7318689 13.54322,8.2300659 13.872559,8.4351319 14.346415,8.7896659 14.963811,9.2866649 14.75701,9.5339972 14.32148,10.00659 13.65821,10.707449 13.616008,11.079314 13.365606,11.512507 12.910004,12.007036 12.619744,12.087098 11.153882,12.35136 8.5074207,12.798805 8.1516613,20.835593 7.7708201,28.72675 6.6352927,36.648876 6.6347627,36.812875 6.3548977,37.079972 5.7966917,37.452169 4.3544241,38.487457 2.8427077,37.50441 2.1099217,36.447243 z" />

  <path id="planePart300" d="M 9.69,44.43 C 9.239,44.43 8.2,44.17 6.56,43.64 6.109,42.05 5.316,38.47 4.181,33.03 L 1.039,17.91 C 0.8683,16.98 0.5293,15.52 0.0195,13.34 -0.3181,13.01 -0.7719,12.37 -1.335,11.44 L -1.081,11.03 -0.8293,10.7 -1.336,10.21 C -1.336,10.1 -1.253,9.915 -1.082,9.677 -0.9141,9.425 -0.8307,9.173 -0.8307,8.894 -0.8321,6.918 -1.54,5.632 -2.953,5.035 -3.623,4.757 -6.056,4.518 -10.24,4.306 -11.93,4.24 -14.49,4.134 -18.04,3.974 -18.59,5.287 -19.27,7.223 -20.37,9.77 -21.32,12.32 -22.55,13.67 -24.06,13.67 -26.38,13.67 -27.47,12.12 -27.47,8.828 L -27.47,2.012 C -27.88,1.733 -29.52,0.0937 -29.52,0.0937 -21.05,-0.1848 34.17,-0.1968 34.17,-0.1968 34.17,-0.1968 32.94,1.946 30.62,2.715 29.25,3.205 27.61,3.537 25.7,3.709 25.56,4.081 25.15,4.439 24.74,4.77 L 24.6,4.77 C 24.33,4.77 23.78,4.571 22.69,4.2 18.86,4.2 16.13,4.279 14.35,4.452 13.67,4.452 13.09,4.916 12.64,5.844 12.3,6.613 12.12,7.409 12.14,8.231 14.08,7.9 15.72,7.727 16.81,7.727 17.9,7.727 18.72,7.9 19.13,8.218 19.13,7.78 19.27,6.905 19.54,5.592 19.82,5.871 19.82,6.746 19.82,8.218 19.82,9.319 20.23,10.06 20.91,10.45 20.77,10.94 20.5,11.35 19.95,11.68 19.95,12.94 19.82,14.46 19.54,16.32 19.41,15.39 19.27,14.2 19,12.91 18.59,13.12 17.08,13.24 14.76,13.24 L 12.38,13.24 12.3,12.99 12.33,43.24 11.82,43.9 C 11.03,44.17 10.32,44.3 9.69,44.43 z" />

  <path id="planePart400" d="M 1.09,36.73 C -2.704,36.73 -6.896,36.41 -11.53,35.61 -11.71,35.46 -11.93,34.97 -12.17,34.5 -11.73,34.5 -11.09,34.33 -10.2,34.17 -9.314,34.01 -8.649,33.85 -8.224,33.85 -7.441,33.85 -6.896,34.01 -6.585,34.5 L -6.481,4.68 C -8.861,4.665 -11.78,4.457 -15.26,4.058 -15.44,4.44 -16.09,4.649 -17.2,4.631 -18.35,4.631 -19.67,4.568 -21.3,4.425 -21.9,6.597 -22.77,9.755 -24.1,13.92 -25.42,14.38 -26.92,14.61 -28.25,14.59 L -30.16,14.59 -30.16,2.316 C -31.64,1.714 -32.37,-0.0443 -32.37,-0.0443 L 34.64,-0.1824 C 34.64,-0.1824 30.95,3.481 23.57,4.121 20.61,4.361 16.04,4.488 10.25,4.457 L 10.25,5.352 C 10.25,6.277 10.11,7.093 9.896,7.828 9.467,7.811 8.881,7.955 8.156,8.21 8.156,9.202 7.937,10.39 7.553,11.78 7.134,13.17 6.871,14.38 6.741,15.44 6.741,16.03 6.836,16.6 7.002,17.24 6.713,17.24 6.371,17.88 6.012,19 5.876,19.79 5.73,20.59 5.536,21.23 5.73,21.23 5.963,21.39 6.274,21.71 5.963,22.03 5.555,22.67 5.068,23.62 5,23.95 4.825,25.06 4.514,26.66 4.63,26.83 4.865,27.3 5.243,27.78 4.922,28.1 4.602,28.42 4.233,28.58 4.096,29.54 3.823,30.98 3.393,32.89 L 3.853,33.54 7.046,33.85 C 8.314,34.01 9.293,34.5 9.949,34.81 9.415,36.09 6.45,36.73 1.09,36.73 z" />

  <path id="planePart500" d="M -6.699,36.67 C -8.039,36.77 -9.879,36.23 -12.19,35.07 -11.64,32.92 -8.817,27.38 -3.742,18.5 -4.836,18.28 -5.883,17.81 -6.859,17.13 L -6.846,11.99 C -5.739,11.63 -4.04,11.48 -1.723,11.5 -1.662,10.8 -1.587,9.779 -1.525,8.422 -1.523,7.15 -1.715,6.345 -2.068,6.013 -4.268,4.976 -8.176,4.431 -13.8,4.399 -15.69,4.389 -16.87,4.492 -17.36,4.713 -21.4,10.2 -24.05,12.93 -25.34,12.91 -25.86,12.9 -26.44,12.74 -26.97,12.38 -26.97,11.46 -25.58,8.404 -22.75,3.162 -22.8,2.69 -24.01,1.993 -26.32,1.067 -24.66,1.078 -23.56,0.9726 -22.94,0.7538 L -22.84,-0.2696 41.13,-0.2392 C 41.13,-0.2392 36.54,2.098 33.63,3.105 31.48,3.786 29.08,4.576 26.38,5.474 23.33,6.146 19.24,6.347 14.03,6.099 12.62,7.695 11.25,9.684 9.901,12.08 12.11,12.09 14.26,12.32 16.4,12.77 L 16.4,17.07 C 13.47,17.06 9.641,17.6 4.944,18.72 4.587,19.52 3.876,21.01 2.839,23.16 4.908,23.17 6.988,23.51 9.057,24.05 6.442,24.03 4.152,24.08 2.203,24.21 1.579,25.68 0.1729,28.33 -2.035,32.25 0.0482,32.25 2.233,32.52 4.566,33.14 1.995,33.36 -0.6047,33.72 -3.218,34.29 -3.767,35.77 -4.936,36.57 -6.699,36.67 z" />

  <path id="planePart600" d="M -11.65,24.53 C -12.66,24.53 -14.57,24.23 -17.39,23.59 -15.87,20.83 -12.44,14.82 -7.096,5.591 L -7.013,5.026 C -8.188,4.829 -11.59,4.555 -17.22,4.173 -18,4.994 -19.24,6.211 -20.92,7.853 -22.38,9.041 -23.86,9.663 -25.31,9.739 -26.26,9.8 -27.3,9.739 -28.42,9.54 -28.26,9.038 -27.44,7.746 -25.99,5.677 -24.8,3.99 -24.2,2.818 -24.2,2.194 -24.2,1.753 -24.32,1.373 -24.55,1.069 -25.44,1.068 -26.34,0.931 -27.24,0.6888 -26.85,0.6118 -24.55,-0.2224 -24.55,-0.2224 L 34.98,-0.1135 C 34.98,-0.1135 33.59,2.145 32.53,2.387 32.3,2.449 30.33,2.647 26.62,2.95 L 19.63,3.618 19.45,5.032 17.77,5.032 C 15.69,5.032 14.31,4.972 13.64,4.835 12.07,4.833 10.77,5.092 9.764,5.594 9.144,5.898 5.687,9.304 -0.6072,15.77 L -0.6072,16.33 C -3.533,19.6 -6.004,22.05 -8.032,23.69 -8.757,24.26 -9.962,24.53 -11.65,24.53 z" />

  <path id="planePart700" d="M -13.98,19.59 C -15.53,19.56 -16.64,18.81 -17.28,17.21 -15.4,15.48 -12.51,12.54 -8.703,8.487 -9.575,8.36 -10.34,8.108 -11.01,7.61 -11.7,6.974 -12.98,5.73 -14.86,3.73 -15.52,3.85 -16.74,4.215 -18.73,4.81 -20.17,5.299 -21.49,5.526 -22.71,5.52 -23.14,5.517 -23.7,5.501 -24.46,5.25 -24.46,4.88 -24.45,4.508 -24.22,4.386 -24.12,4.138 -17.48,-0.196 -17.48,-0.196 L 27.32,-0.0956 C 27.32,-0.0956 -1.73,14.01 -13.98,19.59 z" />

  <path id="planePart210" d="M -9.943,32.38 C -10.27,31.58 -10.62,30.79 -11,29.79 -10.68,29.39 -10.39,28.99 -10.13,28.59 -10.08,28.4 -8.405,20.6 -5.093,5.595 -6.889,5.514 -8.593,4.67 -10.32,4.439 -11.71,4.439 -13.77,6.053 -16.39,9.262 L -22.03,16.87 C -23.55,16.98 -25.17,16.68 -26.18,15.9 -26.19,15.5 -25.64,11.71 -24.42,4.738 -24.14,4.14 -23.59,3.921 -22.76,3.921 -23.47,3.518 -24.34,1.379 -24.71,-0.1217 L 44.35,-0.1503 C 44.35,-0.1503 33.62,3.977 23.68,4.014 22.74,6.207 21.25,6.412 19.23,6.631 L 13.72,6.651 C 6.729,13.53 1.798,22.05 -2.829,29.13 -0.934,29.13 0.465,29.31 1.351,29.31 1.474,29.51 1.988,29.91 2.876,30.69 2.184,30.89 1.521,31.11 0.886,31.7 0.749,31.5 0.567,31.3 0.318,31.11 L -9.38,31.17 z" />

  <path id="planePart310" d="M -14.76,28.04 C -15.17,28.04 -15.58,27.89 -16.13,27.43 -16.67,27 -16.95,26.55 -16.95,26.24 -16.95,25.66 -16.27,23.98 -15.04,21.14 -13.68,18.29 -13,16.51 -13,15.91 L -13.14,16.06 C -12.32,13.81 -10.82,10.67 -8.778,6.324 -9.051,6.324 -9.87,6.174 -11.51,6.174 -12.19,6.174 -12.74,6.174 -13.01,6.324 -16.69,9.334 -20.24,12.33 -24.06,15.17 -25.28,14.57 -25.96,13.82 -25.96,12.79 -25.96,12.18 -25.56,9.632 -24.74,5.141 L -25.84,4.543 C -25.85,3.194 -25.85,2.147 -25.99,1.849 -26.53,1.699 -27.21,1.4 -28.3,1.103 -28.16,0.8038 -27.76,0.654 -27.07,0.5029 -26.53,0.5029 -25.99,-0.3243 -25.99,-0.3243 L 36.39,-0.3139 C 36.39,-0.3139 33.38,1.638 30.65,2.837 29.15,3.585 26.15,4.05 21.52,4.198 21.92,4.198 18.92,4.198 12.78,4.063 12.66,4.812 12.24,5.411 11.7,6.011 9.107,6.011 7.333,6.31 6.377,7.058 7.195,7.208 8.427,7.657 10.34,8.405 9.649,9.603 7.333,10.35 3.51,10.35 0.6447,10.35 -0.8565,10.2 -1.13,10.2 L -5.634,16.35 C -5.361,16.35 -4.678,16.51 -3.859,16.95 -3.859,16.95 -4.815,17.1 -6.316,17.25 -7.135,18.44 -8.486,20.55 -10.54,23.39 -12.85,26.54 -14.22,28.04 -14.76,28.04 z" />

  <path id="planePart410" d="M -12.56,31.21 -11.8,8.901 C -11.81,8.352 -12.22,7.945 -12.77,7.946 L -12.21,8.08 C -13.44,8.082 -14.8,8.088 -16.17,8.363 -16.57,8.64 -18.34,10.15 -21.6,13.04 -24.32,15.36 -26.09,16.59 -26.63,16.73 -26.36,16.74 -27.32,16.19 -29.37,15.26 -28.97,14.97 -28.71,13.87 -28.71,11.95 -28.57,9.901 -28.15,8.808 -27.48,8.258 -27.48,8.258 -26.67,7.71 -25.31,7.022 -25.57,6.613 -26.11,6.476 -26.93,6.48 L -28.71,6.483 C -28.84,6.486 -28.84,6.486 -29.11,6.486 L -28.98,6.486 C -28.03,6.207 -27.48,5.661 -27.34,4.7 L -27.65,4.295 C -27.65,3.884 -27.21,3.472 -26.4,3.058 -26.81,2.24 -27.07,1.692 -27.49,1.419 -27.65,1.283 -28.19,1.148 -29.27,1.152 L -29.27,-0.1076 33.71,-0.2543 C 33.71,-0.2543 30.56,0.3014 26.88,1.542 25.12,2.095 23.08,2.375 20.89,2.654 L 14.35,2.672 C 13.67,2.674 13.4,3.358 13.67,5 12.58,5.412 9.457,6.653 4.007,8.719 2.657,8.998 1.551,9.272 0.8708,9.55 -0.4819,10.24 -1.302,10.78 -1.578,11.47 -1.565,11.88 -2.104,13.4 -3.069,15.97 L -3.33,16.67 C -5.484,23.11 -7.11,27.49 -7.937,29.68 -8.197,30.23 -9.698,30.77 -12.56,31.21 z" />

    <g id="airplane200">
      <use xlink:href="#planePart200" />
      <use xlink:href="#planePart200" transform="scale(1, -1) " />
    </g>

    <g id="airplane300">
      <use xlink:href="#planePart300" />
      <use xlink:href="#planePart300" transform="scale(1, -1) " />
    </g>

    <g id="airplane400">
      <use xlink:href="#planePart400" />
      <use xlink:href="#planePart400" transform="scale(1, -1) " />
    </g>

    <g id="airplane500">
      <use xlink:href="#planePart500" />
      <use xlink:href="#planePart500" transform="scale(1, -1) " />
    </g>

    <g id="airplane600">
      <use xlink:href="#planePart600" />
      <use xlink:href="#planePart600" transform="scale(1, -1) " />
    </g>

    <g id="airplane700">
      <use xlink:href="#planePart700" />
      <use xlink:href="#planePart700" transform="scale(1, -1) " />
    </g>

    <g id="airplane210">
      <use xlink:href="#planePart210" />
      <use xlink:href="#planePart210" transform="scale(1, -1) " />
    </g>

    <g id="airplane310">
      <use xlink:href="#planePart310" />
      <use xlink:href="#planePart310" transform="scale(1, -1) " />
    </g>

    <g id="airplane410">
      <use xlink:href="#planePart410" />
      <use xlink:href="#planePart410" transform="scale(1, -1) " />
    </g>

    <path id="trap"
       stroke-dasharray="10,10"
       style="fill:none;stroke:#aaa"
       d="M 0,99 C 3,99 1222,64 1224,400 1226,788 319,774 342,400 364,25 986,184 999,-200" /> 
  </defs>

  <path style="stroke:#eee;stroke-width:70px" d="M0,100 L200,100" />
  <use xlink:href="#trap" />

  <g id="airplaneList">
    <g class="plane">
      <circle cx="90" cy="200" r="48" />
      <use x="90" y="200" xlink:href="#airplane200"/>
    </g>
    <g class="plane">
      <circle cx="190" cy="200" r="48" />
      <use x="190" y="200" xlink:href="#airplane210"/>
    </g>
    <g class="plane">
      <circle cx="90" cy="300" r="48" />
      <use x="90" y="300" xlink:href="#airplane300"/>
    </g>
    <g class="plane">
      <circle cx="190" cy="300" r="48" />
      <use x="190" y="300" xlink:href="#airplane310"/>
    </g>
    <g class="plane">
      <circle cx="90" cy="400" r="48" />
      <use x="90" y="400" xlink:href="#airplane400"/>
    </g>
    <g class="plane">
      <circle cx="190" cy="400" r="48" />
      <use x="190" y="400" xlink:href="#airplane410"/>
    </g>
    <g class="plane">
      <circle cx="90" cy="500" r="48" />
      <use x="90" y="500" xlink:href="#airplane500"/>
    </g>
    <g class="plane">
      <circle cx="90" cy="600" r="48" />
      <use x="90" y="600" xlink:href="#airplane600"/>
    </g>
    <g class="plane">
      <circle cx="90" cy="700" r="48" />
      <use x="90" y="700" xlink:href="#airplane700"/>
    </g>  
  </g>

  <g id="animationFrame">
  </g>

  <script xlink:href="airplane.js"></script>  

</svg>
