<?xml version="1.0" encoding="UTF-8" standalone="no"?>
<svg version="1.1" xmlns="http://www.w3.org/2000/svg" xmlns:xlink="http://www.w3.org/1999/xlink" top="0" left="0">
  <defs>
    <path id="planePart600" d="M -11.65,24.53 C -12.66,24.53 -14.57,24.23 -17.39,23.59 -15.87,20.83 -12.44,14.82 -7.096,5.591 L -7.013,5.026 C -8.188,4.829 -11.59,4.555 -17.22,4.173 -18,4.994 -19.24,6.211 -20.92,7.853 -22.38,9.041 -23.86,9.663 -25.31,9.739 -26.26,9.8 -27.3,9.739 -28.42,9.54 -28.26,9.038 -27.44,7.746 -25.99,5.677 -24.8,3.99 -24.2,2.818 -24.2,2.194 -24.2,1.753 -24.32,1.373 -24.55,1.069 -25.44,1.068 -26.34,0.931 -27.24,0.6888 -26.85,0.6118 -24.55,-0.2224 -24.55,-0.2224 L 34.98,-0.1135 C 34.98,-0.1135 33.59,2.145 32.53,2.387 32.3,2.449 30.33,2.647 26.62,2.95 L 19.63,3.618 19.45,5.032 17.77,5.032 C 15.69,5.032 14.31,4.972 13.64,4.835 12.07,4.833 10.77,5.092 9.764,5.594 9.144,5.898 5.687,9.304 -0.6072,15.77 L -0.6072,16.33 C -3.533,19.6 -6.004,22.05 -8.032,23.69 -8.757,24.26 -9.962,24.53 -11.65,24.53 z" />

    <g id="airplane600">
      <use xlink:href="#planePart600" />
      <use xlink:href="#planePart600" transform="scale(1, -1) " />
    </g>

    <use id="airplaneDemo" xlink:href="#airplane600" transform="rotate(-90)"/>
  </defs>

  <use xlink:href="#airplaneDemo" x="50" y="45" transform="scale(9)" />

</svg>
