<?xml version="1.0" encoding="UTF-8" standalone="no"?>
<svg version="1.1" xmlns="http://www.w3.org/2000/svg" xmlns:xlink="http://www.w3.org/1999/xlink" top="0" left="0">
  <defs>
    <path id="planePart210" d="M -9.943,32.38 C -10.27,31.58 -10.62,30.79 -11,29.79 -10.68,29.39 -10.39,28.99 -10.13,28.59 -10.08,28.4 -8.405,20.6 -5.093,5.595 -6.889,5.514 -8.593,4.67 -10.32,4.439 -11.71,4.439 -13.77,6.053 -16.39,9.262 L -22.03,16.87 C -23.55,16.98 -25.17,16.68 -26.18,15.9 -26.19,15.5 -25.64,11.71 -24.42,4.738 -24.14,4.14 -23.59,3.921 -22.76,3.921 -23.47,3.518 -24.34,1.379 -24.71,-0.1217 L 44.35,-0.1503 C 44.35,-0.1503 33.62,3.977 23.68,4.014 22.74,6.207 21.25,6.412 19.23,6.631 L 13.72,6.651 C 6.729,13.53 1.798,22.05 -2.829,29.13 -0.934,29.13 0.465,29.31 1.351,29.31 1.474,29.51 1.988,29.91 2.876,30.69 2.184,30.89 1.521,31.11 0.886,31.7 0.749,31.5 0.567,31.3 0.318,31.11 L -9.38,31.17 z" />

    <g id="airplane210">
      <use xlink:href="#planePart210" />
      <use xlink:href="#planePart210" transform="scale(1, -1) " />
    </g>

    <use id="airplaneDemo" xlink:href="#airplane210" transform="rotate(-90)"/>
  </defs>

  <use xlink:href="#airplaneDemo" x="40" y="45" transform="scale(9)" />

</svg>
