<?xml version="1.0" encoding="UTF-8"?><!DOCTYPE svg PUBLIC "-//W3C//DTD SVG 1.1//EN" "http://www.w3.org/Graphics/SVG/1.1/DTD/svg11.dtd">
<svg xmlns:xlink="http://www.w3.org/1999/xlink" xmlns="http://www.w3.org/2000/svg"><defs><path id="trap"/><path id="planePart200" d="M -7.057,24.54 C -7.057,24.54 1.588,24.5 2.448,23.2 5.361,16.6 13.2,10.01 14.89,3.819 20.79,2.331 31.37,2.626 31.37,2.626 31.37,2.626 39.54,2.183 41.58,-0.3797 18.51,-0.4731 -30.28,-0.6378 -30.28,-0.6378 L -31.15,0.9105 -27.13,2.49 -29.34,9.628 C -29.34,9.628 -25.65,11.42 -23.89,10.89 -20.5,9.805 -18.34,3.409 -18.34,3.409 L -2.049,3.994 z"/><path id="planePart210" d="M -9.943,32.38 C -10.27,31.58 -10.62,30.79 -11,29.79 -10.68,29.39 -10.39,28.99 -10.13,28.59 -10.08,28.4 -8.405,20.6 -5.093,5.595 -6.889,5.514 -8.593,4.67 -10.32,4.439 -11.71,4.439 -13.77,6.053 -16.39,9.262 L -22.03,16.87 C -23.55,16.98 -25.17,16.68 -26.18,15.9 -26.19,15.5 -25.64,11.71 -24.42,4.738 -24.14,4.14 -23.59,3.921 -22.76,3.921 -23.47,3.518 -24.34,1.379 -24.71,-0.1217 L 44.35,-0.1503 C 44.35,-0.1503 33.62,3.977 23.68,4.014 22.74,6.207 21.25,6.412 19.23,6.631 L 13.72,6.651 C 6.729,13.53 1.798,22.05 -2.829,29.13 -0.934,29.13 0.465,29.31 1.351,29.31 1.474,29.51 1.988,29.91 2.876,30.69 2.184,30.89 1.521,31.11 0.886,31.7 0.749,31.5 0.567,31.3 0.318,31.11 L -9.38,31.17 z"/><path id="planePart300" d="M 9.69,44.43 C 9.239,44.43 8.2,44.17 6.56,43.64 6.109,42.05 5.316,38.47 4.181,33.03 L 1.039,17.91 C 0.8683,16.98 0.5293,15.52 0.0195,13.34 -0.3181,13.01 -0.7719,12.37 -1.335,11.44 L -1.081,11.03 -0.8293,10.7 -1.336,10.21 C -1.336,10.1 -1.253,9.915 -1.082,9.677 -0.9141,9.425 -0.8307,9.173 -0.8307,8.894 -0.8321,6.918 -1.54,5.632 -2.953,5.035 -3.623,4.757 -6.056,4.518 -10.24,4.306 -11.93,4.24 -14.49,4.134 -18.04,3.974 -18.59,5.287 -19.27,7.223 -20.37,9.77 -21.32,12.32 -22.55,13.67 -24.06,13.67 -26.38,13.67 -27.47,12.12 -27.47,8.828 L -27.47,2.012 C -27.88,1.733 -29.52,0.0937 -29.52,0.0937 -21.05,-0.1848 34.17,-0.1968 34.17,-0.1968 34.17,-0.1968 32.94,1.946 30.62,2.715 29.25,3.205 27.61,3.537 25.7,3.709 25.56,4.081 25.15,4.439 24.74,4.77 L 24.6,4.77 C 24.33,4.77 23.78,4.571 22.69,4.2 18.86,4.2 16.13,4.279 14.35,4.452 13.67,4.452 13.09,4.916 12.64,5.844 12.3,6.613 12.12,7.409 12.14,8.231 14.08,7.9 15.72,7.727 16.81,7.727 17.9,7.727 18.72,7.9 19.13,8.218 19.13,7.78 19.27,6.905 19.54,5.592 19.82,5.871 19.82,6.746 19.82,8.218 19.82,9.319 20.23,10.06 20.91,10.45 20.77,10.94 20.5,11.35 19.95,11.68 19.95,12.94 19.82,14.46 19.54,16.32 19.41,15.39 19.27,14.2 19,12.91 18.59,13.12 17.08,13.24 14.76,13.24 L 12.38,13.24 12.3,12.99 12.33,43.24 11.82,43.9 C 11.03,44.17 10.32,44.3 9.69,44.43 z"/><path id="planePart310" d="M -15,28 C -15,28 -15,28 -16,27 -16,27 -17,26 -17,26 -17,25 -16,24 -15,21 -14,18 -13,16 -13,16 L -13,16 C -12,14 -11,11 -9,6 -9,6 -9,6 -12,6 -12,6 -13,6 -13,6 -16,9 -20,12 -24,15 -25,14 -26,14 -26,13 -26,12 -25,9 -25,5 L -26,5 C -26,3 -26,2 -26,2 -26,1 -27,2 -28,1 -28,1 -28,1 -27,0 -27,0.5 -26,-0 -26,-0 L 36,-0 C 36,0 33,2 30,3 28,4 26,4 22,4 22,4 19,4 12,4 12,5 12,5 11,6 9,6 7,6 6,7 7,7 8,7 10,8 9,9 7,10 3,10 0,10 -1,10 -1,10 L -5,16 C -6,15 -5,16 -4,17 -4,17 -5,17 -6,17 -7,18 -8,20 -10,23 -12,26 -14,28 -14,28 z"/><path id="planePart400" d="M 1.09,36.73 C -2.704,36.73 -6.896,36.41 -11.53,35.61 -11.71,35.46 -11.93,34.97 -12.17,34.5 -11.73,34.5 -11.09,34.33 -10.2,34.17 -9.314,34.01 -8.649,33.85 -8.224,33.85 -7.441,33.85 -6.896,34.01 -6.585,34.5 L -6.481,4.68 C -8.861,4.665 -11.78,4.457 -15.26,4.058 -15.44,4.44 -16.09,4.649 -17.2,4.631 -18.35,4.631 -19.67,4.568 -21.3,4.425 -21.9,6.597 -22.77,9.755 -24.1,13.92 -25.42,14.38 -26.92,14.61 -28.25,14.59 L -30.16,14.59 -30.16,2.316 C -31.64,1.714 -32.37,-0.0443 -32.37,-0.0443 L 34.64,-0.1824 C 34.64,-0.1824 30.95,3.481 23.57,4.121 20.61,4.361 16.04,4.488 10.25,4.457 L 10.25,5.352 C 10.25,6.277 10.11,7.093 9.896,7.828 9.467,7.811 8.881,7.955 8.156,8.21 8.156,9.202 7.937,10.39 7.553,11.78 7.134,13.17 6.871,14.38 6.741,15.44 6.741,16.03 6.836,16.6 7.002,17.24 6.713,17.24 6.371,17.88 6.012,19 5.876,19.79 5.73,20.59 5.536,21.23 5.73,21.23 5.963,21.39 6.274,21.71 5.963,22.03 5.555,22.67 5.068,23.62 5,23.95 4.825,25.06 4.514,26.66 4.63,26.83 4.865,27.3 5.243,27.78 4.922,28.1 4.602,28.42 4.233,28.58 4.096,29.54 3.823,30.98 3.393,32.89 L 3.853,33.54 7.046,33.85 C 8.314,34.01 9.293,34.5 9.949,34.81 9.415,36.09 6.45,36.73 1.09,36.73 z"/><path id="planePart410" d="M -12.5,31.2 C -12.01,31.28 -12.27,7.966 -12,8 -13.44,8 -14.8,8 -16.17,8.3 -16.57,8.64 -18.34,10.15 -21.6,13 -24.32,15.36 -26.09,16.6 -26.63,16.73 -26.36,16.74 -27.3,16 -29.37,15.26 -28.18,11.02 -28.59,8.7 -25.31,7 -25.57,6.6 -26.11,6.476 -26.93,6.48 -27.7,6.4 -29,6.5 -29.11,6.5 -28.65,5.5 -27.5,5.8 -27.34,4.7 -26.37,2.219 -27.13,1.108 -29.3,1.1 L -29,0 33.7,0 C 33.71,0 30.56,0 26.88,1.5 22.62,2.74 18.87,2.6 14.35,2.6 13.67,2.6 13.4,3.3 13.67,5 12.5,5.4 9.4,6.6 4,8.7 2.6,8.9 1.5,9.2 0,9.55 -3.859,15.54 -5.6,23.52 -7.9,29.68 -8,30.23 -9.7,30.77 -12.56,31.21 z"/><path id="planePart500" d="M -6.699,36.67 C -8.039,36.77 -9.879,36.23 -12.19,35.07 -11.64,32.92 -8.817,27.38 -3.742,18.5 -4.836,18.28 -5.883,17.81 -6.859,17.13 L -6.846,11.99 C -5.739,11.63 -4.04,11.48 -1.723,11.5 -1.662,10.8 -1.587,9.779 -1.525,8.422 -1.523,7.15 -1.715,6.345 -2.068,6.013 -4.268,4.976 -8.176,4.431 -13.8,4.399 -15.69,4.389 -16.87,4.492 -17.36,4.713 -21.4,10.2 -24.05,12.93 -25.34,12.91 -25.86,12.9 -26.44,12.74 -26.97,12.38 -26.97,11.46 -25.58,8.404 -22.75,3.162 -22.8,2.69 -24.01,1.993 -26.32,1.067 -24.66,1.078 -23.56,0.9726 -22.94,0.7538 L -22.84,-0.2696 41.13,-0.2392 C 41.13,-0.2392 36.54,2.098 33.63,3.105 31.48,3.786 29.08,4.576 26.38,5.474 23.33,6.146 19.24,6.347 14.03,6.099 12.62,7.695 11.25,9.684 9.901,12.08 12.11,12.09 14.26,12.32 16.4,12.77 L 16.4,17.07 C 13.47,17.06 9.641,17.6 4.944,18.72 4.587,19.52 3.876,21.01 2.839,23.16 4.908,23.17 6.988,23.51 9.057,24.05 6.442,24.03 4.152,24.08 2.203,24.21 1.579,25.68 0.1729,28.33 -2.035,32.25 0.0482,32.25 2.233,32.52 4.566,33.14 1.995,33.36 -0.6047,33.72 -3.218,34.29 -3.767,35.77 -4.936,36.57 -6.699,36.67 z"/><path id="planePart510" d="M 2,36.4 C -0.6,28.7 2.3,18.86 -0.6,12.3 -0.7,12 -2.3,11.5 -5.7,10.5 L -5.7,9 C -5.6,9 -5,8.5 -3.6,8 -2,7.7 -1,7 -1,7.3 -1,6 -0.7,4.8 -1.5,3.8 -5.8,3.5 -9.5,3 -12.7,2.7 -14,8.4 -14,9.4 -15.3,13 -15.7,13.8 -16,14 -16.5,14.3 -18.5,14.3 -19.6,13 -19.6,10.4 L -19.6,9 C -19.5,6.7 -19.5,4.3 -19.5,1.8 -21.7,2 -22,0 -22,0 L 22.3,0 C 22.4,0 20.4,2.7 16.3,3.3 16,3.3 13.7,3.3 9.5,3.4 9.4,4 9.3,5 9,6.3 10,6.3 11,6.3 12.3,6.5 12.8,7 13,7.7 13.5,8 13.9,8.4 14.3,8.7 15,9.3 14.7,9.5 14,10 13.6,10.7 13.6,11 13.4,11.5 13,12 12.6,12 11,12.3 8.5,12.8 8,20.8 7.7,28.7 6.6,36.6 6.6,36.8 6.3,37 5.8,37 4.3,38.5 2.8,37.5 2,36.4 z"/><path id="planePart600" d="M -11.65,24.53 C -12.66,24.53 -14.57,24.23 -17.39,23.59 -15.87,20.83 -12.44,14.82 -7.096,5.591 L -7.013,5.026 C -8.188,4.829 -11.59,4.555 -17.22,4.173 -18,4.994 -19.24,6.211 -20.92,7.853 -22.38,9.041 -23.86,9.663 -25.31,9.739 -26.26,9.8 -27.3,9.739 -28.42,9.54 -28.26,9.038 -27.44,7.746 -25.99,5.677 -24.8,3.99 -24.2,2.818 -24.2,2.194 -24.2,1.753 -24.32,1.373 -24.55,1.069 -25.44,1.068 -26.34,0.931 -27.24,0.6888 -26.85,0.6118 -24.55,-0.2224 -24.55,-0.2224 L 34.98,-0.1135 C 34.98,-0.1135 33.59,2.145 32.53,2.387 32.3,2.449 30.33,2.647 26.62,2.95 L 19.63,3.618 19.45,5.032 17.77,5.032 C 15.69,5.032 14.31,4.972 13.64,4.835 12.07,4.833 10.77,5.092 9.764,5.594 9.144,5.898 5.687,9.304 -0.6072,15.77 L -0.6072,16.33 C -3.533,19.6 -6.004,22.05 -8.032,23.69 -8.757,24.26 -9.962,24.53 -11.65,24.53 z"/><path id="planePart610" d="M -16.5,0.038 C -16.5,0.038 -17.35,-2.715 -18.88,-3.996 -18.91,-5.024 -18.95,-5.705 -19.02,-6.217 -19.06,-6.901 -18.75,-7.607 -18.11,-7.989 -18.12,-8.502 -18.47,-8.822 -19.17,-8.952 -20.06,-9.242 -20.53,-9.382 -20.64,-9.552 -21.28,-10.68 -22.48,-10.19 -24.22,-15.55 -23.26,-15.79 -22.21,-16.02 -21.12,-16.25 -17.22,-13.3 -14.81,-10.15 -10.87,-5.929 -10.16,-5.973 -9.528,-6.01 -8.962,-5.873 -9.652,-10.95 -10.65,-17.37 -11.98,-25.19 -9.655,-25.65 -7.727,-25.58 -6.332,-24.5 -5.247,-22.83 -1.073,-17.12 6.187,-6.971 8.86,-7.134 11.6,-6.443 14.42,-5.07 15.74,-4.465 18.1,-3.408 21.54,-2.072 24.74,-2.206 28.1,-1.312 30.59,-0.737 31.54,-0.61 33.93,0.038 33.93,0.038 z"/><path id="planePart700" d="M -14,19.6 C -15,20 -16,20 -17,17 -15,15 -12,12 -8,8.5 -9,9 -10,8 -11,7.6 -11.7,7 -12.98,5.7 -14.8,3.7 -15.5,3.8 -16.7,4.2 -18.7,4.8 -20.2,5.3 -21.5,5.5 -22.7,5.5 -23.1,5.5 -23.7,5.5 -24.4,5.2 -24.4,4.8 -24.4,4.5 -24.2,4.3 -24.1,4.1 -17.5,-0.2 -17.5,-0.2 L 27,0 C 27,0 -1,14 -14,19.6 z"/><path id="planePart710" d="M -10.6936,26.6658 C -10.704,25.2072 -9.93436,18.8862 -8.38979,7.84906 -9.05343,7.45684 -9.62676,7.59622 -10.1935,7.69507 L -15.5289,13.7194 C -18.1599,16.6496 -19.9532,18.2704 -20.8695,18.2704 -21.3537,18.3028 -22.4271,18.2867 -24.1026,17.9786 -23.1733,14.7842 -22.2046,11.1651 -20.7255,8.54917 -20.3458,8.38716 -19.783,8.22183 -19.0239,8.05813 -18.4348,7.89119 -18.1076,7.40336 -18.0682,6.91873 L -18.9583,6.11163 C -18.9583,5.30125 -18.9715,4.32882 -19.0369,3.19433 -17.427,2.58654 -16.7986,1.61313 -16.6023,-0.0859 L 36.5026,-0.034522 C 36.5026,-0.034522 34.2381,0.516204 32.628,0.863363 30.73,1.52025 29.434,1.85072 28.7272,1.85395 27.3266,1.86045 25.5465,2.02737 23.3867,2.2008 23.2165,2.36288 21.3185,3.18296 17.7058,4.98358 14.4727,7.03708 10.6661,7.25098 7.57182,7.94472 2.46283,12.4471 -1.83946,26.5685 -8.26412,26.9898 -9.09793,27.0547 -9.93174,26.8602 -10.6936,26.6658 z"/><path id="planePart800" d="M -9.50424,18.4703 -9.55944,8.92852 C -10.3985,9.86513 -11.076,10.3563 -11.5882,10.4039 L -11.5423,6.14416 -10.769,6.1525 C -10.6161,6.52409 -10.1834,7.00043 -9.46644,7.58735 -9.45684,6.69382 -9.42304,5.98435 -9.36504,5.45782 -9.35084,4.1412 -9.39214,3.11995 -9.48994,2.38363 L -15.9272,2.31421 C -15.9772,2.31367 -16.5748,2.25175 -17.7074,2.13549 -18.4436,2.91367 -19.5661,4.07498 -21.0828,5.60775 -22.3747,6.76983 -23.6398,7.94836 -25.2183,7.96891 L -25.1307,-0.153805 28.7,-0.059124 C 28.7,-0.059124 21.5356,2.8188 11.758,3.08099 11.5038,2.81581 11.1953,2.62751 10.8349,2.51958 10.0582,2.5112 8.43816,4.04402 5.97354,7.11803 8.25862,7.32133 9.96113,7.91424 11.6254,8.52004 10.6384,8.93022 9.31335,9.25695 7.65826,9.50382 5.89797,9.59004 4.55247,9.70614 3.61946,9.85449 -1.56397,15.6357 -4.54285,18.5192 -5.31496,18.5109 L -9.50414,18.4657 z"/><g id="airplane200">
      <use xlink:href="#planePart200"/>
      <use xlink:href="#planePart200" transform="scale(1, -1) "/>
    </g><g id="airplane210">
      <use xlink:href="#planePart210"/>
      <use xlink:href="#planePart210" transform="scale(1, -1) "/>
    </g><g id="airplane300">
      <use xlink:href="#planePart300"/>
      <use xlink:href="#planePart300" transform="scale(1, -1) "/>
    </g><g id="airplane310">
      <use xlink:href="#planePart310"/>
      <use xlink:href="#planePart310" transform="scale(1, -1) "/>
    </g><g id="airplane400">
      <use xlink:href="#planePart400"/>
      <use xlink:href="#planePart400" transform="scale(1, -1) "/>
    </g><g id="airplane410">
      <use xlink:href="#planePart410"/>
      <use xlink:href="#planePart410" transform="scale(1, -1) "/>
    </g><g id="airplane500">
      <use xlink:href="#planePart500"/>
      <use xlink:href="#planePart500" transform="scale(1, -1) "/>
    </g><g id="airplane510">
      <use xlink:href="#planePart510"/>
      <use xlink:href="#planePart510" transform="scale(1, -1) "/>
    </g><g id="airplane600">
      <use xlink:href="#planePart600"/>
      <use xlink:href="#planePart600" transform="scale(1, -1) "/>
    </g><g id="airplane610">
      <use xlink:href="#planePart610"/>
      <use xlink:href="#planePart610" transform="scale(1, -1) "/>
    </g><g id="airplane700">
      <use xlink:href="#planePart700"/>
      <use xlink:href="#planePart700" transform="scale(1, -1) "/>
    </g><g id="airplane710">
      <use xlink:href="#planePart710"/>
      <use xlink:href="#planePart710" transform="scale(1, -1) "/>
    </g><g id="airplane800">
      <use xlink:href="#planePart800"/>
      <use xlink:href="#planePart800" transform="scale(1, -1) "/>
    </g></defs><g id="airplaneList"><use y="100" x="100" xlink:href="#airplane200"/><use y="100" x="200" xlink:href="#airplane210"/><use y="100" x="300" xlink:href="#airplane300"/><use y="100" x="400" xlink:href="#airplane310"/><use y="100" x="500" xlink:href="#airplane400"/><use y="100" x="600" xlink:href="#airplane410"/><use y="100" x="700" xlink:href="#airplane500"/><use y="100" x="800" xlink:href="#airplane510"/><use y="100" x="900" xlink:href="#airplane600"/><use y="100" x="1000" xlink:href="#airplane610"/><use y="100" x="1100" xlink:href="#airplane700"/><use y="100" x="1200" xlink:href="#airplane710"/><use y="100" x="1300" xlink:href="#airplane800"/></g><g id="animationFrame"/><script xlink:href="airplaneResult.js"/></svg>