<?xml version="1.0" encoding="UTF-8"?><!DOCTYPE svg PUBLIC "-//W3C//DTD SVG 1.1//EN" "http://www.w3.org/Graphics/SVG/1.1/DTD/svg11.dtd">
<svg xmlns="http://www.w3.org/2000/svg"><defs><path xmlns:xlink="http://www.w3.org/1999/xlink" id="planePart200" d="M -7.057,24.54 C -7.057,24.54 1.588,24.5 2.448,23.2 5.361,16.6 13.2,10.01 14.89,3.819 20.79,2.331 31.37,2.626 31.37,2.626 31.37,2.626 39.54,2.183 41.58,-0.3797 18.51,-0.4731 -30.28,-0.6378 -30.28,-0.6378 L -31.15,0.9105 -27.13,2.49 -29.34,9.628 C -29.34,9.628 -25.65,11.42 -23.89,10.89 -20.5,9.805 -18.34,3.409 -18.34,3.409 L -2.049,3.994 z"/><path xmlns:xlink="http://www.w3.org/1999/xlink" id="planePart300" d="M 9.69,44.43 C 9.239,44.43 8.2,44.17 6.56,43.64 6.109,42.05 5.316,38.47 4.181,33.03 L 1.039,17.91 C 0.8683,16.98 0.5293,15.52 0.0195,13.34 -0.3181,13.01 -0.7719,12.37 -1.335,11.44 L -1.081,11.03 -0.8293,10.7 -1.336,10.21 C -1.336,10.1 -1.253,9.915 -1.082,9.677 -0.9141,9.425 -0.8307,9.173 -0.8307,8.894 -0.8321,6.918 -1.54,5.632 -2.953,5.035 -3.623,4.757 -6.056,4.518 -10.24,4.306 -11.93,4.24 -14.49,4.134 -18.04,3.974 -18.59,5.287 -19.27,7.223 -20.37,9.77 -21.32,12.32 -22.55,13.67 -24.06,13.67 -26.38,13.67 -27.47,12.12 -27.47,8.828 L -27.47,2.012 C -27.88,1.733 -29.52,0.0937 -29.52,0.0937 -21.05,-0.1848 34.17,-0.1968 34.17,-0.1968 34.17,-0.1968 32.94,1.946 30.62,2.715 29.25,3.205 27.61,3.537 25.7,3.709 25.56,4.081 25.15,4.439 24.74,4.77 L 24.6,4.77 C 24.33,4.77 23.78,4.571 22.69,4.2 18.86,4.2 16.13,4.279 14.35,4.452 13.67,4.452 13.09,4.916 12.64,5.844 12.3,6.613 12.12,7.409 12.14,8.231 14.08,7.9 15.72,7.727 16.81,7.727 17.9,7.727 18.72,7.9 19.13,8.218 19.13,7.78 19.27,6.905 19.54,5.592 19.82,5.871 19.82,6.746 19.82,8.218 19.82,9.319 20.23,10.06 20.91,10.45 20.77,10.94 20.5,11.35 19.95,11.68 19.95,12.94 19.82,14.46 19.54,16.32 19.41,15.39 19.27,14.2 19,12.91 18.59,13.12 17.08,13.24 14.76,13.24 L 12.38,13.24 12.3,12.99 12.33,43.24 11.82,43.9 C 11.03,44.17 10.32,44.3 9.69,44.43 z"/><path xmlns:xlink="http://www.w3.org/1999/xlink" id="planePart400" d="M 1.09,36.73 C -2.704,36.73 -6.896,36.41 -11.53,35.61 -11.71,35.46 -11.93,34.97 -12.17,34.5 -11.73,34.5 -11.09,34.33 -10.2,34.17 -9.314,34.01 -8.649,33.85 -8.224,33.85 -7.441,33.85 -6.896,34.01 -6.585,34.5 L -6.481,4.68 C -8.861,4.665 -11.78,4.457 -15.26,4.058 -15.44,4.44 -16.09,4.649 -17.2,4.631 -18.35,4.631 -19.67,4.568 -21.3,4.425 -21.9,6.597 -22.77,9.755 -24.1,13.92 -25.42,14.38 -26.92,14.61 -28.25,14.59 L -30.16,14.59 -30.16,2.316 C -31.64,1.714 -32.37,-0.0443 -32.37,-0.0443 L 34.64,-0.1824 C 34.64,-0.1824 30.95,3.481 23.57,4.121 20.61,4.361 16.04,4.488 10.25,4.457 L 10.25,5.352 C 10.25,6.277 10.11,7.093 9.896,7.828 9.467,7.811 8.881,7.955 8.156,8.21 8.156,9.202 7.937,10.39 7.553,11.78 7.134,13.17 6.871,14.38 6.741,15.44 6.741,16.03 6.836,16.6 7.002,17.24 6.713,17.24 6.371,17.88 6.012,19 5.876,19.79 5.73,20.59 5.536,21.23 5.73,21.23 5.963,21.39 6.274,21.71 5.963,22.03 5.555,22.67 5.068,23.62 5,23.95 4.825,25.06 4.514,26.66 4.63,26.83 4.865,27.3 5.243,27.78 4.922,28.1 4.602,28.42 4.233,28.58 4.096,29.54 3.823,30.98 3.393,32.89 L 3.853,33.54 7.046,33.85 C 8.314,34.01 9.293,34.5 9.949,34.81 9.415,36.09 6.45,36.73 1.09,36.73 z"/><path xmlns:xlink="http://www.w3.org/1999/xlink" id="planePart500" d="M -6.699,36.67 C -8.039,36.77 -9.879,36.23 -12.19,35.07 -11.64,32.92 -8.817,27.38 -3.742,18.5 -4.836,18.28 -5.883,17.81 -6.859,17.13 L -6.846,11.99 C -5.739,11.63 -4.04,11.48 -1.723,11.5 -1.662,10.8 -1.587,9.779 -1.525,8.422 -1.523,7.15 -1.715,6.345 -2.068,6.013 -4.268,4.976 -8.176,4.431 -13.8,4.399 -15.69,4.389 -16.87,4.492 -17.36,4.713 -21.4,10.2 -24.05,12.93 -25.34,12.91 -25.86,12.9 -26.44,12.74 -26.97,12.38 -26.97,11.46 -25.58,8.404 -22.75,3.162 -22.8,2.69 -24.01,1.993 -26.32,1.067 -24.66,1.078 -23.56,0.9726 -22.94,0.7538 L -22.84,-0.2696 41.13,-0.2392 C 41.13,-0.2392 36.54,2.098 33.63,3.105 31.48,3.786 29.08,4.576 26.38,5.474 23.33,6.146 19.24,6.347 14.03,6.099 12.62,7.695 11.25,9.684 9.901,12.08 12.11,12.09 14.26,12.32 16.4,12.77 L 16.4,17.07 C 13.47,17.06 9.641,17.6 4.944,18.72 4.587,19.52 3.876,21.01 2.839,23.16 4.908,23.17 6.988,23.51 9.057,24.05 6.442,24.03 4.152,24.08 2.203,24.21 1.579,25.68 0.1729,28.33 -2.035,32.25 0.0482,32.25 2.233,32.52 4.566,33.14 1.995,33.36 -0.6047,33.72 -3.218,34.29 -3.767,35.77 -4.936,36.57 -6.699,36.67 z"/><path xmlns:xlink="http://www.w3.org/1999/xlink" id="planePart600" d="M -11.65,24.53 C -12.66,24.53 -14.57,24.23 -17.39,23.59 -15.87,20.83 -12.44,14.82 -7.096,5.591 L -7.013,5.026 C -8.188,4.829 -11.59,4.555 -17.22,4.173 -18,4.994 -19.24,6.211 -20.92,7.853 -22.38,9.041 -23.86,9.663 -25.31,9.739 -26.26,9.8 -27.3,9.739 -28.42,9.54 -28.26,9.038 -27.44,7.746 -25.99,5.677 -24.8,3.99 -24.2,2.818 -24.2,2.194 -24.2,1.753 -24.32,1.373 -24.55,1.069 -25.44,1.068 -26.34,0.931 -27.24,0.6888 -26.85,0.6118 -24.55,-0.2224 -24.55,-0.2224 L 34.98,-0.1135 C 34.98,-0.1135 33.59,2.145 32.53,2.387 32.3,2.449 30.33,2.647 26.62,2.95 L 19.63,3.618 19.45,5.032 17.77,5.032 C 15.69,5.032 14.31,4.972 13.64,4.835 12.07,4.833 10.77,5.092 9.764,5.594 9.144,5.898 5.687,9.304 -0.6072,15.77 L -0.6072,16.33 C -3.533,19.6 -6.004,22.05 -8.032,23.69 -8.757,24.26 -9.962,24.53 -11.65,24.53 z"/><path xmlns:xlink="http://www.w3.org/1999/xlink" id="planePart700" d="M -13.98,19.59 C -15.53,19.56 -16.64,18.81 -17.28,17.21 -15.4,15.48 -12.51,12.54 -8.703,8.487 -9.575,8.36 -10.34,8.108 -11.01,7.61 -11.7,6.974 -12.98,5.73 -14.86,3.73 -15.52,3.85 -16.74,4.215 -18.73,4.81 -20.17,5.299 -21.49,5.526 -22.71,5.52 -23.14,5.517 -23.7,5.501 -24.46,5.25 -24.46,4.88 -24.45,4.508 -24.22,4.386 -24.12,4.138 -17.48,-0.196 -17.48,-0.196 L 27.32,-0.0956 C 27.32,-0.0956 -1.73,14.01 -13.98,19.59 z"/><g xmlns:xlink="http://www.w3.org/1999/xlink" id="airplane200">
      <use xlink:href="#planePart200"/>
      <use xlink:href="#planePart200" transform="scale(1, -1) "/>
    </g><g xmlns:xlink="http://www.w3.org/1999/xlink" id="airplane300">
      <use xlink:href="#planePart300"/>
      <use xlink:href="#planePart300" transform="scale(1, -1) "/>
    </g><g xmlns:xlink="http://www.w3.org/1999/xlink" id="airplane400">
      <use xlink:href="#planePart400"/>
      <use xlink:href="#planePart400" transform="scale(1, -1) "/>
    </g><g xmlns:xlink="http://www.w3.org/1999/xlink" id="airplane500">
      <use xlink:href="#planePart500"/>
      <use xlink:href="#planePart500" transform="scale(1, -1) "/>
    </g><g xmlns:xlink="http://www.w3.org/1999/xlink" id="airplane600">
      <use xlink:href="#planePart600"/>
      <use xlink:href="#planePart600" transform="scale(1, -1) "/>
    </g><g xmlns:xlink="http://www.w3.org/1999/xlink" id="airplane700">
      <use xlink:href="#planePart700"/>
      <use xlink:href="#planePart700" transform="scale(1, -1) "/>
    </g></defs><use y="100" x="100" xlink:href="#airplane200" xmlns:xlink="http://www.w3.org/1999/xlink"/><use y="100" x="200" xlink:href="#airplane300" xmlns:xlink="http://www.w3.org/1999/xlink"/><use y="100" x="300" xlink:href="#airplane400" xmlns:xlink="http://www.w3.org/1999/xlink"/><use y="100" x="400" xlink:href="#airplane500" xmlns:xlink="http://www.w3.org/1999/xlink"/><use y="100" x="500" xlink:href="#airplane600" xmlns:xlink="http://www.w3.org/1999/xlink"/><use y="100" x="600" xlink:href="#airplane700" xmlns:xlink="http://www.w3.org/1999/xlink"/></svg>