<?xml version="1.0" encoding="UTF-8" standalone="no"?>
<svg version="1.1" xmlns="http://www.w3.org/2000/svg" xmlns:xlink="http://www.w3.org/1999/xlink" top="0" left="0">
  <defs>
    <path id="planePart800" d="M -9.50424,18.4703 -9.55944,8.92852 C -10.3985,9.86513 -11.076,10.3563 -11.5882,10.4039 L -11.5423,6.14416 -10.769,6.1525 C -10.6161,6.52409 -10.1834,7.00043 -9.46644,7.58735 -9.45684,6.69382 -9.42304,5.98435 -9.36504,5.45782 -9.35084,4.1412 -9.39214,3.11995 -9.48994,2.38363 L -15.9272,2.31421 C -15.9772,2.31367 -16.5748,2.25175 -17.7074,2.13549 -18.4436,2.91367 -19.5661,4.07498 -21.0828,5.60775 -22.3747,6.76983 -23.6398,7.94836 -25.2183,7.96891 L -25.1307,-0.153805 28.7,-0.059124 C 28.7,-0.059124 21.5356,2.8188 11.758,3.08099 11.5038,2.81581 11.1953,2.62751 10.8349,2.51958 10.0582,2.5112 8.43816,4.04402 5.97354,7.11803 8.25862,7.32133 9.96113,7.91424 11.6254,8.52004 10.6384,8.93022 9.31335,9.25695 7.65826,9.50382 5.89797,9.59004 4.55247,9.70614 3.61946,9.85449 -1.56397,15.6357 -4.54285,18.5192 -5.31496,18.5109 L -9.50414,18.4657 z" />

    <g id="airplane800">
      <use xlink:href="#planePart800" />
      <use xlink:href="#planePart800" transform="scale(1, -1) " />
    </g>

    <use id="airplaneDemo" xlink:href="#airplane800" transform="rotate(-90)"/>
  </defs>

  <use xlink:href="#airplaneDemo" x="50" y="45" transform="scale(9)" />

</svg>
