<?xml version="1.0" encoding="UTF-8" standalone="no"?>
<svg version="1.1" xmlns="http://www.w3.org/2000/svg" xmlns:xlink="http://www.w3.org/1999/xlink" top="0" left="0">
  <defs>
    <path id="planePart500" d="M -6.699,36.67 C -8.039,36.77 -9.879,36.23 -12.19,35.07 -11.64,32.92 -8.817,27.38 -3.742,18.5 -4.836,18.28 -5.883,17.81 -6.859,17.13 L -6.846,11.99 C -5.739,11.63 -4.04,11.48 -1.723,11.5 -1.662,10.8 -1.587,9.779 -1.525,8.422 -1.523,7.15 -1.715,6.345 -2.068,6.013 -4.268,4.976 -8.176,4.431 -13.8,4.399 -15.69,4.389 -16.87,4.492 -17.36,4.713 -21.4,10.2 -24.05,12.93 -25.34,12.91 -25.86,12.9 -26.44,12.74 -26.97,12.38 -26.97,11.46 -25.58,8.404 -22.75,3.162 -22.8,2.69 -24.01,1.993 -26.32,1.067 -24.66,1.078 -23.56,0.9726 -22.94,0.7538 L -22.84,-0.2696 41.13,-0.2392 C 41.13,-0.2392 36.54,2.098 33.63,3.105 31.48,3.786 29.08,4.576 26.38,5.474 23.33,6.146 19.24,6.347 14.03,6.099 12.62,7.695 11.25,9.684 9.901,12.08 12.11,12.09 14.26,12.32 16.4,12.77 L 16.4,17.07 C 13.47,17.06 9.641,17.6 4.944,18.72 4.587,19.52 3.876,21.01 2.839,23.16 4.908,23.17 6.988,23.51 9.057,24.05 6.442,24.03 4.152,24.08 2.203,24.21 1.579,25.68 0.1729,28.33 -2.035,32.25 0.0482,32.25 2.233,32.52 4.566,33.14 1.995,33.36 -0.6047,33.72 -3.218,34.29 -3.767,35.77 -4.936,36.57 -6.699,36.67 z" />

    <g id="airplane500">
      <use xlink:href="#planePart500" />
      <use xlink:href="#planePart500" transform="scale(1, -1) " />
    </g>

    <use id="airplaneDemo" xlink:href="#airplane500" transform="rotate(-90)"/>
  </defs>

  <use xlink:href="#airplaneDemo" x="50" y="45" transform="scale(9)" />

</svg>
