<?xml version="1.0" encoding="UTF-8" standalone="no"?>
<svg version="1.1" xmlns="http://www.w3.org/2000/svg" xmlns:xlink="http://www.w3.org/1999/xlink" top="0" left="0">
  <defs>
    <path id="planePart700" d="M -13.98,19.59 C -15.53,19.56 -16.64,18.81 -17.28,17.21 -15.4,15.48 -12.51,12.54 -8.703,8.487 -9.575,8.36 -10.34,8.108 -11.01,7.61 -11.7,6.974 -12.98,5.73 -14.86,3.73 -15.52,3.85 -16.74,4.215 -18.73,4.81 -20.17,5.299 -21.49,5.526 -22.71,5.52 -23.14,5.517 -23.7,5.501 -24.46,5.25 -24.46,4.88 -24.45,4.508 -24.22,4.386 -24.12,4.138 -17.48,-0.196 -17.48,-0.196 L 27.32,-0.0956 C 27.32,-0.0956 -1.73,14.01 -13.98,19.59 z" />

    <g id="airplane700">
      <use xlink:href="#planePart700" />
      <use xlink:href="#planePart700" transform="scale(1, -1) " />
    </g>

    <use id="airplaneDemo" xlink:href="#airplane700" transform="rotate(-90)"/>
  </defs>

  <use xlink:href="#airplaneDemo" x="50" y="45" transform="scale(9)" />

</svg>
