<?xml version="1.0" encoding="UTF-8" standalone="no"?>
<svg version="1.1" xmlns="http://www.w3.org/2000/svg" xmlns:xlink="http://www.w3.org/1999/xlink" top="0" left="0">
  <defs>
    <path id="planePart410" d="M -12.5,31.2 -11.8,8.9 C -11.81,9 -12.22,7.9 -12.77,7.9 L -12,8 C -13.44,8 -14.8,8 -16.17,8.3 -16.57,8.64 -18.34,10.15 -21.6,13 -24.32,15.36 -26.09,16.6 -26.63,16.73 -26.36,16.74 -27.3,16.1 -29.37,15.26 -28.97,14.97 -28.71,13.87 -28.71,11.95 -28.57,9.9 -28,8 -27.48,8 -27.48,8 -26.67,7.71 -25.31,7 -25.57,6.6 -26.11,6.476 -26.93,6.48 L -28,6.5 C -28.8,6.4 -28.84,6 -29.11,6.5 L -29,6 C -28,6.2 -27.48,5.661 -27.34,4.7 L -27,4 C -27.6,3 -27,3.4 -26.4,3 -26.81,2.24 -27,1.6 -27.49,1.4 -27.65,1.2 -28.19,1.1 -29.3,1.1 L -29,0 33.7,0 C 33.71,0 30.56,0 26.88,1.5 25.12,2 23,2.3 20.89,2.6 L 14.35,2.6 C 13.67,2.6 13.4,3.3 13.67,5 12.5,5.4 9.4,6.6 4,8.7 2.6,8.9 1.5,9.2 0,9.55 -0.5,10 -1.3,10 -1.5,11.4 -1.5,11.8 -2.1,13.4 -3,15.97 L -3.33,16.67 C -5.4,23.11 -7.11,27.49 -7.9,29.68 -8,30.23 -9.7,30.77 -12.56,31.21 z" />

    <g id="airplane410">
      <use xlink:href="#planePart410" />
      <use xlink:href="#planePart410" transform="scale(1, -1) " />
    </g>

    <use id="airplaneDemo" xlink:href="#airplane410" transform="rotate(-90)"/>
  </defs>

  <use xlink:href="#airplaneDemo" x="50" y="45" transform="scale(9)" />

</svg>
