<?xml version="1.0" encoding="UTF-8" standalone="no"?>
<svg version="1.1" xmlns="http://www.w3.org/2000/svg" xmlns:xlink="http://www.w3.org/1999/xlink" top="0" left="0">
  <defs>
    <path id="planePart700" d="M -14,19.6 C -15,20 -16,20 -17,17 -15,15 -12,12 -8,8.5 -9,9 -10,8 -11,7.6 -11.7,7 -12.98,5.7 -14.8,3.7 -15.5,3.8 -16.7,4.2 -18.7,4.8 -20.2,5.3 -21.5,5.5 -22.7,5.5 -23.1,5.5 -23.7,5.5 -24.4,5.2 -24.4,4.8 -24.4,4.5 -24.2,4.3 -24.1,4.1 -17.5,-0.2 -17.5,-0.2 L 27,0 C 27,0 -1,14 -14,19.6 z" />

    <g id="airplane700">
      <use xlink:href="#planePart700" />
      <use xlink:href="#planePart700" transform="scale(1, -1) " />
    </g>

    <use id="airplaneDemo" xlink:href="#airplane700" transform="rotate(-90)"/>
  </defs>

  <use xlink:href="#airplaneDemo" x="50" y="45" transform="scale(9)" />

</svg>
