<?xml version="1.0" encoding="UTF-8" standalone="no"?>
<svg version="1.1" xmlns="http://www.w3.org/2000/svg" xmlns:xlink="http://www.w3.org/1999/xlink" top="0" left="0">
  <defs>
    <path id="planePart710" d="M -10.6936,26.6658 C -10.704,25.2072 -9.93436,18.8862 -8.38979,7.84906 -9.05343,7.45684 -9.62676,7.59622 -10.1935,7.69507 L -15.5289,13.7194 C -18.1599,16.6496 -19.9532,18.2704 -20.8695,18.2704 -21.3537,18.3028 -22.4271,18.2867 -24.1026,17.9786 -23.1733,14.7842 -22.2046,11.1651 -20.7255,8.54917 -20.3458,8.38716 -19.783,8.22183 -19.0239,8.05813 -18.4348,7.89119 -18.1076,7.40336 -18.0682,6.91873 L -18.9583,6.11163 C -18.9583,5.30125 -18.9715,4.32882 -19.0369,3.19433 -17.427,2.58654 -16.7986,1.61313 -16.6023,-0.0859 L 36.5026,-0.034522 C 36.5026,-0.034522 34.2381,0.516204 32.628,0.863363 30.73,1.52025 29.434,1.85072 28.7272,1.85395 27.3266,1.86045 25.5465,2.02737 23.3867,2.2008 23.2165,2.36288 21.3185,3.18296 17.7058,4.98358 14.4727,7.03708 10.6661,7.25098 7.57182,7.94472 2.46283,12.4471 -1.83946,26.5685 -8.26412,26.9898 -9.09793,27.0547 -9.93174,26.8602 -10.6936,26.6658 z" />

    <g id="airplane710">
      <use xlink:href="#planePart710" />
      <use xlink:href="#planePart710" transform="scale(1, -1) " />
    </g>

    <use id="airplaneDemo" xlink:href="#airplane710" transform="rotate(-90)"/>
  </defs>

  <use xlink:href="#airplaneDemo" x="50" y="45" transform="scale(9)" />

</svg>
