<?xml version="1.0" encoding="UTF-8" standalone="no"?>
<svg version="1.1" xmlns="http://www.w3.org/2000/svg" xmlns:xlink="http://www.w3.org/1999/xlink" top="0" left="0">
  <defs>
    <path id="planePart510" d="M 2,36.4 C -0.6,28.7 2.3,18.86 -0.6,12.3 -0.7,12 -2.3,11.5 -5.7,10.5 L -5.7,9 C -5.6,9 -5,8.5 -3.6,8 -2,7.7 -1,7 -1,7.3 -1,6 -0.7,4.8 -1.5,3.8 -5.8,3.5 -9.5,3 -12.7,2.7 -14,8.4 -14,9.4 -15.3,13 -15.7,13.8 -16,14 -16.5,14.3 -18.5,14.3 -19.6,13 -19.6,10.4 L -19.6,9 C -19.5,6.7 -19.5,4.3 -19.5,1.8 -21.7,2 -22,0 -22,0 L 22.3,0 C 22.4,0 20.4,2.7 16.3,3.3 16,3.3 13.7,3.3 9.5,3.4 9.4,4 9.3,5 9,6.3 10,6.3 11,6.3 12.3,6.5 12.8,7 13,7.7 13.5,8 13.9,8.4 14.3,8.7 15,9.3 14.7,9.5 14,10 13.6,10.7 13.6,11 13.4,11.5 13,12 12.6,12 11,12.3 8.5,12.8 8,20.8 7.7,28.7 6.6,36.6 6.6,36.8 6.3,37 5.8,37 4.3,38.5 2.8,37.5 2,36.4 z" />

    <g id="airplane510">
      <use xlink:href="#planePart510" />
      <use xlink:href="#planePart510" transform="scale(1, -1) " />
    </g>

    <use id="airplaneDemo" xlink:href="#airplane510" transform="rotate(-90)"/>
  </defs>

  <use xlink:href="#airplaneDemo" x="50" y="45" transform="scale(9)" />

</svg>
