<?xml version="1.0" encoding="UTF-8" standalone="no"?>
<svg version="1.1" xmlns="http://www.w3.org/2000/svg" xmlns:xlink="http://www.w3.org/1999/xlink" top="0" left="0">
  <defs>
    <path id="planePart510" d="M 2.1099217,36.447243 C -0.6170212,28.710883 2.2829511,18.86372 -0.66292432,12.27215 -0.70352332,12.148018 -2.3946423,11.563547 -5.7382843,10.51973 L -5.7340803,9.2197389 C -5.6081473,8.9311449 -4.9050093,8.5804169 -3.6226903,8.1745609 -2.0930913,7.6825039 -1.2450903,7.3742439 -1.0786933,7.2517819 -1.1368285,6.0131474 -0.72718831,4.7861941 -1.5004673,3.7793997 -5.7975103,3.4765039 -9.5333563,3.1134223 -12.714007,2.6911356 -14.090206,8.4378769 -13.957639,9.4071479 -15.349654,13.092666 -15.681054,13.834598 -16.076326,14.227322 -16.528453,14.26586 -18.553442,14.259313 -19.583297,12.975976 -19.615013,10.41386 L -19.611007,9.1748679 C -19.49915,6.7421973 -19.533253,4.3027383 -19.525364,1.8631071 -21.709655,1.9137298 -22.245175,-0.05542516 -22.245175,-0.05542516 L 22.367621,-0.08448478 C 22.367621,-0.08448478 20.397088,2.7151989 16.34724,3.2801069 15.975242,3.278904 13.702051,3.334554 9.5306747,3.4440667 9.4456697,4.063795 9.2775957,5.0142566 9.0254587,6.293448 10.058453,6.2967881 11.173186,6.381393 12.369639,6.5522626 12.781632,7.1735979 13.173829,7.7318689 13.54322,8.2300659 13.872559,8.4351319 14.346415,8.7896659 14.963811,9.2866649 14.75701,9.5339972 14.32148,10.00659 13.65821,10.707449 13.616008,11.079314 13.365606,11.512507 12.910004,12.007036 12.619744,12.087098 11.153882,12.35136 8.5074207,12.798805 8.1516613,20.835593 7.7708201,28.72675 6.6352927,36.648876 6.6347627,36.812875 6.3548977,37.079972 5.7966917,37.452169 4.3544241,38.487457 2.8427077,37.50441 2.1099217,36.447243 z" />

    <g id="airplane510">
      <use xlink:href="#planePart510" />
      <use xlink:href="#planePart510" transform="scale(1, -1) " />
    </g>

    <use id="airplaneDemo" xlink:href="#airplane510" transform="rotate(-90)"/>
  </defs>

  <use xlink:href="#airplaneDemo" x="50" y="45" transform="scale(9)" />

</svg>
