<?xml version="1.0" encoding="UTF-8" standalone="no"?>
<svg version="1.1" xmlns="http://www.w3.org/2000/svg" xmlns:xlink="http://www.w3.org/1999/xlink" top="0" left="0">
  <defs>
    <path id="planePart300" d="M 9.69,44.43 C 9.239,44.43 8.2,44.17 6.56,43.64 6.109,42.05 5.316,38.47 4.181,33.03 L 1.039,17.91 C 0.8683,16.98 0.5293,15.52 0.0195,13.34 -0.3181,13.01 -0.7719,12.37 -1.335,11.44 L -1.081,11.03 -0.8293,10.7 -1.336,10.21 C -1.336,10.1 -1.253,9.915 -1.082,9.677 -0.9141,9.425 -0.8307,9.173 -0.8307,8.894 -0.8321,6.918 -1.54,5.632 -2.953,5.035 -3.623,4.757 -6.056,4.518 -10.24,4.306 -11.93,4.24 -14.49,4.134 -18.04,3.974 -18.59,5.287 -19.27,7.223 -20.37,9.77 -21.32,12.32 -22.55,13.67 -24.06,13.67 -26.38,13.67 -27.47,12.12 -27.47,8.828 L -27.47,2.012 C -27.88,1.733 -29.52,0.0937 -29.52,0.0937 -21.05,-0.1848 34.17,-0.1968 34.17,-0.1968 34.17,-0.1968 32.94,1.946 30.62,2.715 29.25,3.205 27.61,3.537 25.7,3.709 25.56,4.081 25.15,4.439 24.74,4.77 L 24.6,4.77 C 24.33,4.77 23.78,4.571 22.69,4.2 18.86,4.2 16.13,4.279 14.35,4.452 13.67,4.452 13.09,4.916 12.64,5.844 12.3,6.613 12.12,7.409 12.14,8.231 14.08,7.9 15.72,7.727 16.81,7.727 17.9,7.727 18.72,7.9 19.13,8.218 19.13,7.78 19.27,6.905 19.54,5.592 19.82,5.871 19.82,6.746 19.82,8.218 19.82,9.319 20.23,10.06 20.91,10.45 20.77,10.94 20.5,11.35 19.95,11.68 19.95,12.94 19.82,14.46 19.54,16.32 19.41,15.39 19.27,14.2 19,12.91 18.59,13.12 17.08,13.24 14.76,13.24 L 12.38,13.24 12.3,12.99 12.33,43.24 11.82,43.9 C 11.03,44.17 10.32,44.3 9.69,44.43 z" />

    <g id="airplane300">
      <use xlink:href="#planePart300" />
      <use xlink:href="#planePart300" transform="scale(1, -1) " />
    </g>

    <use id="airplaneDemo" xlink:href="#airplane300" transform="rotate(-90)"/>
  </defs>

  <use xlink:href="#airplaneDemo" x="50" y="45" transform="scale(9)" />

</svg>
