<?xml version="1.0" encoding="UTF-8" standalone="no"?>
<svg version="1.1" xmlns="http://www.w3.org/2000/svg" xmlns:xlink="http://www.w3.org/1999/xlink" top="0" left="0">
  <defs>
    <path id="planePart320" d="M 10.7496,-29.5987 C 6.98056,-29.6437 5.02856,-27.0707 4.41856,-23.7927 3.52056,-17.2707 4.24856,-9.01378 3.58756,-2.63078 -4.35546,-2.32078 -8.5475,-2.12678 -15.1284,-1.78878 -15.1664,-9.92472 -15.7234,-11.6517 -18.1654,-11.7837 -20.5725,-11.9127 -20.9805,-9.89173 -21.0485,-7.89078 -21.1165,-5.88978 -21.0925,-3.68078 -21.1365,-1.50578 -21.1365,-1.50578 -22.3305,-1.49578 -22.5665,-1.11378 -22.7855,-0.758763 -22.9109,-0.708881 -22.7721,0.175266 -21.8426,-0.002867 24.8011,0.216707 25.4915,0.139162 25.5065,-3.53886 20.3445,-2.66978 16.5956,-2.78878 16.5946,-7.35178 15.7716,-17.3207 15.8086,-23.8887 15.8266,-26.9617 14.5556,-29.5537 10.7496,-29.5987 z" />

    <g id="airplane320">
      <use xlink:href="#planePart320" />
      <use xlink:href="#planePart320" transform="scale(1, -1) " />
    </g>

    <use id="airplaneDemo" xlink:href="#airplane320" transform="rotate(-90)"/>
  </defs>

  <use xlink:href="#airplaneDemo" x="50" y="45" transform="scale(9)" />

</svg>
