<?xml version="1.0" encoding="UTF-8" standalone="no"?>
<svg version="1.1" xmlns="http://www.w3.org/2000/svg" xmlns:xlink="http://www.w3.org/1999/xlink" top="0" left="0">
  <defs>
    <path id="planePart220" d="M -27.3318,0.127021 C -27.3318,0.127021 -27.2994,-1.99954 -27.2434,-2.69414 -26.6845,-2.76042 -25.4638,-3.17246 -23.5744,-3.93022 -23.5664,-6.43633 -23.3348,-9.11844 -22.8865,-11.9731 -22.2742,-11.97 -21.859,-12.0033 -21.6359,-12.073 -21.1322,-12.0704 -20.8009,-11.9625 -20.6392,-11.7509 L -19.8098,-10.2861 C -18.5425,-8.05175 -17.4665,-6.13036 -16.5827,-4.52198 -12.5366,-4.50137 -10.2318,-4.55874 -9.67677,-4.6993 -9.55652,-7.83057 -9.20558,-12.9542 -8.62802,-20.0543 L -10.3778,-20.063 -10.3691,-22.7804 -9.78087,-22.7774 C -9.50826,-22.7758 -9.31074,-22.8104 -9.20172,-22.8788 -8.8123,-22.877 -8.42395,-22.5277 -8.03946,-21.8292 L -0.798522,-21.7922 C -0.633559,-22.1404 -0.380317,-22.382 -0.048183,-22.5186 0.503313,-22.3775 1.06106,-22.0963 1.613,-21.677 1.16534,-20.7011 -0.861457,-20.1886 -4.46335,-20.1376 -2.7568,-16.2978 -0.773178,-12.1776 1.48886,-7.77432 2.65047,-7.7684 4.31366,-7.5508 6.47572,-7.12153 L 7.30161,-5.44933 C 7.7461,-5.44707 8.40935,-4.57175 9.29269,-2.82171 L 21.4434,-2.75983 C 28.3196,-2.51905 34.5789,0.020692 34.5789,0.020692 z" />

    <g id="airplane220">
      <use xlink:href="#planePart220" />
      <use xlink:href="#planePart220" transform="scale(1, -1) " />
    </g>

    <use id="airplaneDemo" xlink:href="#airplane220" transform="rotate(-90)"/>
  </defs>

  <use xlink:href="#airplaneDemo" x="40" y="45" transform="scale(9)" />

</svg>
