<?xml version="1.0" encoding="UTF-8" standalone="no"?>
<svg version="1.1" xmlns="http://www.w3.org/2000/svg" xmlns:xlink="http://www.w3.org/1999/xlink" top="0" left="0">
  <defs>
    <path id="planePart310" d="M -14.76,28.04 C -15.17,28.04 -15.58,27.89 -16.13,27.43 -16.67,27 -16.95,26.55 -16.95,26.24 -16.95,25.66 -16.27,23.98 -15.04,21.14 -13.68,18.29 -13,16.51 -13,15.91 L -13.14,16.06 C -12.32,13.81 -10.82,10.67 -8.778,6.324 -9.051,6.324 -9.87,6.174 -11.51,6.174 -12.19,6.174 -12.74,6.174 -13.01,6.324 -16.69,9.334 -20.24,12.33 -24.06,15.17 -25.28,14.57 -25.96,13.82 -25.96,12.79 -25.96,12.18 -25.56,9.632 -24.74,5.141 L -25.84,4.543 C -25.85,3.194 -25.85,2.147 -25.99,1.849 -26.53,1.699 -27.21,1.4 -28.3,1.103 -28.16,0.8038 -27.76,0.654 -27.07,0.5029 -26.53,0.5029 -25.99,-0.3243 -25.99,-0.3243 L 36.39,-0.3139 C 36.39,-0.3139 33.38,1.638 30.65,2.837 29.15,3.585 26.15,4.05 21.52,4.198 21.92,4.198 18.92,4.198 12.78,4.063 12.66,4.812 12.24,5.411 11.7,6.011 9.107,6.011 7.333,6.31 6.377,7.058 7.195,7.208 8.427,7.657 10.34,8.405 9.649,9.603 7.333,10.35 3.51,10.35 0.6447,10.35 -0.8565,10.2 -1.13,10.2 L -5.634,16.35 C -5.361,16.35 -4.678,16.51 -3.859,16.95 -3.859,16.95 -4.815,17.1 -6.316,17.25 -7.135,18.44 -8.486,20.55 -10.54,23.39 -12.85,26.54 -14.22,28.04 -14.76,28.04 z" />

    <g id="airplane310">
      <use xlink:href="#planePart310" />
      <use xlink:href="#planePart310" transform="scale(1, -1) " />
    </g>

    <use id="airplaneDemo" xlink:href="#airplane310" transform="rotate(-90)"/>
  </defs>

  <use xlink:href="#airplaneDemo" x="50" y="45" transform="scale(9)" />

</svg>
