<?xml version="1.0" encoding="UTF-8" standalone="no"?>
<svg version="1.1" xmlns="http://www.w3.org/2000/svg" xmlns:xlink="http://www.w3.org/1999/xlink" top="0" left="0">
  <defs>
    <path id="planePart400" d="M 1.09,36.73 C -2.704,36.73 -6.896,36.41 -11.53,35.61 -11.71,35.46 -11.93,34.97 -12.17,34.5 -11.73,34.5 -11.09,34.33 -10.2,34.17 -9.314,34.01 -8.649,33.85 -8.224,33.85 -7.441,33.85 -6.896,34.01 -6.585,34.5 L -6.481,4.68 C -8.861,4.665 -11.78,4.457 -15.26,4.058 -15.44,4.44 -16.09,4.649 -17.2,4.631 -18.35,4.631 -19.67,4.568 -21.3,4.425 -21.9,6.597 -22.77,9.755 -24.1,13.92 -25.42,14.38 -26.92,14.61 -28.25,14.59 L -30.16,14.59 -30.16,2.316 C -31.64,1.714 -32.37,-0.0443 -32.37,-0.0443 L 34.64,-0.1824 C 34.64,-0.1824 30.95,3.481 23.57,4.121 20.61,4.361 16.04,4.488 10.25,4.457 L 10.25,5.352 C 10.25,6.277 10.11,7.093 9.896,7.828 9.467,7.811 8.881,7.955 8.156,8.21 8.156,9.202 7.937,10.39 7.553,11.78 7.134,13.17 6.871,14.38 6.741,15.44 6.741,16.03 6.836,16.6 7.002,17.24 6.713,17.24 6.371,17.88 6.012,19 5.876,19.79 5.73,20.59 5.536,21.23 5.73,21.23 5.963,21.39 6.274,21.71 5.963,22.03 5.555,22.67 5.068,23.62 5,23.95 4.825,25.06 4.514,26.66 4.63,26.83 4.865,27.3 5.243,27.78 4.922,28.1 4.602,28.42 4.233,28.58 4.096,29.54 3.823,30.98 3.393,32.89 L 3.853,33.54 7.046,33.85 C 8.314,34.01 9.293,34.5 9.949,34.81 9.415,36.09 6.45,36.73 1.09,36.73 z" />

    <g id="airplane400">
      <use xlink:href="#planePart400" />
      <use xlink:href="#planePart400" transform="scale(1, -1) " />
    </g>

    <use id="airplaneDemo" xlink:href="#airplane400" transform="rotate(-90)"/>
  </defs>

  <use xlink:href="#airplaneDemo" x="50" y="45" transform="scale(9)" />

</svg>
