<?xml version="1.0" encoding="UTF-8" standalone="no"?>
<svg version="1.1" xmlns="http://www.w3.org/2000/svg" xmlns:xlink="http://www.w3.org/1999/xlink" top="0" left="0">
  <defs>
    <path id="planePart610" d="M -16.5,0.038 C -16.5,0.038 -17.35,-2.715 -18.88,-3.996 -18.91,-5.024 -18.95,-5.705 -19.02,-6.217 -19.06,-6.901 -18.75,-7.607 -18.11,-7.989 -18.12,-8.502 -18.47,-8.822 -19.17,-8.952 -20.06,-9.242 -20.53,-9.382 -20.64,-9.552 -21.28,-10.68 -22.48,-10.19 -24.22,-15.55 -23.26,-15.79 -22.21,-16.02 -21.12,-16.25 -17.22,-13.3 -14.81,-10.15 -10.87,-5.929 -10.16,-5.973 -9.528,-6.01 -8.962,-5.873 -9.652,-10.95 -10.65,-17.37 -11.98,-25.19 -9.655,-25.65 -7.727,-25.58 -6.332,-24.5 -5.247,-22.83 -1.073,-17.12 6.187,-6.971 8.86,-7.134 11.6,-6.443 14.42,-5.07 15.74,-4.465 18.1,-3.408 21.54,-2.072 24.74,-2.206 28.1,-1.312 30.59,-0.737 31.54,-0.61 33.93,0.038 33.93,0.038 z" />

    <g id="airplane610">
      <use xlink:href="#planePart610" />
      <use xlink:href="#planePart610" transform="scale(1, -1) " />
    </g>

    <use id="airplaneDemo" xlink:href="#airplane610" transform="rotate(-90)"/>
  </defs>

  <use xlink:href="#airplaneDemo" x="50" y="45" transform="scale(9)" />

</svg>
