<?xml version="1.0" encoding="UTF-8" standalone="no"?>
<svg version="1.1" xmlns="http://www.w3.org/2000/svg" xmlns:xlink="http://www.w3.org/1999/xlink" top="0" left="0">
  <defs>
    <path id="planePart310" d="M -15,28 C -15.17,28 -15,28 -16,27 -16,27 -17,26 -17,26 -17,25 -16,24 -15,21 -14,18 -13,16 -13,16 L -13,16 C -12,14 -11,11 -9,6 -9,6 -9,6 -12,6 -12,6 -13,6 -13,6 -16,9 -20,12 -24,15 -25,14 -26,14 -26,13 -26,12 -25,9 -25,5 L -26,5 C -26,3 -26,2 -26,2 -26,1 -27,2 -28,1 -28,1 -28,1 -27,0 -27,0.5 -26,-0 -26,-0 L 36,-0 C 36,0 33,2 30,3 28,4 26,4 22,4 22,4 19,4 12,4 12,5 12,5 11,6 9,6 7,6 6,7 7,7 8,7 10,8 9,9 7,10 3,10 0,10 -1,10 -1,10 L -5,16 C -6,15 -5,16 -4,17 -4,17 -5,17 -6,17 -7,18 -8,20 -10,23 -12,26 -14,28 -14,28 z" />

    <g id="airplane310">
      <use xlink:href="#planePart310" />
      <use xlink:href="#planePart310" transform="scale(1, -1) " />
    </g>

    <use id="airplaneDemo" xlink:href="#airplane310" transform="rotate(-90)"/>
  </defs>

  <use xlink:href="#airplaneDemo" x="50" y="45" transform="scale(9)" />

</svg>
