<?xml version="1.0" encoding="UTF-8" standalone="no"?>
<svg version="1.1" xmlns="http://www.w3.org/2000/svg" xmlns:xlink="http://www.w3.org/1999/xlink" top="0" left="0">
  <defs>
    <path id="planePart410" d="M -12.5,31.2 C -12.01,31.28 -12.27,7.966 -12,8 -13.44,8 -14.8,8 -16.17,8.3 -16.57,8.64 -18.34,10.15 -21.6,13 -24.32,15.36 -26.09,16.6 -26.63,16.73 -26.36,16.74 -27.3,16 -29.37,15.26 -28.18,11.02 -28.59,8.7 -25.31,7 -25.57,6.6 -26.11,6.476 -26.93,6.48 -27.7,6.4 -29,6.5 -29.11,6.5 -28.65,5.5 -27.5,5.8 -27.34,4.7 -26.37,2.219 -27.13,1.108 -29.3,1.1 L -29,0 33.7,0 C 33.71,0 30.56,0 26.88,1.5 22.62,2.74 18.87,2.6 14.35,2.6 13.67,2.6 13.4,3.3 13.67,5 12.5,5.4 9.4,6.6 4,8.7 2.6,8.9 1.5,9.2 0,9.55 -3.859,15.54 -5.6,23.52 -7.9,29.68 -8,30.23 -9.7,30.77 -12.56,31.21 z" />

    <g id="airplane410">
      <use xlink:href="#planePart410" />
      <use xlink:href="#planePart410" transform="scale(1, -1) " />
    </g>

    <use id="airplaneDemo" xlink:href="#airplane410" transform="rotate(-90)"/>
  </defs>

  <use xlink:href="#airplaneDemo" x="50" y="45" transform="scale(9)" />

</svg>
