<?xml version="1.0" encoding="UTF-8" standalone="no"?>
<?xml-stylesheet type="text/css" href="happyNewYear.css" ?>
<svg
   xmlns="http://www.w3.org/2000/svg"
   xmlns:xlink="http://www.w3.org/1999/xlink"
   version="1.1">
  <title>Happy New Year!</title>
  <defs>

    <path id="tplNewYearLabel" d="M 87.5,4.97 C 81.9,5.29 76.6,9.03 71.6,16.1 66.7,23.2 62.6,31.7 59.2,41.5 L 38.2,41.5 C 39.6,36.6 41.2,31.8 42.9,27.2 44.6,22.5 46.7,17.6 49.1,12.5 L 47.7,12.5 C 46,16.1 44.1,20.6 42,25.9 40,31.2 38.2,36.4 36.7,41.5 L 33.5,41.5 C 35,36.8 36.7,31.7 38.7,26.3 40.8,20.9 42.6,16.3 44.1,12.5 42.3,12.4 38.7,12.7 33.3,13.3 27.9,13.9 22.7,15.2 17.6,17.2 13.4,19.4 10.4,22.1 8.5,25.1 6.64,28 5.52,31.8 5.12,36.5 L 11,34.5 C 10.8,33.8 10.6,33 10.4,32.2 10.2,31.4 10.1,30.7 10.1,30 10.2,25.5 12.4,22 16.8,19.2 21.2,16.4 27.1,15 34.5,14.9 35.1,14.9 35.7,14.9 36.4,14.9 37.1,15 37.6,15 37.9,15.1 36.4,18.5 34.7,22.5 32.9,27 31.1,31.5 29.4,36.3 27.5,41.5 23.7,41.5 20.9,41.5 19.2,41.6 17.5,41.6 16.4,41.7 15.7,41.8 L 13.6,45.5 C 15.2,44.6 16.9,44 18.7,43.6 20.5,43.1 23.3,42.9 27.2,42.9 24.7,50.4 22.8,56.7 21.4,61.9 20.1,67.1 19.1,71.7 18.7,75.7 L 26.4,74.8 C 26.8,69.9 27.6,64.5 28.9,58.7 30.2,52.8 31.6,47.6 33.2,42.9 L 36.2,42.9 C 34.9,47.7 33.7,52.4 32.7,57 31.8,61.6 31.4,65.8 31.3,69.7 31.3,71.1 31.4,72.2 31.6,73.2 31.8,74.3 32,75.1 32.3,75.7 L 36.1,74.8 C 35.4,73.7 34.9,72.4 34.4,70.9 34,69.4 33.7,67.9 33.7,66.2 33.8,64.4 34.2,61.4 34.9,57.2 35.7,53 36.6,48.2 37.8,42.9 L 58.9,42.9 C 57.7,47.1 56.7,51 56.1,54.4 55.4,57.9 55.1,61.6 55.1,65.7 55.1,67.9 55.2,69.7 55.4,71.2 55.6,72.7 55.9,74.3 56.3,75.7 L 71.4,74.8 72,73.5 C 68.8,73.6 66.4,73 64.9,71.5 63.3,70.1 62.5,67 62.5,62.3 62.6,59.1 62.9,55.7 63.7,52.2 64.4,48.6 65.2,45.5 66,42.9 73.9,41.9 80.4,38.1 85.6,31.7 90.8,25.1 93.6,18.8 93.7,12.8 93.7,10.7 93.2,8.91 92.2,7.37 91.2,5.85 89.7,5.03 87.5,4.97 z M 415,4.97 C 407,5.26 400,10.4 394,20.3 388,30.1 384,43 380,59 376,52.9 372,45.9 369,37.9 366,30 364,22.3 364,14.9 364,14.2 364,13.5 364,12.9 364,12.4 365,11.9 365,11.5 L 361,13.1 C 362,21.4 364,29.8 368,38.4 371,47.1 375,54.7 380,61.3 380,61.6 380,62.1 379,62.8 379,63.5 379,64.3 379,65 L 379,65 C 373,56.2 368,47 365,37.6 361,28.2 359,19.8 358,12.5 356,12.3 351,12.8 344,13.9 337,15 331,17.7 326,22.1 324,23.9 323,26 322,28.4 321,30.8 320,33.4 320,36.4 L 326,34.3 C 326,33.9 326,33.2 326,32.5 326,31.8 326,31.1 326,30.5 326,28.9 326,27.3 327,25.8 327,24.3 328,22.9 330,21.5 331,19.6 334,18 338,16.8 342,15.6 347,14.9 354,14.9 350,23 346,33.2 342,45.4 338,57.6 335,67.7 334,75.7 L 340,74.8 C 340,74.6 340,74.2 340,73.7 340,73.2 340,72.8 340,72.3 340,66.6 342,58.1 345,46.7 348,35.3 351,26.8 353,21.2 L 353,21.2 C 357,33.3 361,44.3 366,54.1 371,63.8 376,71 380,75.6 381,64.3 385,50.7 390,34.8 396,18.8 403,10 413,8.41 414,8.44 415,8.87 416,9.72 417,10.5 417,11.5 417,12.6 L 417,15.1 424,10.8 C 424,9.02 423,7.64 421,6.59 420,5.55 418,5 415,4.97 z M 86.1,6.87 C 87.3,6.91 88.2,7.55 88.9,8.75 89.5,9.92 89.8,11.5 89.8,13.4 89.8,19.3 87.8,25.1 83.8,30.9 79.8,36.6 74,40.1 66.2,41.5 70.3,29.9 73.9,21.3 77.2,15.5 80.6,9.77 83.5,6.88 86.1,6.87 z M 752,11 745,13.2 C 745,17.5 743,24.1 741,33 739,41.9 736,50.5 733,58.7 L 737,56.5 738,52.2 C 739,49.6 741,46.5 742,42.7 743,38.8 745,34.9 746,30.7 748,26.6 749,22.8 750,19.3 751,15.7 752,13 752,11 z M 553,12 540,12.5 539,14.4 C 541,14.4 542,14.4 543,14.6 544,14.8 544,15.3 545,16 547,17.4 548,20.4 548,24.8 548,29.3 549,36.1 549,45.1 549,51.8 550,57.1 551,60.9 552,64.8 554,66.7 558,66.8 564,65.8 570,59.5 575,47.7 580,36 583,24.7 586,13.9 L 588,13.9 C 587,17.2 586,21.2 584,25.9 583,30.5 582,35.4 580,40.5 579,45.5 577,50.5 576,55.3 574,60 573,64.2 572,67.7 569,75.9 565,82.1 561,86.3 558,90.5 554,92.7 549,92.7 545,92.6 542,91.6 540,89.8 538,88.1 537,86.1 537,83.8 537,83.6 537,83.3 537,83.1 537,82.8 537,82.6 537,82.5 L 530,86.9 C 531,88.9 533,90.5 536,91.8 538,93.2 542,93.9 547,94 554,93.9 561,91.5 566,86.6 571,81.8 575,75 578,66.2 L 595,12.5 585,12.5 C 581,27.4 577,39.3 573,48.2 568,57.1 564,61.7 560,61.9 558,62 557,61.3 557,59.8 556,58.3 555,55.7 555,51.8 555,43.8 555,36.1 554,28.7 553,21.3 553,15.7 553,12 z M 114,31.5 C 108,32.2 102,36.4 95.6,44.2 89.6,52 86.4,59.3 86,66.3 86,69.3 86.7,71.6 88,73.4 89.4,75.2 91.4,76.2 93.9,76.3 98.8,76.1 103,73.4 108,68.1 112,62.9 116,56.1 119,47.8 L 120,48.2 C 119,50.9 118,53.4 117,55.7 116,58.1 116,60.3 115,62.3 114,64.3 114,66.1 113,67.6 113,69.1 113,70.3 113,71.2 113,72.8 113,74.1 114,74.9 115,75.8 116,76.2 118,76.3 122,75.7 128,72.6 133,66.8 137,62.5 141,58.5 144,54.8 143,55.8 143,56.5 143,57.5 141,62.7 139,68.8 137,75.7 135,82.7 132,90.6 130,99.3 L 139,97.9 C 143,84.2 147,72.2 151,62 155,51.7 160,44.3 164,39.7 165,38.5 166,37.7 167,37.2 169,36.7 169,36.4 170,36.4 172,36.5 173,37.1 173,38.2 174,39.4 174,40.9 174,42.8 174,48.5 172,55.1 169,62.5 166,69.8 162,73.8 157,74.5 155,74.5 154,74.1 153,73.2 152,72.3 152,71.1 151,69.5 L 147,72.8 C 148,74 149,74.9 150,75.4 151,76 153,76.2 154,76.3 161,75.6 167,71.5 172,63.8 177,56.1 180,48.6 180,41.1 180,38.5 180,36.3 179,34.4 178,32.6 176,31.6 174,31.5 166,32.6 160,40.4 153,54.8 147,69.2 142,83.5 138,97.6 L 136,97.6 157,31.5 142,32.8 141,34.2 C 144,34.2 146,34.5 147,35.2 148,35.9 148,36.9 148,38.2 148,39.4 147,41.6 147,44.9 146,47 145,49.6 144,52.5 141,56.6 138,60.4 134,64.2 129,69.1 126,71.7 123,72 122,72 122,71.9 121,71.5 121,71.2 120,70.6 120,69.8 121,67.5 122,62.6 124,55.1 126,47.5 129,39.6 132,31.5 L 125,32.3 121,44.7 120,44.4 C 120,43.4 120,42.5 120,41.7 120,40.8 120,39.9 120,39 120,36.2 120,34.3 118,33.2 117,32 116,31.5 114,31.5 z M 205,31.5 190,32.8 189,34.2 C 192,34.2 194,34.5 195,35.2 196,35.9 196,36.9 196,38.2 196,39.4 195,41.6 195,44.9 194,48.1 192,52.3 191,57.5 189,62.7 187,68.8 185,75.7 183,82.7 180,90.6 178,99.3 L 187,97.9 C 191,84.2 195,72.2 199,62 203,51.7 208,44.3 212,39.7 213,38.5 214,37.7 216,37.2 217,36.7 218,36.4 218,36.4 220,36.5 221,37.1 221,38.2 222,39.4 222,40.9 222,42.8 222,48.5 220,55.1 217,62.5 214,69.8 210,73.8 205,74.5 203,74.5 202,74.1 201,73.2 200,72.3 200,71.1 199,69.5 L 195,72.8 C 196,74 197,74.9 198,75.4 199,76 201,76.2 202,76.3 209,75.6 215,71.5 220,63.8 225,56.1 228,48.6 229,41.1 229,38.5 228,36.3 227,34.4 226,32.6 224,31.6 222,31.5 215,32.6 208,40.4 201,54.8 195,69.2 190,83.5 186,97.6 L 184,97.6 205,31.5 z M 247,31.5 235,32 234,33.9 C 235,33.8 236,33.9 237,34.1 239,34.2 240,34.6 240,35.3 242,36.6 242,39.4 242,43.9 243,48.3 243,53.6 243,59.6 243,62.4 243,64.7 244,66.7 244,68.6 244,70.4 245,72.1 241,73.3 236,75.3 232,78.1 228,80.9 225,84.5 225,89 225,92.1 226,94.6 229,96.4 232,98.3 236,99.2 241,99.3 247,99.2 253,97.3 258,93.4 262,89.5 266,83.7 268,76 272,75.4 276,73 281,68.7 286,64.4 291,58.5 297,51 L 297,48.6 C 292,55.7 287,61.4 283,65.6 278,69.8 273,72.3 269,73 L 282,31.5 273,32.5 C 270,40.2 267,48.4 263,57.2 260,66 256,70.8 253,71.5 251,71.5 251,70.6 250,69 250,67.4 249,65.1 249,62.2 249,55.6 249,49.6 248,44 248,38.5 248,34.3 247,31.5 z M 429,31.5 C 422,32.1 416,36.1 410,43.5 404,50.9 401,58.1 401,65.1 401,68.6 402,71.4 404,73.3 406,75.2 409,76.2 413,76.3 420,76 426,73.5 432,68.7 435,66.6 437,64.5 439,62.1 439,62.9 439,63.8 439,64.6 439,68.3 440,71.1 442,73.2 443,75.2 445,76.2 447,76.3 450,76.1 453,74.8 455,72.3 458,69.8 460,67 462,63.8 L 462,63.8 C 462,66.5 462,69.3 463,71.9 464,74.6 466,76.1 469,76.3 472,76.1 475,74.9 478,72.8 480,70.7 482,68.7 483,67 485,67.6 486,68 487,68.4 488,68.7 489,68.9 490,68.9 494,68.6 498,66.5 502,62.6 506,58.7 509,54.9 511,51.2 L 512,48.8 C 509,53.4 506,57.7 502,61.5 498,65.2 494,67.2 490,67.5 488,67.5 487,67.4 486,67.1 486,66.8 485,66.4 484,65.8 L 484,65.7 C 487,62.2 490,58 493,52.8 496,47.7 497,43 497,38.8 497,36.5 497,34.8 496,33.5 495,32.2 494,31.5 492,31.5 488,31.8 485,34.2 483,38.8 480,43.4 479,48.4 479,53.8 479,56.4 479,58.7 480,60.8 480,62.8 481,64.5 482,65.7 481,66.9 480,68 479,69.2 477,70.3 475,70.9 473,71 472,70.9 470,69.9 469,68.2 469,66.4 468,64.3 468,61.8 468,57.1 469,51.9 471,46.3 473,40.7 476,36.3 478,33 L 472,33.5 C 470,37.6 468,41.5 466,45.2 465,48.9 463,53.5 462,59 461,62.6 459,65.7 457,68.2 455,70.6 453,71.9 451,72 449,72.1 448,71.4 447,70.1 446,68.7 446,66.5 446,63.3 446,56.9 448,50.6 453,44.4 457,38.1 460,33.8 463,31.5 L 447,32 446,34.4 C 447,34.2 447,34 448,34 448,33.9 448,33.9 449,33.9 449,33.9 450,34 451,34.4 451,34.7 451,35.1 451,35.6 451,36.3 451,37.5 449,39.2 448,40.8 447,43 445,45.5 444,48 442,50.8 441,54.1 440,55.9 440,57.8 440,59.9 437,62.5 435,64.8 432,66.6 427,70.5 422,72.5 417,72.5 413,72.5 411,71.7 409,70.1 408,68.4 407,66.2 407,63.4 407,62 408,60.7 408,59.2 408,57.7 408,56.5 409,55.5 410,55.8 411,56 412,56.1 413,56.2 413,56.3 414,56.3 420,56 425,53.8 429,49.8 433,45.9 436,41.9 436,38 436,35.9 435,34.4 434,33.2 433,32.1 431,31.5 429,31.5 z M 622,31.5 C 615,32.1 609,36.1 603,43.5 597,50.9 594,58.1 594,65.1 594,68.6 595,71.4 597,73.3 599,75.2 602,76.2 606,76.3 613,76 619,73.5 625,68.7 628,66.3 631,63.8 633,61 633,62.8 632,64.6 632,66.3 632,69.3 633,71.6 634,73.4 636,75.2 638,76.2 640,76.3 645,76.1 650,73.4 654,68.1 658,62.9 662,56.1 665,47.8 L 666,48.2 C 665,50.9 664,53.4 663,55.7 663,58.1 662,60.3 661,62.3 661,64.3 660,66.1 660,67.6 659,69.1 659,70.3 659,71.2 659,72.8 660,74.1 660,74.9 661,75.8 662,76.2 664,76.3 669,75.7 674,72.6 679,66.8 684,62.4 687,58.3 690,54.5 690,56.6 689,58.4 688,60.9 687,65.3 685,70.4 684,76.3 L 693,74.8 C 694,68.7 698,61.2 702,52.2 706,43.3 711,38.3 716,37.4 718,37.4 719,37.7 719,38.2 720,38.8 720,39.6 721,40.6 L 724,32.2 C 724,32 724,31.8 723,31.7 723,31.6 722,31.5 722,31.5 715,32.5 708,38.2 703,48.5 697,58.8 694,67.4 691,74.4 L 690,74.4 703,31.5 688,32.8 688,34.2 C 691,34.2 692,34.4 693,35 694,35.5 695,36.3 695,37.4 695,38.4 694,39.8 694,41.8 693,43.8 693,46.4 692,49.6 691,50.3 691,51.3 691,52.1 688,56.3 684,60.3 681,64.2 676,69.1 672,71.7 669,72 668,72 668,71.9 667,71.5 667,71.2 667,70.6 667,69.8 667,67.5 668,62.6 670,55.1 672,47.5 675,39.6 678,31.5 L 671,32.3 667,44.7 666,44.4 C 666,43.4 666,42.5 666,41.7 667,40.8 667,39.9 667,39 667,36.2 666,34.3 665,33.2 664,32 662,31.5 660,31.5 654,32.2 648,36.4 642,44.2 638,49 636,53.6 634,58.1 631,61.5 628,64.4 625,66.6 620,70.5 614,72.5 609,72.5 606,72.5 604,71.7 602,70.1 601,68.4 600,66.2 600,63.4 600,62 600,60.7 601,59.2 601,57.7 601,56.5 602,55.5 602,55.8 603,56 604,56.1 605,56.2 606,56.3 607,56.3 613,56 618,53.8 622,49.8 626,45.9 628,41.9 629,38 628,35.9 628,34.4 627,33.2 626,32.1 624,31.5 622,31.5 z M 274,33.2 275,33.2 261,77.4 C 260,82.2 258,86.7 255,90.8 253,94.9 249,97.1 243,97.4 239,97.3 236,96.3 234,94.5 231,92.7 230,90.4 230,87.7 230,84.4 232,81.5 235,79 238,76.5 241,74.5 245,73.1 245,73.7 246,74.4 247,75.1 248,75.8 249,76.2 250,76.3 255,75.4 259,70 264,60.2 268,50.4 271,41.4 274,33.2 z M 426,33.4 C 428,33.4 429,33.9 429,34.9 430,35.9 430,37.2 430,38.9 430,42.4 429,45.8 427,49.1 425,52.4 422,54.2 419,54.4 417,54.4 415,54 414,53.4 412,52.8 411,52.1 410,51.5 412,46.6 414,42.4 417,38.9 420,35.4 423,33.6 426,33.4 z M 619,33.4 C 620,33.4 621,33.9 622,34.9 623,35.9 623,37.2 623,38.9 623,42.4 622,45.8 620,49.1 618,52.4 615,54.2 611,54.4 610,54.4 608,54 606,53.4 605,52.8 604,52.1 603,51.5 605,46.6 607,42.4 610,38.9 613,35.4 616,33.6 619,33.4 z M 489,33.9 C 490,33.9 491,34.5 492,35.6 492,36.7 493,38.3 493,40.5 493,44.9 492,49.3 490,53.7 488,58.1 486,61.8 483,64.7 482,63.6 481,62.2 481,60.5 480,58.8 480,56.7 480,54.1 480,49.1 481,44.6 483,40.5 485,36.3 487,34.1 489,33.9 z M 111,34.9 C 113,35 115,35.8 116,37.5 117,39.1 117,41 117,43.2 117,49.3 115,55.5 110,61.8 106,68.1 102,71.5 97.4,72 96.1,72 94.9,71.4 93.9,70.1 92.9,68.8 92.4,66.8 92.4,64 92.5,59.1 94.3,53.2 97.7,46.3 101,39.4 106,35.6 111,34.9 z M 657,34.9 C 659,35 661,35.8 662,37.5 663,39.1 664,41 664,43.2 663,49.3 661,55.5 657,61.8 652,68.1 648,71.5 644,72 642,72 641,71.4 640,70.1 639,68.8 639,66.8 639,64 639,59.1 641,53.2 644,46.3 647,39.4 652,35.6 657,34.9 z M 731,67.5 C 729,67.5 728,68 727,68.9 727,69.8 726,70.9 726,71.9 726,73.2 727,74.2 727,75 728,75.8 729,76.2 731,76.3 732,76.2 733,75.8 734,75 735,74.2 735,73.2 735,71.9 735,71 735,70 734,69 733,68.1 732,67.5 731,67.5 z"/>

  <path id="tplDragonHead" d="M -21,84 C -16.8,85.3 -3.3,86.7 -3.34,86.7 -3.34,86.7 6,93.4 11.5,92.1 16.9,90.8 23.6,81.3 23.6,81.3 23.6,81.3 34.4,85.4 39.8,84 43.8,82.7 51.9,73.2 51.9,73.2 51.9,73.2 60,78.6 64.1,77.3 68.1,75.9 73.5,67.8 73.5,67.8 73.5,67.8 93.7,77.3 103,63.8 85.6,55.7 47.9,36.8 42.5,24.7 35.7,12.6 46.5,-2.25 54.6,3.15 30.4,26.1 100,46.3 115,51.7 70.8,26.1 66.8,22 62.7,9.89 60,-2.25 72.1,-13 81.6,-6.29 49.2,16.6 115,27.4 148,55.7 158,47.6 169,54.4 169,62.5 185,84 203,75.9 212,90.7 214,94.8 216,94.8 214,98.9 212,103 210,104 208,106 206,110 202,116 195,118 207,107 176,103 158,97.5 158,111 168,129 181,134 181,134 175,153 162,142 153,137 141,110 129,107 88.3,106 62.7,196 -47.8,149 z M 157,65.2 C 156,63.8 154,63.8 152,63.8 146,63.8 146,69 152,71.8 156,62.4 158,65.2 154,74.5 165,81.3 164,67.8 157,65 z"/>

  <path id="tplSpbProfile" d="M 4,233 C 39.6,239 79.6,232 99.4,240 111,238 123,237 135,237 L 142,243 C 152,238 162,232 172,226 180,231 179,231 185,225 201,231 218,237 233,241 L 249,234 261,241 261,247 269,239 C 282,239 308,227 308,227 310,202 308,200 308,200 L 309,199 C 309,199 310,179 310,172 L 307,163 C 307,163 307,160 310,163 310,148 318,144 318,144 318,144 318,137 319,131 315,131 320,118 324,116 L 327,2.32 331,116 C 334,118 339,131 336,131 337,137 337,144 337,144 337,144 345,148 345,163 345,163 348,161 348,162 349,164 345,173 345,173 L 346,199 348,200 C 346,205 347,218 347,227 367,227 384,227 398,228 398,228 398,208 398,197 399,193 408,191 408,191 L 408,179 410,177 C 410,177 408,174 408,173 408,169 410,171 411,168 412,166 412,160 412,160 412,160 411,166 412,168 413,170 415,169 415,173 416,174 413,177 413,177 L 415,179 415,191 C 415,191 424,194 425,197 425,201 425,228 425,228 L 430,231 430,225 435,220 443,220 446,226 446,234 C 476,240 486,231 516,231 521,223 527,217 537,215 L 537,202 C 538,197 541,196 544,193 L 545,187 C 541,186 541,182 545,181 L 546,169 546,181 C 550,181 550,186 547,187 L 547,193 C 547,193 555,198 555,202 555,206 555,214 555,214 569,219 573,226 575,239 593,235 592,240 610,242 L 617,238 620,244 C 644,238 637,219 659,232 677,249 686,227 700,242 725,238 749,234 760,230 774,227 774,226 785,231 796,229 794,225 806,235 818,235 839,234 864,234 889,234 943,258 944,242 946,215 1020,243 1040,236 1050,232 1140,269 1140,283 L 486,283 271,283 179,282 -0.8,282 -0.8,235 2.4,216 z" />

  <path id="tplSnowFlake1" d="M 0,0 10,10z M 9,9 10,9z M 9,9 9,10z M 8,8 8,10z M 8,8 10,8z M 5,5 10,5z M 5,5 5,10z M 3,3 10,2.3z M 3,3 2.3,10z"/>
  <path id="tplSnowFlake2" d="M 0,0 10,10z M 6,6 3,10 9,9 10,3 6,6 M 3,3 2,8 5,5 8,2 3,3"/>
  <path id="tplSnowFlake3" d="M 0,0 10,10z M 10,2 10,10, 2,10 M 2,8 8,8, 8,2 M 1,6 6,6, 6,1 M 10,3 3,3, 3,10"/>

  <use id="tplSnowFlake4" xlink:href="#tplSnowFlake1" />
  <use id="tplSnowFlake5" xlink:href="#tplSnowFlake1" />

  <g id="ground">
    <rect y="255" width="100%" height="50"/>
    <use xlink:href="#tplSpbProfile"/>
  </g>
  <use id="groundFixed" xlink:href="#ground" y="-280" />

  <rect id="crop" x="-30%" width="30%" height="100%" />

  <g id="snowFlake1">
    <use xlink:href="#tplSnowFlake1" />
    <use xlink:href="#tplSnowFlake1" transform="rotate(60)" />
    <use xlink:href="#tplSnowFlake1" transform="rotate(120)" />
    <use xlink:href="#tplSnowFlake1" transform="rotate(180)" />
    <use xlink:href="#tplSnowFlake1" transform="rotate(240)" />
    <use xlink:href="#tplSnowFlake1" transform="rotate(300)" />
  </g>

  <g id="snowFlake2">
    <use xlink:href="#tplSnowFlake2" />
    <use xlink:href="#tplSnowFlake2" transform="rotate(60)" />
    <use xlink:href="#tplSnowFlake2" transform="rotate(120)" />
    <use xlink:href="#tplSnowFlake2" transform="rotate(180)" />
    <use xlink:href="#tplSnowFlake2" transform="rotate(240)" />
    <use xlink:href="#tplSnowFlake2" transform="rotate(300)" />
  </g>

  <g id="snowFlake3">
    <use xlink:href="#tplSnowFlake3" />
    <use xlink:href="#tplSnowFlake3" transform="rotate(60)" />
    <use xlink:href="#tplSnowFlake3" transform="rotate(120)" />
    <use xlink:href="#tplSnowFlake3" transform="rotate(180)" />
    <use xlink:href="#tplSnowFlake3" transform="rotate(240)" />
    <use xlink:href="#tplSnowFlake3" transform="rotate(300)" />
  </g>

  <g id="panorama">
    <rect id="sky" x="0" y="0" width="100%" height="100%" />
    <circle r="2" cx="105" cy="425" />
    <circle r="2" cx="245" cy="515" />
    <circle r="2" cx="805" cy="95" />
    <circle r="2" cx="705" cy="105" />
    <circle r="1" cx="334" cy="75" />
    <circle r="2" cx="445" cy="345" />
    <circle r="2" cx="504" cy="675" />
    <circle r="3" cx="534" cy="175" />
    <circle r="1" cx="734" cy="575" />
    <circle r="2" cx="845" cy="345" />
    <circle r="2" cx="745" cy="545" />
    <circle r="3" cx="645" cy="445" />
    <use id="bottomGround" y="100%" xlink:href="#groundFixed"   />
    <use id="head" x="-10" y="20" xlink:href="#tplDragonHead" />
  </g>

  <path id="snowPath" d="M 31,9 C 31,9 85,79 59,109 33,138 18,136 45,163 72,190 89,199 62,217 36,234 29,238 44,264 59,290 74,303 60,314 45,325 30,341 48,358 60,368 38,394 40,413 42,428 58,439 59,454 60,473 43,489 41,508 36,562 65,672 60,669" />

  <use id="snow1" xlink:href="#snowFlake1"/>

  <use id="rotateSnowOnce" xlink:href="#snowFlake1">
    <animateTransform
      attributeName="transform"
      attributeType="XML"
      type="rotate"
      from="0" to="360" dur="10s"
      repeatCount="1"
      begin="13s"
    />
  </use>

  <g id="flakesStikyGroup">
    <use xlink:href="#rotateSnowOnce">
       <animateTransform
        attributeName="transform"
        attributeType="XML"
        type="translate"
        fill="freeze"
        additive="replace"
        from="0,0" to="500,150" dur="10s"
        repeatCount="1"
        begin="13s"
      />
    </use>

    <use xlink:href="#snowFlake1">
       <animateTransform
        attributeName="transform"
        attributeType="XML"
        type="translate"
        fill="freeze"
        additive="replace"
        from="0,0" to="600,150" dur="10s"
        repeatCount="1"
        begin="23s"
      />
    </use>

    <use xlink:href="#snowFlake1">
       <animateTransform
        attributeName="transform"
        attributeType="XML"
        type="translate"
        fill="freeze"
        additive="replace"
        from="0,0" to="300,150" dur="3s"
        repeatCount="1"
        begin="22s"
      />
    </use>

    <use xlink:href="#snowFlake1">
       <animateTransform
        attributeName="transform"
        attributeType="XML"
        type="translate"
        fill="freeze"
        additive="replace"
        from="0,0" to="100,150" dur="3s"
        repeatCount="1"
        begin="12s"
      />
    </use>

    <use xlink:href="#snowFlake1">
       <animateTransform
        attributeName="transform"
        attributeType="XML"
        type="translate"
        fill="freeze"
        additive="replace"
        from="0,0" to="0,150" dur="3s"
        repeatCount="1"
        begin="2s"
      />
    </use>
  </g>

    <use id="flake1indefinite" xlink:href="#snowFlake1">
      <animateMotion
        dur="10s"
        repeatCount="indefinite">
        <mpath xlink:href="#snowPath"/>
      </animateMotion>
      <animateTransform
        attributeName="transform"
        attributeType="XML"
        type="rotate"
        from="0" to="360" dur="25s"
        repeatCount="indefinite"
        begin="2s"
      />
    </use>

  <g id="flakesIndefiniteType1">
    <use xlink:href="#flake1indefinite">
      <animateTransform
        attributeName="transform"
        attributeType="XML"
        type="translate"
        fill="freeze"
        additive="replace"
        from="0,0" to="100,150" dur="10s"
        repeatCount="indefinite"
      />
    </use>
    <use xlink:href="#flake1indefinite">
      <animateTransform
        attributeName="transform"
        attributeType="XML"
        type="translate"
        fill="freeze"
        additive="replace"
        from="0,0" to="400,250" dur="10s"
        repeatCount="indefinite"
      />
    </use>
    <use xlink:href="#flake1indefinite">
      <animateTransform
        attributeName="transform"
        attributeType="XML"
        type="translate"
        fill="freeze"
        additive="replace"
        from="0" to="700" dur="10s"
        repeatCount="indefinite"
      />
    </use>

  </g>

  <use id="flake2indefinite" xlink:href="#snowFlake2">
    <animateMotion
      dur="13s"
      repeatCount="indefinite">
      <mpath xlink:href="#snowPath"/>
    </animateMotion>
      <animateTransform
        attributeName="transform"
        attributeType="XML"
        type="rotate"
        from="0" to="360" dur="15s"
        repeatCount="indefinite"
        begin="2s"
      />
  </use>

  <g id="flakesIndefiniteType2">
    <use xlink:href="#flake2indefinite">
      <animateTransform
        attributeName="transform"
        attributeType="XML"
        type="translate"
        fill="freeze"
        additive="replace"
        from="0" to="200" dur="13s"
        repeatCount="indefinite"
      />
    </use>
    <use xlink:href="#flake2indefinite">
      <animateTransform
        attributeName="transform"
        attributeType="XML"
        type="translate"
        fill="freeze"
        additive="replace"
        from="0,0" to="300,300" dur="13s"
        repeatCount="indefinite"
      />
    </use>
    <use xlink:href="#flake2indefinite">
      <animateTransform
        attributeName="transform"
        attributeType="XML"
        type="translate"
        fill="freeze"
        additive="replace"
        from="0,0" to="600,-50" dur="13s"
        repeatCount="indefinite"
      />
    </use>

  </g>



  <use id="flake3indefinite" xlink:href="#snowFlake3">
    <animateMotion
      dur="12s"
      begin="2s"
      repeatCount="indefinite">
      <mpath xlink:href="#snowPath"/>
    </animateMotion>
      <animateTransform
        attributeName="transform"
        attributeType="XML"
        type="rotate"
        from="0" to="360" dur="20s"
        repeatCount="indefinite"
        begin="2s"
      />
  </use>

  <g id="flakesIndefiniteType3">
    <use xlink:href="#flake3indefinite">
      <animateTransform
        attributeName="transform"
        attributeType="XML"
        type="translate"
        fill="freeze"
        additive="replace"
        from="0" to="-50" dur="12s"
        repeatCount="indefinite"
        begin="2s"
      />
    </use>
    <use xlink:href="#flake3indefinite">
      <animateTransform
        attributeName="transform"
        attributeType="XML"
        type="translate"
        fill="freeze"
        additive="replace"
        from="0" to="300" dur="12s"
        repeatCount="indefinite"
        begin="2s"
      />
    </use>
    <use xlink:href="#flake3indefinite">
      <animateTransform
        attributeName="transform"
        attributeType="XML"
        type="translate"
        fill="freeze"
        additive="replace"
        from="0,0" to="650,-100" dur="12s"
        repeatCount="indefinite"
        begin="2s"
      />
    </use>

  </g>

<use id="flake4indefinite" xlink:href="#snowFlake3">
    <animateMotion
      dur="15s"
      begin="5s"
      repeatCount="indefinite">
      <mpath xlink:href="#snowPath"/>
    </animateMotion>
      <animateTransform
        attributeName="transform"
        attributeType="XML"
        type="rotate"
        from="0" to="360" dur="3s"
        repeatCount="indefinite"
        begin="5s"
      />
  </use>

  <g id="flakesIndefiniteType4">
    <use xlink:href="#flake4indefinite">
      <animateTransform
        attributeName="transform"
        attributeType="XML"
        type="translate"
        fill="freeze"
        additive="replace"
        from="0" to="-150" dur="15s"
        repeatCount="indefinite"
        begin="5s"
      />
    </use>
    <use xlink:href="#flake4indefinite">
      <animateTransform
        attributeName="transform"
        attributeType="XML"
        type="translate"
        fill="freeze"
        additive="replace"
        from="0" to="300" dur="15s"
        repeatCount="indefinite"
        begin="5s"
      />
    </use>
    <use xlink:href="#flake4indefinite">
      <animateTransform
        attributeName="transform"
        attributeType="XML"
        type="translate"
        fill="freeze"
        additive="replace"
        from="0,0" to="650,-100" dur="15s"
        repeatCount="indefinite"
        begin="5s"
      />
    </use>

  </g>



  <use id="flake5indefinite" xlink:href="#snowFlake3">
    <animateMotion
      dur="15s"
      begin="7s"
      repeatCount="indefinite">
      <mpath xlink:href="#snowPath"/>
    </animateMotion>
      <animateTransform
        attributeName="transform"
        attributeType="XML"
        type="rotate"
        from="360" to="0" dur="7s"
        repeatCount="indefinite"
        begin="7s"
      />
  </use>

  <g id="flakesIndefiniteType5">
    <use xlink:href="#flake5indefinite">
      <animateTransform
        attributeName="transform"
        attributeType="XML"
        type="translate"
        fill="freeze"
        additive="replace"
        from="0" to="150" dur="15s"
        repeatCount="indefinite"
        begin="7s"
      />
    </use>
    <use xlink:href="#flake5indefinite">
      <animateTransform
        attributeName="transform"
        attributeType="XML"
        type="translate"
        fill="freeze"
        additive="replace"
        from="0" to="600" dur="15s"
        repeatCount="indefinite"
        begin="7s"
      />
    </use>
    <use xlink:href="#flake5indefinite">
      <animateTransform
        attributeName="transform"
        attributeType="XML"
        type="translate"
        fill="freeze"
        additive="replace"
        from="0,0" to="950" dur="15s"
        repeatCount="indefinite"
        begin="7s"
      />
    </use>

  </g>

  </defs>

  <use xlink:href="#panorama" />

 <use xlink:href="#flakesStikyGroup" x="140" y="110"/>
 <use xlink:href="#flakesIndefiniteType1" x="140" y="110"/>
 <use xlink:href="#flakesIndefiniteType2" x="140" y="110"/>
 <use xlink:href="#flakesIndefiniteType3" x="140" y="110"/>
 <use xlink:href="#flakesIndefiniteType4" x="140" y="110"/>
 <use xlink:href="#flakesIndefiniteType5" x="140" y="110"/>
 <use xlink:href="#tplNewYearLabel" x="5%" y="30%" />

  <use x="100%" xlink:href="#crop" />

</svg>

