<?xml version="1.0" encoding="UTF-8"?>
<?xml-stylesheet type="text/css" href="snowflakes.css" ?>
<svg version="1.1" xmlns="http://www.w3.org/2000/svg" xmlns:xlink="http://www.w3.org/1999/xlink" viewBox="0 0 2000 100%">
  <title>Snowflakes</title>
<defs>
  <g id="snowflakeFrame">
    <circle r="70" />
    <path d="M90,55 L 65,25" />
    <rect x="55" y="55" width="70" height="70" rx="3" ry="4" />
  </g>

  <!-- Snowflake type1 -->
  <path class="templateSnowflake" id="tplSnowflake1" d="
      M0,0 L40,40
      M 40,30 L 30,30 L 30,40
      M 35,25 L25,25 L 25,35
      M 35,20 L20,20 L 20,35
      M 40,11 L15,15 L 11,40
      M 20,8 L8,8 L 8,20
  " />

  <g id="snowFlake1">
    <use xlink:href="#tplSnowflake1" />
    <use xlink:href="#tplSnowflake1" transform="rotate(60)" />
    <use xlink:href="#tplSnowflake1" transform="rotate(120)" />
    <use xlink:href="#tplSnowflake1" transform="rotate(180)" />
    <use xlink:href="#tplSnowflake1" transform="rotate(240)" />
    <use xlink:href="#tplSnowflake1" transform="rotate(300)" />
  </g>

  <g id="flake1">
    <use id="flake1" xlink:href="#snowFlake1" />
    <use x="70" y="70" xlink:href="#tplSnowflake1" />
  </g>

  <!-- Snowflake type2 -->
  <g class="templateSnowflake" id="tplSnowflake2">
    <path d="
      M0,0 L40,40
      M 40,30 L 30,30 L 30,40
      M 35,25 L25,25 L 25,35
      M 35,20 L20,20 L 20,35
      M 40,11 L15,15 L 11,40
      M 20,8 L8,8 L 8,20
  " />
    <circle r="5" style="fill: blue" />
    <circle cx="40" cy="40" r="5" />
    <circle cx="10" cy="40" r="5" />
  </g>

  <g id="snowFlake2">
    <use xlink:href="#tplSnowflake2" />
    <use xlink:href="#tplSnowflake2" transform="rotate(60)" />
    <use xlink:href="#tplSnowflake2" transform="rotate(120)" />
    <use xlink:href="#tplSnowflake2" transform="rotate(180)" />
    <use xlink:href="#tplSnowflake2" transform="rotate(240)" />
    <use xlink:href="#tplSnowflake2" transform="rotate(300)" />
  </g>

  <g id="flake2">
    <use id="flake2" xlink:href="#snowFlake2" />
    <use x="70" y="70" xlink:href="#tplSnowflake2" />
  </g>


  <!-- Snowflake type3 -->
  <g class="templateSnowflake" id="tplSnowflake3">
    <rect width="20" height="20" />
    <path d="M0,0L40,40" />
    <rect x="10" y="10" width="25" height="25" />
    <rect x="10" y="10" width="20" height="20" />
    <rect x="15" y="15" width="10" height="10" />
    <rect x="30" y="30" width="10" height="10" />
  </g>

  <g id="snowFlake3">
    <use xlink:href="#tplSnowflake3" />
    <use xlink:href="#tplSnowflake3" transform="rotate(60)" />
    <use xlink:href="#tplSnowflake3" transform="rotate(120)" />
    <use xlink:href="#tplSnowflake3" transform="rotate(180)" />
    <use xlink:href="#tplSnowflake3" transform="rotate(240)" />
    <use xlink:href="#tplSnowflake3" transform="rotate(300)" />
  </g>

  <g id="flake3">
    <use id="flake3" xlink:href="#snowFlake3" />
    <use x="70" y="70" xlink:href="#tplSnowflake3" />
  </g>

  <!-- Snowflake type4 -->
  <g class="templateSnowflake" id="tplSnowflake4">
    <path d="M0,0L45,45
        M 38,26 46,40
        M 17,17 26,38 23,44
        M 26,38 40,46
        M 17,17 38,26 44,23
        M 9.5,35 17,20
        M 0,0 35,9.5 20,17
        M 35,9.5 45,12 46,17 M 45,12 49,8
    " />
  </g>

  <g id="snowFlake4">
    <use xlink:href="#tplSnowflake4" />
    <use xlink:href="#tplSnowflake4" transform="rotate(60)" />
    <use xlink:href="#tplSnowflake4" transform="rotate(120)" />
    <use xlink:href="#tplSnowflake4" transform="rotate(180)" />
    <use xlink:href="#tplSnowflake4" transform="rotate(240)" />
    <use xlink:href="#tplSnowflake4" transform="rotate(300)" />
  </g>

  <g id="flake4">
    <use id="flake4" xlink:href="#snowFlake4" />
    <use x="70" y="70" xlink:href="#tplSnowflake4" />
  </g>

  <!-- Snowflake type5 -->
  <g class="templateSnowflakeFull" id="tplSnowflake5">
    <path d="
   M -0.2522,-0.2522 -0.2522,11.15 5.694,32.95 -0.2522,46.82 11.64,37.9 9.163,51.78 17.09,32.95 22.54,48.81 38.39,39.39 22.54,42.86 22.54,32.95 16.1,23.03 32.95,23.03 22.54,16.1 11.15,12.63 22.54,5.198 13.62,-0.2522 z M 7.677,0.7389 17.09,4.703 7.677,10.15 1.73,8.171 1.73,1.73 z M 3.216,12.14 10.65,16.1 17.59,21.06 11.64,19.57 16.1,27.99 12.63,31.96 10.65,24.52 9.163,30.47 z" />
  </g>

  <g id="snowFlake5">
    <use xlink:href="#tplSnowflake5" />
    <use xlink:href="#tplSnowflake5" transform="rotate(60)" />
    <use xlink:href="#tplSnowflake5" transform="rotate(120)" />
    <use xlink:href="#tplSnowflake5" transform="rotate(180)" />
    <use xlink:href="#tplSnowflake5" transform="rotate(240)" />
    <use xlink:href="#tplSnowflake5" transform="rotate(300)" />
  </g>

  <g id="flake5">
    <use id="flake5" xlink:href="#snowFlake5" />
    <use x="70" y="70" xlink:href="#tplSnowflake5" />
  </g>

  <!-- Snowflake type6 -->
  <g class="templateSnowflakeFull" id="tplSnowflake6">
    <path d="
   M -0.105,11.42 3.352,20.06 2.776,38.5 7.386,23.52 7.386,46.57 11.42,25.25 11.42,55.21 14.3,25.83 22.95,51.75 19.49,31.59 35.62,45.42 21.21,26.98 43.11,37.35 20.06,21.8 41.96,25.83 15.45,14.88 C 15.45,14.88 34.47,14.3 32.74,14.3 31.59,13.73 11.42,8.538 11.42,8.538 L 31.01,8.538 5.658,-0.105 -0.105,-0.105 z" />
  </g>

  <g id="snowFlake6">
    <use xlink:href="#tplSnowflake6" />
    <use xlink:href="#tplSnowflake6" transform="rotate(60)" />
    <use xlink:href="#tplSnowflake6" transform="rotate(120)" />
    <use xlink:href="#tplSnowflake6" transform="rotate(180)" />
    <use xlink:href="#tplSnowflake6" transform="rotate(240)" />
    <use xlink:href="#tplSnowflake6" transform="rotate(300)" />
  </g>

  <g id="flake6">
    <use id="flake6" xlink:href="#snowFlake6" />
    <use x="70" y="70" xlink:href="#tplSnowflake6" />
  </g>

  <!-- Snowflake type7 -->
  <g class="templateSnowflakeFull" id="tplSnowflake7">
    <path d="
   M -0.0691,-0.0691 -0.0691,6.635 6.635,13.86 6.635,20.04 13.86,20.04 6.635,30.87 13.86,30.87 13.86,39.13 20.04,30.87 20.04,39.13 30.87,39.13 36.03,46.34 36.03,35.51 46.34,36.03 39.13,30.87 39.13,20.04 30.87,20.04 39.13,13.86 30.87,13.86 30.87,6.635 20.04,13.86 20.04,6.635 13.86,6.635 6.635,-0.0691 z M 2.509,2.509 15.4,11.27 10.76,10.76 11.27,14.89 z M 23.14,14.89 21.59,19.53 25.71,21.07 21.59,21.07 21.07,25.71 19.53,21.59 15.4,22.62 19.02,19.53 16.95,15.92 20.04,18.5 z M 30.35,22.11 30.35,27.26 34.49,24.17 31.39,28.3 36.55,28.3 31.39,29.84 36.03,32.94 30.87,30.87 32.94,36.03 29.84,31.9 28.3,37.06 28.3,31.39 24.17,35 27.26,30.87 22.11,30.87 27.26,29.33 22.62,26.23 27.78,27.78 25.71,23.14 28.81,27.26 z" />
  </g>

  <g id="snowFlake7">
    <use xlink:href="#tplSnowflake7" />
    <use xlink:href="#tplSnowflake7" transform="rotate(60)" />
    <use xlink:href="#tplSnowflake7" transform="rotate(120)" />
    <use xlink:href="#tplSnowflake7" transform="rotate(180)" />
    <use xlink:href="#tplSnowflake7" transform="rotate(240)" />
    <use xlink:href="#tplSnowflake7" transform="rotate(300)" />
  </g>

  <g id="flake7">
    <use id="flake7" xlink:href="#snowFlake7" />
    <use x="70" y="70" xlink:href="#tplSnowflake7" />
  </g>

  <!-- Snowflake type8 -->
  <g class="templateSnowflakeFull" id="tplSnowflake8">
    <path d="
 M -0.0429,-0.0429 -0.0429,10.16 6.277,30.59 3.847,11.62 16.49,28.64 17.94,24.75 23.29,30.59 23.78,32.05 16.49,37.39 25.24,39.34 25.72,48.09 31.55,41.28 39.82,45.17 36.9,36.9 44.2,31.55 35.93,29.61 34.97,20.86 29.13,27.66 27.66,26.7 22.32,20.86 26.7,19.4 11.62,3.847 29.13,10.16 9.682,-0.0429 z M 8.707,5.305 23.78,18.92 17.46,19.4 15.51,25.72 4.819,8.707 4.819,4.819 z" />
  </g>

  <g id="snowFlake8">
    <use xlink:href="#tplSnowflake8" />
    <use xlink:href="#tplSnowflake8" transform="rotate(60)" />
    <use xlink:href="#tplSnowflake8" transform="rotate(120)" />
    <use xlink:href="#tplSnowflake8" transform="rotate(180)" />
    <use xlink:href="#tplSnowflake8" transform="rotate(240)" />
    <use xlink:href="#tplSnowflake8" transform="rotate(300)" />
  </g>

  <g id="flake8">
    <use id="flake8" xlink:href="#snowFlake8" />
    <use x="70" y="70" xlink:href="#tplSnowflake8" />
  </g>


  <!-- Snowflake type9 -->
  <g class="templateSnowflakeFull" id="tplSnowflake9">
    <path d="
 M -0.507,0.0242 1.552,9.683 9.178,17.01 4.004,21.83 14.12,27.56 11.32,36.77 31.74,39.22 25.5,45.12 43.52,48.1 41.94,29.65 35.68,35.55 35.25,14.44 25.71,16.8 20.8,6.155 15.4,11.19 8.589,2.643 -0.507,0.0242 z M 6.201,6.155 12.96,13.48 11.61,14.72 4.869,7.412 6.201,6.155 z M 19.31,21.86 24.88,23.6 30.35,21.86 28.89,27.87 30.63,33.9 25.07,32.12 19.59,33.9 21.06,27.87 19.31,21.86 z" />
  </g>

  <g id="snowFlake9">
    <use xlink:href="#tplSnowflake9" />
    <use xlink:href="#tplSnowflake9" transform="rotate(60)" />
    <use xlink:href="#tplSnowflake9" transform="rotate(120)" />
    <use xlink:href="#tplSnowflake9" transform="rotate(180)" />
    <use xlink:href="#tplSnowflake9" transform="rotate(240)" />
    <use xlink:href="#tplSnowflake9" transform="rotate(300)" />
  </g>

  <g id="flake9">
    <use id="flake9" xlink:href="#snowFlake9" />
    <use x="70" y="70" xlink:href="#tplSnowflake9" />
  </g>

  <!-- Snowflake type10 -->
  <g class="templateSnowflakeFull" id="tplSnowflake10">
    <path d="
M -0.5021,0.0323 1.637,10.07 9.574,17.68 4.184,22.7 14.7,28.66 11.78,38.22 33.02,40.75 26.53,46.88 45.24,50.01 43.61,30.81 37.1,36.94 36.66,15.01 26.75,17.47 21.65,6.406 16.03,11.65 8.947,2.743 z M 6.468,6.4 13.5,14.01 12.1,15.31 5.072,7.697 z" />
  </g>

  <g id="snowFlake10">
    <use xlink:href="#tplSnowflake10" />
    <use xlink:href="#tplSnowflake10" transform="rotate(60)" />
    <use xlink:href="#tplSnowflake10" transform="rotate(120)" />
    <use xlink:href="#tplSnowflake10" transform="rotate(180)" />
    <use xlink:href="#tplSnowflake10" transform="rotate(240)" />
    <use xlink:href="#tplSnowflake10" transform="rotate(300)" />
  </g>

  <g id="flake10">
    <use id="flake10" xlink:href="#snowFlake10" />
    <use x="70" y="70" xlink:href="#tplSnowflake10" />
  </g>

  <!-- Snowflake type11 -->
  <g class="templateSnowflakeFull" id="tplSnowflake11">
    <path d="
M -0.5015,0.0297 1.228,8.145 7.639,14.3 3.289,18.36 11.79,23.18 9.444,30.92 26.61,32.96 21.35,37.92 36.5,40.44 35.17,24.93 29.91,29.88 29.54,12.13 21.53,14.14 17.41,5.182 12.87,9.417 7.142,2.231 -0.5015,0.0297 z M 5.135,5.182 10.81,11.34 9.683,12.38 4.016,6.235 5.135,5.182 z M 16.14,18.37 20.83,19.85 25.43,18.37 24.2,23.43 25.67,28.5 20.99,27.01 16.38,28.5 17.62,23.43 16.14,18.37 z M 11.14,28.3 10.75,30.96 12,33.54 10.23,34.27 12.27,36.69 10.69,38.77 15.64,41.31 13.5,42.22 17.8,44.69 19.14,39.85 16.99,40.75 18.87,35.34 16.22,35.04 15.98,31.87 14.13,32.64 13.2,29.83 11.14,28.3 z M 12.28,30.49 13.3,33 12.84,33.18 11.81,30.69 12.28,30.49 z M 14.13,35.73 15.37,36.69 16.92,36.77 15.99,38.16 15.87,39.86 14.62,38.88 13.05,38.81 14,37.43 14.13,35.73 z M 27.3,13.51 28.57,15.87 31.12,17.19 30.15,18.84 33.21,19.57 33.19,22.17 38.7,21.24 37.52,23.26 42.43,22.65 40.64,17.98 39.44,19.98 37.71,14.52 35.41,15.87 33.32,13.48 32.3,15.2 29.87,13.5 27.3,13.51 z M 29.52,14.59 31.83,15.98 31.57,16.41 29.26,15.02 29.52,14.59 z M 34.13,17.68 35.72,17.71 37,16.83 37.08,18.52 38,19.94 36.42,19.9 35.12,20.79 35.04,19.11 34.13,17.68 z M 28.17,36.55 27.12,39.03 27.69,41.84 25.78,42.09 27.15,44.94 25.09,46.57 29.27,50.27 26.95,50.64 30.5,54.1 33.02,49.74 30.71,50.07 33.89,45.3 31.4,44.38 31.96,41.23 29.97,41.52 29.78,38.54 28.17,36.55 z M 28.71,38.96 29.08,41.64 28.58,41.73 28.22,39.04 28.71,38.96 z M 29.19,44.49 30.16,45.76 31.65,46.2 30.4,47.3 29.85,48.93 28.87,47.67 27.39,47.22 28.64,46.08 29.19,44.49 z M 33.13,32.56 35.14,34.32 37.99,34.68 37.65,36.57 40.75,36.18 41.65,38.63 46.49,35.85 46.09,38.15 50.48,35.88 47.15,32.12 46.74,34.42 43.24,29.89 41.57,31.95 38.76,30.43 38.4,32.41 35.53,31.64 33.13,32.56 z M 35.58,32.8 38.24,33.3 38.15,33.79 35.5,33.29 35.58,32.8 z M 40.97,34.1 42.46,33.57 43.37,32.31 44.06,33.85 45.39,34.88 43.9,35.4 43,36.66 42.34,35.11 40.97,34.1 z" />
  </g>

  <g id="snowFlake11">
    <use xlink:href="#tplSnowflake11" />
    <use xlink:href="#tplSnowflake11" transform="rotate(60)" />
    <use xlink:href="#tplSnowflake11" transform="rotate(120)" />
    <use xlink:href="#tplSnowflake11" transform="rotate(180)" />
    <use xlink:href="#tplSnowflake11" transform="rotate(240)" />
    <use xlink:href="#tplSnowflake11" transform="rotate(300)" />
  </g>

  <g id="flake11">
    <use id="flake11" xlink:href="#snowFlake11" />
    <use x="70" y="70" xlink:href="#tplSnowflake11" />
  </g>

</defs>

<use x="100" y="100" xlink:href="#snowflakeFrame" />
<use x="100" y="100" xlink:href="#flake1" />

<use x="350" y="100" xlink:href="#snowflakeFrame" />
<use x="350" y="100" xlink:href="#flake2" />

<use x="600" y="100" xlink:href="#snowflakeFrame" />
<use x="600" y="100" xlink:href="#flake3" />

<use x="850" y="100" xlink:href="#snowflakeFrame" />
<use x="850" y="100" xlink:href="#flake4" />

<use x="1100" y="100" xlink:href="#snowflakeFrame" />
<use x="1100" y="100" xlink:href="#flake5" />

<use x="100" y="350" xlink:href="#snowflakeFrame" />
<use x="100" y="350" xlink:href="#flake6" />

<use x="350" y="350" xlink:href="#snowflakeFrame" />
<use x="350" y="350" xlink:href="#flake7" />

<use x="600" y="350" xlink:href="#snowflakeFrame" />
<use x="600" y="350" xlink:href="#flake8" />

<use x="850" y="350" xlink:href="#snowflakeFrame" />
<use x="850" y="350" xlink:href="#flake9" />

<use x="1100" y="350" xlink:href="#snowflakeFrame" />
<use x="1100" y="350" xlink:href="#flake10" />

<use x="100" y="600" xlink:href="#snowflakeFrame" />
<use x="100" y="600" xlink:href="#flake11" />

</svg>
